<svg width="201" height="101" viewBox="0 0 201 101" fill="none" xmlns="http://www.w3.org/2000/svg">
<g clip-path="url(#clip0_30725_57815)">
<path d="M145.878 23.4414H122.603V44.5711H55.6221V67.6613H124.583V46.5357H145.878V23.4414ZM122.603 65.7051H57.602V46.5357H122.603V65.7051ZM143.899 44.5711H124.583V25.406H143.899V44.5711Z" fill="black"/>
<path d="M69.3727 60.8939H67.3633V51.3594H72.8777V53.0314H69.3727V55.3053H72.2163V56.9564H69.3727V60.8939Z" fill="black"/>
<path d="M89.2722 60.8939H87.229V53.0314H84.6172V51.3594H91.884V53.0314H89.2722V60.8939Z" fill="black"/>
<path d="M101.005 60.8939H98.9705V56.9647H95.1581V60.8939H93.1191V51.3594H95.1581V55.2927H98.9705V51.3594H101.005V60.8939Z" fill="black"/>
<path d="M106.625 60.8939L104.308 53.4034H104.249C104.334 54.9305 104.376 55.9476 104.376 56.4548V60.8939H102.552V51.3594H105.332L107.607 58.6618H107.649L110.063 51.3594H112.839V60.9064H110.939V56.3753C110.939 56.1622 110.939 55.9155 110.939 55.6397C110.939 55.3638 110.977 54.6198 111.028 53.4159H110.969L108.487 60.8939H106.625Z" fill="black"/>
<path d="M75.5956 56.944H77.9715V60.8941H83.5154V59.2221H80.0104V56.944H83.2837V55.2971H80.0104V53.0065H83.5154V51.3345H75.9031L71.6904 60.8815H73.9021L75.5956 56.944ZM77.3354 52.9605H77.9715V55.2971H76.3244L77.3354 52.9605Z" fill="black"/>
<path d="M85.3396 73.9811C85.5115 73.9734 85.6827 74.0074 85.8383 74.0803C85.9939 74.1531 86.1293 74.2625 86.2327 74.3991C86.4437 74.7505 86.5552 75.152 86.5552 75.5611C86.5552 75.9702 86.4437 76.3717 86.2327 76.7231C86.1215 76.8534 85.9831 76.9581 85.8271 77.0299C85.671 77.1017 85.5011 77.1389 85.329 77.1389C85.157 77.1389 84.9871 77.1017 84.831 77.0299C84.675 76.9581 84.5366 76.8534 84.4254 76.7231H84.3833L84.2611 77.0826H83.7725V72.7939H84.4254V73.8139C84.4254 73.8891 84.4254 74.002 84.4254 74.1524C84.4254 74.3029 84.4254 74.3949 84.4254 74.4367H84.4507C84.5478 74.2922 84.6803 74.1746 84.8358 74.0949C84.9913 74.0152 85.1646 73.976 85.3396 73.9811ZM85.1711 74.5077C85.0646 74.4979 84.9574 74.5137 84.8584 74.5537C84.7594 74.5937 84.6716 74.6568 84.6024 74.7376C84.4645 74.9713 84.4013 75.2409 84.4212 75.5109V75.5527C84.3992 75.833 84.4607 76.1136 84.5982 76.3595C84.6661 76.4462 84.755 76.5146 84.8566 76.5585C84.9581 76.6023 85.0692 76.6201 85.1795 76.6103C85.2841 76.6152 85.3882 76.5922 85.4808 76.5437C85.5734 76.4952 85.6512 76.4229 85.7061 76.3344C85.8403 76.0948 85.9031 75.8222 85.8872 75.5485C85.8872 74.8547 85.6471 74.5077 85.1711 74.5077Z" fill="black"/>
<path d="M86.7539 74.0356H87.4658L88.0893 75.762C88.1775 75.9858 88.241 76.2185 88.2789 76.4558H88.2999C88.3219 76.3325 88.3528 76.211 88.3926 76.0922C88.439 75.9459 88.6707 75.2562 89.0961 74.0356H89.8039L88.4895 77.4883C88.4225 77.7539 88.2696 77.9905 88.0544 78.1618C87.8391 78.3331 87.5732 78.4298 87.2973 78.4371C87.1556 78.4385 87.0141 78.4231 86.8761 78.3912V77.8812C86.9869 77.9039 87.0999 77.9151 87.2131 77.9146C87.3695 77.9116 87.5202 77.8563 87.641 77.7577C87.7618 77.6591 87.8455 77.5229 87.8787 77.3713L87.9924 77.0828L86.7539 74.0356Z" fill="black"/>
<path d="M94.3247 74.274C94.335 74.4563 94.3023 74.6385 94.2291 74.8062C94.156 74.9738 94.0445 75.1222 93.9034 75.2395C93.5589 75.4855 93.139 75.6052 92.7155 75.5781H92.2942V77.0829H91.6328V73.0534H92.7997C93.2047 73.0245 93.6074 73.1336 93.9414 73.3627C94.0719 73.4748 94.1745 73.6155 94.241 73.7736C94.3075 73.9317 94.3362 74.103 94.3247 74.274ZM92.2984 75.0222H92.6523C92.9146 75.0425 93.1767 74.9811 93.4021 74.8466C93.4842 74.781 93.5486 74.6963 93.5898 74.6001C93.6309 74.5038 93.6475 74.399 93.638 74.2948C93.6461 74.1981 93.6312 74.1009 93.5946 74.0109C93.558 73.9209 93.5008 73.8407 93.4274 73.7765C93.2307 73.648 92.9967 73.5877 92.7618 73.6052H92.2984V75.0222Z" fill="black"/>
<path d="M96.3126 77.1376C96.1069 77.1485 95.9011 77.117 95.7082 77.0451C95.5153 76.9732 95.3396 76.8623 95.1921 76.7196C95.0496 76.5663 94.9391 76.3866 94.8668 76.1907C94.7945 75.9949 94.7619 75.7869 94.7708 75.5785C94.7447 75.1544 94.8783 74.7358 95.1457 74.4039C95.2748 74.2626 95.4341 74.1517 95.6119 74.0794C95.7898 74.0071 95.9817 73.9752 96.1736 73.9859C96.3507 73.9769 96.5278 74.005 96.6933 74.0684C96.8588 74.1318 97.009 74.229 97.1341 74.3538C97.2571 74.4902 97.3517 74.6495 97.4125 74.8224C97.4732 74.9953 97.4989 75.1784 97.488 75.3611V75.7123H95.4406C95.4327 75.9611 95.5183 76.2039 95.6807 76.3936C95.7652 76.4761 95.8663 76.5399 95.9774 76.5809C96.0884 76.622 96.207 76.6393 96.3253 76.6318C96.4951 76.633 96.6645 76.6162 96.8308 76.5817C97.0041 76.5396 97.1733 76.4822 97.3363 76.4103V76.937C97.1827 77.0111 97.0197 77.0645 96.8518 77.0958C96.6739 77.1269 96.4933 77.1409 96.3126 77.1376ZM96.1947 74.4708C96.1025 74.4669 96.0106 74.4823 95.9249 74.5162C95.8392 74.5501 95.7617 74.6015 95.6976 74.6673C95.5592 74.8255 95.4803 75.0263 95.4743 75.2357H96.8687C96.8796 75.0301 96.8136 74.8276 96.6833 74.6673C96.6211 74.6013 96.5452 74.5496 96.4608 74.5157C96.3764 74.4817 96.2856 74.4664 96.1947 74.4708Z" fill="black"/>
<path d="M100.079 77.0827L99.9485 76.6647H99.9148C99.7977 76.8231 99.6448 76.952 99.4683 77.0409C99.285 77.1138 99.0885 77.148 98.8911 77.1412C98.7629 77.1494 98.6342 77.1322 98.5127 77.0906C98.3912 77.049 98.2793 76.9838 98.1834 76.8988C98.0955 76.8083 98.0276 76.7006 97.9841 76.5825C97.9406 76.4645 97.9224 76.3387 97.9307 76.2133C97.9226 76.0746 97.951 75.9362 98.013 75.8116C98.075 75.6871 98.1686 75.5806 98.2845 75.5027C98.6114 75.3186 98.9831 75.2274 99.3587 75.2394H99.8895V75.0805C99.9022 74.9219 99.8524 74.7646 99.7505 74.6416C99.694 74.5901 99.6275 74.5506 99.5551 74.5254C99.4827 74.5003 99.4058 74.49 99.3293 74.4953C99.1748 74.4955 99.0213 74.5195 98.8743 74.5664C98.7305 74.6118 98.5898 74.6663 98.453 74.7294L98.2424 74.2654C98.4158 74.1771 98.5998 74.111 98.79 74.069C98.9736 74.0255 99.1616 74.0031 99.3503 74.0021C99.6658 73.9791 99.9793 74.068 100.235 74.2529C100.342 74.3553 100.424 74.4802 100.476 74.6184C100.528 74.7566 100.548 74.9045 100.534 75.0513V77.1036L100.079 77.0827ZM99.1102 76.6438C99.319 76.6536 99.5232 76.5816 99.6789 76.4432C99.7526 76.3719 99.8099 76.2858 99.8469 76.1906C99.884 76.0953 99.9 75.9933 99.8938 75.8914V75.6281H99.502C99.2677 75.6219 99.0357 75.6752 98.828 75.7828C98.7592 75.8279 98.7038 75.8904 98.6675 75.9639C98.6312 76.0374 98.6153 76.1192 98.6215 76.2008C98.6183 76.2592 98.6275 76.3178 98.6486 76.3725C98.6696 76.4272 98.702 76.4769 98.7437 76.5184C98.8449 76.6057 98.9763 76.6507 99.1102 76.6438Z" fill="black"/>
<path d="M102.927 73.9812C103.036 73.9795 103.144 73.9879 103.251 74.0062L103.188 74.6123C103.093 74.5904 102.995 74.5792 102.897 74.5789C102.779 74.5747 102.662 74.5953 102.552 74.6392C102.442 74.6832 102.343 74.7495 102.261 74.8339C102.18 74.9222 102.117 75.0257 102.075 75.1383C102.034 75.2509 102.016 75.3705 102.021 75.4901V77.0827H101.368V74.0355H101.878L101.966 74.5747H101.996C102.095 74.4064 102.232 74.2633 102.396 74.1567C102.552 74.0477 102.736 73.9866 102.927 73.9812Z" fill="black"/>
<path d="M105.812 76.2133C105.819 76.3457 105.793 76.4778 105.736 76.5976C105.678 76.7173 105.592 76.8209 105.483 76.8988C105.203 77.0745 104.875 77.1579 104.544 77.1371C104.206 77.1524 103.868 77.0895 103.558 76.9532V76.3931C103.873 76.5487 104.218 76.6343 104.569 76.6439C104.969 76.6439 105.172 76.5226 105.172 76.2802C105.175 76.2099 105.151 76.1412 105.104 76.0879C105.04 76.0236 104.966 75.9699 104.885 75.9291C104.748 75.8587 104.608 75.7959 104.464 75.741C104.197 75.6549 103.953 75.5123 103.748 75.323C103.618 75.1768 103.55 74.9867 103.558 74.7921C103.553 74.6721 103.58 74.553 103.637 74.4466C103.693 74.3402 103.776 74.2504 103.878 74.186C104.131 74.0316 104.425 73.9559 104.721 73.9687C105.074 73.9661 105.423 74.0403 105.745 74.186L105.534 74.6751C105.269 74.5533 104.983 74.4838 104.691 74.4703C104.346 74.4703 104.173 74.5664 104.173 74.7629C104.174 74.8111 104.187 74.8584 104.21 74.9007C104.234 74.9429 104.267 74.9788 104.308 75.0053C104.493 75.1164 104.689 75.2075 104.894 75.277C105.089 75.345 105.275 75.4348 105.45 75.5445C105.555 75.6163 105.642 75.7124 105.702 75.8246C105.772 75.9429 105.809 76.0766 105.812 76.2133Z" fill="black"/>
<path d="M109.131 75.5525C109.156 75.9759 109.017 76.3928 108.744 76.7187C108.606 76.8613 108.438 76.9725 108.253 77.0446C108.067 77.1168 107.868 77.1482 107.67 77.1367C107.402 77.1427 107.139 77.0762 106.907 76.9444C106.687 76.814 106.511 76.622 106.402 76.3926C106.276 76.1318 106.214 75.8455 106.22 75.5566C106.197 75.1366 106.334 74.7231 106.604 74.3988C106.743 74.2562 106.912 74.1451 107.099 74.073C107.286 74.0009 107.486 73.9694 107.686 73.9808C107.882 73.9703 108.078 74.0023 108.259 74.0745C108.441 74.1467 108.605 74.2574 108.74 74.3988C109.015 74.7187 109.156 75.1321 109.131 75.5525ZM106.894 75.5525C106.894 76.2589 107.156 76.61 107.678 76.61C108.2 76.61 108.457 76.2589 108.457 75.5525C108.457 74.846 108.196 74.5075 107.674 74.5075C107.56 74.4961 107.445 74.5139 107.34 74.5593C107.236 74.6047 107.144 74.6761 107.076 74.7666C106.936 75.0041 106.872 75.2783 106.894 75.5525Z" fill="black"/>
<path d="M112.488 77.0831H111.835V75.2105C111.848 75.0239 111.798 74.8385 111.692 74.6838C111.635 74.6221 111.564 74.5742 111.485 74.5438C111.406 74.5134 111.322 74.5012 111.237 74.5082C111.124 74.4993 111.01 74.5165 110.905 74.5586C110.8 74.6007 110.706 74.6664 110.631 74.7507C110.478 75.0017 110.412 75.295 110.441 75.5866V77.104H109.788V74.0568H110.298L110.39 74.4748H110.445C110.54 74.3267 110.676 74.2091 110.837 74.1362C111.016 74.0563 111.21 74.0163 111.406 74.0192C111.557 73.9993 111.711 74.0147 111.856 74.0641C112 74.1135 112.131 74.1955 112.238 74.3038C112.345 74.412 112.426 74.5435 112.473 74.6878C112.52 74.8321 112.532 74.9853 112.509 75.1352L112.488 77.0831Z" fill="black"/>
</g>
<defs>
<clipPath id="clip0_30725_57815">
<rect width="90.2564" height="55" fill="white" transform="translate(55.6221 23.4414)"/>
</clipPath>
</defs>
</svg>
