<svg width="400" height="277" viewBox="0 0 400 277" fill="none" xmlns="http://www.w3.org/2000/svg">
<path opacity="0.15" d="M58.7828 73.037C58.7828 73.037 9.04365 176.47 97.3915 217.216C185.739 257.963 371.826 279.903 373.913 230.45C376 180.997 354.783 200.848 382.609 166.022C410.435 131.196 379.826 123.186 379.826 123.186C379.826 123.186 371.131 118.659 370.435 85.5743C369.739 52.4897 342.957 45.5245 329.391 50.4001C315.826 55.2757 281.739 73.037 258.087 41.3453C234.435 9.65373 193.391 49.0071 193.391 49.0071C193.391 49.0071 169.044 66.7683 128.696 48.3105C88.348 29.8528 58.7828 73.037 58.7828 73.037Z" fill="#2B746D"/>
<path d="M182.341 189.004L176.348 263.532H180.869L188.024 189.004H182.341Z" fill="#65617D"/>
<path d="M217.885 189.004L229.913 265.273H235.826L223.739 189.004H217.885Z" fill="#65617D"/>
<path d="M242.274 189.004H172.334C171.478 189.004 170.782 188.308 170.782 187.451V181.151C170.782 180.294 171.478 179.598 172.334 179.598H242.278C243.134 179.598 243.829 180.294 243.829 181.151V187.451C243.826 188.308 243.13 189.004 242.274 189.004Z" fill="#65617D"/>
<path d="M183.304 102.638C183.304 102.638 174.957 108.21 173.913 120.4C173.913 120.4 180.174 126.32 186.435 125.623C186.435 125.623 178.783 145.126 179.13 158.012H222.957V131.196C222.957 131.196 227.13 107.514 221.565 105.424" fill="#2B746D"/>
<path d="M225.739 94.9771C225.739 94.9771 228.174 68.1611 218.783 65.375C211.583 63.2402 200.348 63.6337 197.565 68.8576C194.783 74.0815 190.956 79.6537 192.696 85.2258C192.696 85.2258 192.348 86.9671 187.826 89.0567C183.304 91.1462 180.869 98.4597 183.304 102.639C185.739 106.818 186.435 106.47 185.043 109.256C183.652 112.042 185.391 118.31 188.174 119.355C190.956 120.4 188.174 123.534 192.696 124.927C197.217 126.32 203.826 125.972 205.565 120.4C207.304 114.828 203.478 115.873 203.478 115.873C203.478 115.873 207.304 115.524 206.609 111.345C205.913 107.166 205.913 105.773 205.913 105.773L206.261 88.3602C206.261 88.3602 206.609 83.4845 207.304 83.4845C208 83.4845 208 83.4845 208 83.4845C208 83.4845 206.609 77.9124 209.043 77.2159C211.478 76.5193 214.261 75.8228 216 76.8676C217.739 77.9124 209.391 93.584 209.391 93.584C209.391 93.584 208.949 100.476 208.696 100.897C207.652 102.639 221.565 105.425 221.565 105.425C221.565 105.425 225.739 98.4597 225.739 94.9771Z" fill="#131B35"/>
<path d="M215.478 153.832C212.09 153.832 209.089 155.476 207.217 158.011H223.736C221.868 155.476 218.866 153.832 215.478 153.832Z" fill="#445A7D"/>
<path d="M229.913 256.306C229.913 257.177 230.271 258.006 230.904 258.598C232.33 259.928 235.03 262.14 237.217 262.14C240.348 262.14 237.217 256.024 237.217 256.024C237.217 256.024 235.687 252.082 231.976 253.35C230.727 253.781 229.913 254.986 229.913 256.306Z" fill="#FFCDAA"/>
<path d="M251.011 255.677C251.011 255.677 249.739 258.658 253.565 260.748C257.391 262.837 255.882 261.641 258.476 259.409C256.737 256.623 257.043 254.827 257.043 254.827C257.043 254.827 251.707 253.936 251.011 255.677Z" fill="#FFCDAA"/>
<path d="M236.279 276.816C237.113 276.763 237.923 276.521 238.647 276.11C239.371 275.699 239.989 275.13 240.453 274.446C240.917 273.763 241.214 272.983 241.323 272.168C241.431 271.354 241.347 270.525 241.077 269.747L239.835 266.165L238.893 257.128C237.44 254.214 235.384 254.65 233.001 256.896C231.485 256.75 231.16 255.26 231.351 253.188L226.573 259.512C226.164 260.053 225.91 260.692 225.838 261.363C225.766 262.033 225.878 262.711 226.162 263.324L230.971 273.695C231.429 274.683 232.182 275.511 233.13 276.069C234.078 276.626 235.176 276.887 236.279 276.816Z" fill="#2B746D"/>
<path d="M256.808 276.816C257.642 276.763 258.452 276.521 259.176 276.11C259.9 275.699 260.517 275.13 260.981 274.446C261.445 273.763 261.743 272.983 261.852 272.168C261.96 271.354 261.876 270.525 261.606 269.747L260.364 266.165L259.422 257.128C257.969 254.214 255.913 254.65 253.529 256.896C252.014 256.75 251.689 255.26 251.88 253.188L247.102 259.512C246.693 260.053 246.439 260.692 246.367 261.363C246.294 262.033 246.406 262.711 246.691 263.324L251.499 273.695C251.958 274.683 252.711 275.511 253.659 276.069C254.607 276.626 255.705 276.887 256.808 276.816Z" fill="#2B746D"/>
<path d="M249.739 254.83C249.739 254.83 254.608 257.268 257.043 254.83C259.478 252.392 268.174 191.098 268.174 191.098C268.174 191.098 271.652 174.73 257.391 170.203C243.13 165.675 234.087 161.844 231.652 165.327C229.217 168.81 249.739 195.626 249.739 195.626C249.739 195.626 248.348 207.466 248 216.173C247.652 224.879 248.348 250.651 249.739 254.83Z" fill="black"/>
<path d="M239.652 164.627C234.949 163.6 230.821 162.806 227.256 162.189H177.788C177.788 162.189 168.348 184.13 189.565 184.478C210.782 184.826 237.565 182.04 237.913 183.085C238.261 184.13 229.217 201.543 228.869 213.035C228.522 224.528 229.913 254.478 229.913 254.478C229.913 254.478 236.869 257.961 237.913 254.478C238.956 250.996 248.348 201.891 249.739 195.622C251.13 189.354 258.782 168.806 239.652 164.627Z" fill="black"/>
<path d="M210.435 94.6274C210.435 94.6274 214.261 95.6722 216.696 95.6722C220.73 95.6722 224 91.2284 224 85.7468C224 80.2652 220.73 75.8214 216.696 75.8214C216.696 75.8214 216.696 75.8214 211.13 75.8214C206.191 75.8214 207.28 82.1249 207.586 83.5458C207.071 82.6752 206.125 82.0901 205.043 82.0901C203.412 82.0901 202.087 83.417 202.087 85.0503C202.087 86.6836 203.412 88.0105 205.043 88.0105C205.057 88.0105 205.071 88.007 205.085 88.007L204.87 88.3588V105.772C204.87 105.772 203.478 111.344 212.522 110.996C221.565 110.647 221.565 105.423 221.565 105.423C221.565 105.423 211.478 101.941 210.435 101.244C209.391 100.548 210.435 94.6274 210.435 94.6274Z" fill="#FFCDAA"/>
<path fill-rule="evenodd" clip-rule="evenodd" d="M173.913 120.4C173.913 120.4 168.348 140.251 167.652 144.082C166.956 147.913 166.261 153.833 171.478 155.226C176.695 156.619 182.261 158.012 186.782 159.057C191.304 160.102 205.913 160.102 207.652 158.361C208.104 157.908 208.533 157.455 208.945 157.02L208.945 157.02C210.115 155.784 211.144 154.697 212.174 154.182C213.565 153.485 216.695 153.485 218.087 154.182C218.733 154.505 219.38 154.904 219.922 155.239C220.546 155.624 221.031 155.923 221.217 155.923C221.565 155.923 221.565 153.485 219.478 152.092C217.391 150.699 214.609 149.654 212.869 150.002C211.131 150.351 207.654 151.743 206.61 153.135H206.609C199.128 153.135 183.556 146.225 178.397 143.836L181.745 134.859C184.121 130.856 186.435 126.681 186.435 125.624C186.435 125.624 189.217 117.963 173.913 120.4Z" fill="#FFCDAA"/>
<path d="M291.45 148.262H232.375C226.407 148.262 221.565 143.417 221.565 137.438V104.409C221.565 98.4326 226.403 93.5848 232.375 93.5848H291.45C297.419 93.5848 302.261 98.4291 302.261 104.409V137.438C302.261 143.417 297.422 148.262 291.45 148.262Z" fill="white"/>
<path d="M270.167 158.014H254.007C252.776 158.014 251.913 156.792 252.327 155.628L254.957 148.263H269.217L271.844 155.628C272.261 156.792 271.398 158.014 270.167 158.014Z" fill="white"/>
<path d="M341.458 162.19H129.847C129.211 162.19 128.696 161.674 128.696 161.037V159.16C128.696 158.522 129.211 158.007 129.847 158.007H341.461C342.098 158.007 342.612 158.522 342.612 159.16V161.037C342.609 161.674 342.094 162.19 341.458 162.19Z" fill="#65617D"/>
<path d="M132.696 162.192L142.47 268.759H146.209L137.485 162.192H132.696Z" fill="#65617D"/>
<path d="M329.99 162.192L323.826 269.108H326.957L334.953 162.192H329.99Z" fill="#65617D"/>
<path d="M350.118 267.287H340.062C339.353 267.287 338.741 266.793 338.588 266.1L335.565 252.225C335.266 250.849 336.313 249.55 337.718 249.55H352.657C354.076 249.55 355.123 250.874 354.803 252.256L351.586 266.12C351.429 266.803 350.821 267.287 350.118 267.287Z" fill="#EBA83B"/>
<path d="M342.407 249.546C342.407 249.546 342.407 241.536 331.572 239.31C320.737 237.085 316.574 242.835 316.574 242.835C316.574 242.835 311.203 246.265 305.276 244.597C305.276 244.597 311.572 245.339 315.092 237.089C318.612 228.838 330.278 230.134 333.332 231.711C336.386 233.289 342.685 237.183 343.888 241.63C345.092 246.081 345.189 249.549 345.189 249.549H342.407V249.546Z" fill="#57B894"/>
<path d="M346.139 249.546V245.855C346.139 245.855 346.01 243.386 345.189 241.676C344.368 239.966 343.61 238.447 343.294 236.17C342.977 233.892 342.281 230.914 339.499 227.69C336.716 224.465 334.379 217.12 336.466 211.994C338.553 206.867 340.765 202.371 340.194 197.307C339.624 192.244 342.344 196.674 342.281 197.75C342.219 198.826 341.523 201.737 342.281 202.813C343.04 203.89 344.114 205.22 343.61 208.574C343.106 211.927 341.965 215.218 344.431 217.625C346.897 220.031 346.139 230.309 346.139 230.309C346.139 230.309 346.727 239.008 347.332 240.77C347.937 242.532 347.937 249.546 347.937 249.546H346.139V249.546Z" fill="#57B894"/>
<path d="M347.937 249.545C347.937 249.545 350.125 248.827 351.071 244.011C352.013 239.194 354.559 229.937 359.937 226.065C359.937 226.065 368.521 216.902 369.558 214.259C370.594 211.616 371.822 209.63 367.954 207.175C364.086 204.72 364.653 209.63 364.653 209.63C364.653 209.63 366.257 211.71 360.504 214.165C354.751 216.62 351.165 222.666 350.316 225.403C349.467 228.14 346.921 234.468 348.333 240.04C349.749 245.616 350.372 247.333 347.937 249.545Z" fill="#57B894"/>
<path d="M335.666 237.871C331.669 236.001 323.648 237.976 321.165 239.324C318.682 240.671 315.989 242.124 312.675 243.262C311.248 243.753 310.494 244.398 310.097 244.976C313.826 244.586 316.57 242.834 316.57 242.834C316.57 242.834 320.737 237.088 331.572 239.31C338.522 240.738 341.008 244.544 341.902 247.09L342.285 247.097C342.285 245.234 340.32 240.048 335.666 237.871Z" fill="#2B6154"/>
<path d="M364.994 210.67C364.959 210.597 364.911 210.537 364.852 210.485C364.779 211.318 364.003 212.669 360.504 214.163C354.751 216.618 351.165 222.664 350.316 225.401C349.467 228.142 346.921 234.466 348.333 240.039C348.893 242.247 349.325 243.845 349.495 245.113C349.669 244.169 349.815 243.058 349.909 241.724C350.337 235.633 350.253 230.656 355.565 224.565C360.883 218.478 366.024 212.902 364.994 210.67Z" fill="#2B6154"/>
<path d="M66.7026 207.281C66.7026 207.281 69.8852 196.617 75.3913 191.104" stroke="#818A63" stroke-width="4.97418" stroke-miterlimit="10"/>
<path d="M61.0713 173.822C61.0713 173.822 62.9078 208.014 63.273 209.484" stroke="#818A63" stroke-width="4.97418" stroke-miterlimit="10"/>
<path d="M52.9912 184.486C52.9912 184.486 62.1703 194.046 59.9686 209.488" stroke="#818A63" stroke-width="4.97418" stroke-miterlimit="10"/>
<path d="M46.7477 207.279H75.7564L90.4451 237.427C90.4451 237.427 95.5859 247.353 87.5059 258.016C79.4259 268.68 80.8972 270.15 80.8972 270.15H41.6068L33.1616 254.708C33.1616 254.708 26.9181 247.356 33.1616 235.223C39.4051 223.09 46.7477 207.279 46.7477 207.279Z" fill="#EBA83B"/>
<path d="M24.7165 139.265C24.7165 139.265 17.2835 148.39 17.7565 165.043C20.6922 163.494 24.0452 163.873 25.6243 166.095C27.3913 168.575 26.2783 172.402 23.1409 174.641C21.8817 175.54 20.4939 176.038 19.1617 176.163C20.0348 180.123 21.353 184.372 23.2487 188.903C23.7496 190.104 24.2574 191.212 24.7722 192.249C24.953 190.93 25.2383 189.54 25.6348 188.116C27.52 181.37 31.1861 176.498 33.8226 177.239C36.4591 177.978 37.0678 184.044 35.1826 190.794C33.9896 195.063 32.0835 198.577 30.1774 200.399C41.8922 212.713 54.0939 195.157 54.0939 195.157L56.2956 185.967L24.7165 139.265ZM50.6817 191.295C49.1583 194.391 46.08 195.993 43.8052 194.872C41.5304 193.75 40.9217 190.331 42.4452 187.234C43.9687 184.138 47.047 182.536 49.3217 183.658C51.5965 184.779 52.2052 188.199 50.6817 191.295Z" fill="#57B894"/>
<path d="M83.0886 145.417C83.7042 146.678 84.1981 148.089 84.5251 149.607C85.9164 156.133 83.6764 162.144 79.5164 163.036C75.3564 163.924 70.8555 159.355 69.4642 152.828C69.2833 151.975 69.1651 151.132 69.1025 150.311C67.906 150.875 66.699 151.477 65.4816 152.128C49.7633 160.56 51.3042 170.806 57.2764 178.68C57.6486 177.955 58.1181 177.262 58.692 176.622C61.9477 173 67.2138 172.428 70.4555 175.347C73.6973 178.265 73.6868 183.569 70.4312 187.195C69.9164 187.766 69.3494 188.253 68.7512 188.671C71.739 190.423 74.2816 191.339 75.3946 191.099L120.195 148.816C120.191 148.82 104.949 140.371 83.0886 145.417ZM93.5616 161.827C91.3425 159.828 91.7981 155.695 94.5842 152.595C97.3703 149.496 101.426 148.604 103.645 150.603C105.864 152.602 105.409 156.736 102.622 159.835C99.8399 162.935 95.7807 163.826 93.5616 161.827Z" fill="#57B894"/>
<path d="M105.367 96.0629C103.165 96.3276 100.675 96.3276 98.0626 96.0142C89.7635 95.0182 83.3948 91.2256 83.8365 87.541C84.2783 83.8564 91.3635 81.6798 99.6591 82.6758C100.543 82.7803 101.405 82.9231 102.237 83.0868C100.174 77.0549 98.1565 74.1853 98.1565 74.1853C96.5426 72.5032 94.9948 71.03 93.5165 69.7484C92.9496 70.6713 92.247 71.5698 91.4157 72.4022C87.3287 76.4942 81.6904 77.4833 78.8209 74.6136C76.0661 71.8554 76.8696 66.5445 80.5565 62.5012C67.4644 59.9763 63.2731 76.7624 63.2731 76.7624C63.2731 76.7624 46.0139 74.1887 44.1774 91.4694C41.5722 115.976 66.9426 121.249 76.1252 127.131C85.3078 133.013 101.461 134.117 103.297 133.382C105.134 132.648 105.868 126.765 105.868 126.765C107.141 114.162 106.605 103.986 105.367 96.0629ZM64.007 101.45C60.2157 106.849 54.1844 109.144 50.5357 106.577C46.887 104.007 46.9983 97.55 50.7896 92.1485C54.5809 86.7505 60.6122 84.4554 64.2609 87.0221C67.9096 89.5888 67.7983 96.049 64.007 101.45ZM98.1009 118.292C95.0261 118.689 92.0557 115.304 91.4678 110.732C90.8765 106.155 92.8904 102.126 95.9617 101.729C99.0365 101.332 102.007 104.717 102.595 109.29C103.186 113.862 101.176 117.892 98.1009 118.292Z" fill="#57B894"/>
<path d="M68.4729 140.693C66.0242 135.535 66.6225 130.127 69.8051 128.615C72.9599 127.114 77.4677 130.001 79.9303 135.068C81.972 130.91 83.6729 126.421 84.7755 121.995C82.8729 121.542 80.7373 119.773 79.2451 117.182C77.0642 113.396 77.0747 109.301 79.2729 108.03C81.1407 106.95 83.9825 108.266 86.1355 111.004C85.9964 105.689 84.4486 101.075 80.8973 98.0832C66.9425 86.319 52.9912 103.23 52.9912 103.23C52.9912 103.23 36.466 79.6986 25.0851 106.173C22.6955 111.731 22.546 117.29 23.7912 122.604C24.0764 122.134 24.3895 121.674 24.7303 121.222C28.4138 116.363 34.1251 114.497 37.4816 117.049C40.8416 119.602 40.5773 125.613 36.8938 130.468C34.8242 133.195 32.1181 134.981 29.5477 135.57C38.3686 149.263 52.9912 159.119 52.9912 159.119C52.9912 159.119 52.9912 159.119 65.4747 152.868C67.8816 151.663 70.452 149.323 72.932 146.248C71.2242 145.029 69.6173 143.103 68.4729 140.693ZM46.1842 146.098C43.3981 146.098 41.1373 141.675 41.1373 136.218C41.1373 130.76 43.3981 126.337 46.1842 126.337C48.9703 126.337 51.2312 130.76 51.2312 136.218C51.2312 141.671 48.9738 146.098 46.1842 146.098ZM63.9442 109.865C63.0329 105.668 64.0799 101.876 66.2781 101.399C68.4764 100.922 70.9981 103.937 71.9094 108.134C72.8207 112.331 71.7738 116.123 69.5755 116.6C67.3738 117.077 64.8521 114.061 63.9442 109.865Z" fill="#2B6154"/>
<path d="M4.69565 240.55C7.28898 240.55 9.3913 238.445 9.3913 235.848C9.3913 233.252 7.28898 231.147 4.69565 231.147C2.10231 231.147 0 233.252 0 235.848C0 238.445 2.10231 240.55 4.69565 240.55Z" fill="#ABDED7"/>
<path d="M293.043 204.68C290.647 204.68 288.695 202.726 288.695 200.327C288.695 197.927 290.647 195.973 293.043 195.973C295.44 195.973 297.391 197.927 297.391 200.327C297.391 202.726 295.44 204.68 293.043 204.68ZM293.043 196.67C291.029 196.67 289.391 198.31 289.391 200.327C289.391 202.343 291.029 203.983 293.043 203.983C295.057 203.983 296.695 202.343 296.695 200.327C296.695 198.31 295.057 196.67 293.043 196.67Z" fill="#ABDED7"/>
<path d="M394.261 103.683C397.43 103.683 400 101.111 400 97.9371C400 94.7635 397.43 92.1908 394.261 92.1908C391.091 92.1908 388.521 94.7635 388.521 97.9371C388.521 101.111 391.091 103.683 394.261 103.683Z" fill="#ABDED7"/>
<path d="M175.756 17.8978C175.496 17.8978 175.249 17.9988 175.064 18.1869L170.417 22.8396C170.035 23.2227 170.035 23.8426 170.417 24.2257L175.064 28.8785C175.433 29.2476 176.08 29.2476 176.449 28.8785L181.096 24.2257C181.478 23.8426 181.478 23.2227 181.096 22.8396L176.452 18.1869C176.264 18.0023 176.021 17.8978 175.756 17.8978Z" fill="#ABDED7"/>
<path d="M128.748 108.097C128.389 108.097 128.052 107.958 127.798 107.704L124.734 104.635C124.212 104.113 124.212 103.26 124.734 102.737L127.798 99.6693C128.306 99.1608 129.189 99.1608 129.694 99.6693L132.758 102.737C133.28 103.26 133.28 104.113 132.758 104.635L129.694 107.704C129.443 107.954 129.106 108.097 128.748 108.097ZM128.748 99.9688C128.574 99.9688 128.414 100.035 128.292 100.157L125.228 103.225C124.977 103.476 124.977 103.887 125.228 104.141L128.292 107.209C128.535 107.453 128.96 107.453 129.207 107.209L132.271 104.141C132.521 103.89 132.521 103.479 132.271 103.225L129.207 100.157C129.081 100.038 128.921 99.9688 128.748 99.9688Z" fill="#ABDED7"/>
</svg>
