<svg width="424" height="303" viewBox="0 0 424 303" fill="none" xmlns="http://www.w3.org/2000/svg">
<g clip-path="url(#clip0_22334_10394)">
<path d="M372.997 302.449C394 283.49 394.482 219.849 382.989 201.125C363.548 169.449 353.188 175.533 336.169 156.918C323.01 142.522 340.018 101.107 299.857 82.8682C252.175 61.2137 209.062 84.6437 187.336 95.7288C165.611 106.814 146.996 106.771 133.971 103.591C112.235 98.2845 80.3809 107.321 52.5078 147.002C31.5176 176.885 25.5436 226.61 46.7316 280.7C52.422 295.229 64.5249 303 64.5249 303L372.999 302.452L372.997 302.449Z" fill="#E9F3F1"/>
<path d="M89.2523 46.658C81.8118 57.4503 72.6841 73.1433 83.2968 85.2173C93.7051 97.0614 108.347 85.1825 115.842 76.4654C121.396 70.0091 126.23 62.8792 130.068 55.2673C132.559 50.3259 135.574 42.5439 130.949 37.8274C126.976 33.7784 120.671 35.6281 116.963 38.9811C111.586 43.8484 106.805 51.7026 104.332 58.4688C102.088 64.6106 101.982 72.1767 106.276 77.5119C110.202 82.3918 116.841 83.6055 122.718 82.3954C130.044 80.8891 138.059 75.5877 143.085 70.1106C146.141 66.7825 147.592 61.3709 142.771 58.7626C137.064 55.6753 131.762 60.3649 128.852 64.9165C124.928 71.0624 120.484 78.6908 121.23 86.2842C121.796 92.0514 125.441 97.47 131.466 98.3358C137.371 99.1849 143.162 95.7844 147.801 92.5514C151.64 89.8729 157.707 85.1615 155.347 79.6998C152.97 74.193 145.308 75.5656 142.205 79.438C137.399 85.4304 138.032 95.3684 139.647 102.399C141.559 110.707 146.011 118.173 152.292 123.905C153.089 124.633 154.265 123.429 153.463 122.693C145.291 115.235 140.363 104.652 140.281 93.5494C140.239 88.2288 141.075 79.2925 147.514 77.8572C150.954 77.0926 155.021 79.3109 153.983 83.4004C153.253 86.2746 150.483 88.503 148.219 90.1877C144.936 92.6308 141.257 95.0029 137.289 96.1434C130.443 98.1136 124.31 94.4662 123.056 87.2829C122.033 81.4205 124.678 75.8031 127.401 70.8032C129.991 66.0527 135.014 56.34 141.95 60.2335C149.721 64.5933 137.582 72.6959 134.29 74.9918C129.454 78.3593 123.986 81.3391 117.911 81.1531C111.482 80.9591 106.371 77.0873 104.92 70.7254C103.458 64.3286 105.803 58.1087 109.01 52.6577C111.513 48.4061 114.457 43.4375 118.173 40.1534C120.792 37.8393 124.802 36.1067 128.222 37.8815C132.316 40.0054 131.967 45.1638 130.889 48.8983C127.868 59.354 119.968 69.4905 112.764 77.3994C105.258 85.6385 90.569 95.1196 82.7182 81.5049C75.9296 69.7311 84.0659 57.1312 90.721 47.48C91.3354 46.5874 89.8599 45.7695 89.2502 46.6546L89.2523 46.658Z" fill="#C6E0DA"/>
<path d="M346.274 301.807L304.051 177.059H293.658L335.88 301.807H346.274Z" fill="#005850"/>
<path d="M178.746 222.978L178.104 223.707L222.807 263.053L223.449 262.323L178.746 222.978Z" fill="#002C28"/>
<path d="M211.676 227.803L169.403 253.135L169.903 253.969L212.175 228.637L211.676 227.803Z" fill="#002C28"/>
<path d="M217.394 227.026H209.599L231.11 294.983H238.905L217.394 227.026Z" fill="#002C28"/>
<path d="M179.121 207.926L151.565 294.984H159.36L186.916 207.926H179.121Z" fill="#002C28"/>
<path d="M135.409 303.111L163.888 213.123H156.093L127.614 303.111H135.409Z" fill="#002C28"/>
<path d="M214.133 303.111L185.654 213.123H177.859L206.331 303.111H214.133Z" fill="#002C28"/>
<path d="M155.114 222.982L154.458 223.699L195.025 260.732L195.68 260.014L155.114 222.982Z" fill="#002C28"/>
<path d="M186.325 228.547L145.776 253.174L146.284 254.011L186.833 229.384L186.325 228.547Z" fill="#002C28"/>
<path d="M234.252 216.866C234.252 216.866 201.438 215.604 196.393 203.404C191.348 191.203 188.818 159.227 172.835 157.965C156.851 156.704 146.334 155.863 146.334 166.802C146.334 177.741 139.179 213.502 161.056 218.975C181.595 224.11 209.178 234.063 229.883 223.428C232.364 222.152 233.977 219.643 234.252 216.872V216.866Z" fill="#002C28"/>
<path d="M230.393 278.565C229.8 282.969 229.407 286.367 229.207 288.18C229.104 289.138 229.056 289.648 229.056 289.648L235.086 292.027L235.755 290.386L238.939 282.659C236.1 281.287 233.239 279.943 230.4 278.565H230.393Z" fill="#F9B384"/>
<path d="M235.81 290.372C235.81 290.372 231.22 291.579 229.235 288.139L228.084 289.58C227.077 290.834 226.292 292.261 225.775 293.784L225.616 294.246L245.28 300.925C245.763 299.505 245.301 297.941 244.129 297.003L235.803 290.372H235.81Z" fill="#005850"/>
<path d="M205.966 175.301L256.935 187.763C260.802 188.708 264.393 190.672 267.081 193.615C270.168 197 272.657 202.135 270.265 209.104C265.482 223.048 238.994 285.933 238.994 285.933L228.945 281.983C228.945 281.983 236.065 226.309 245.225 214.012C245.225 214.012 207.048 215.921 196.358 210.014C185.668 204.107 205.966 175.301 205.966 175.301Z" fill="#123054"/>
<path d="M278.439 278.385C275.558 280.26 272.615 282.017 269.617 283.658C273.739 287.98 276.978 291.226 278.515 292.757C279.156 293.398 279.508 293.742 279.508 293.742L285.091 290.448L284.146 288.731L278.439 278.385Z" fill="#F9B384"/>
<path d="M284.002 288.772C284.002 288.772 282.251 293.183 278.309 292.742L278.784 294.521C279.198 296.078 279.88 297.547 280.804 298.87L281.086 299.27L298.124 287.393C297.269 286.166 295.732 285.608 294.285 285.994L284.009 288.765L284.002 288.772Z" fill="#005850"/>
<path d="M169.898 167.926C169.898 167.926 160.029 179.499 161.131 188.026C162.227 196.552 164.543 204.714 181.105 212.027C197.675 219.334 229.586 233.106 229.586 233.106C229.586 233.106 256.384 275.987 274.173 288.897L281.727 283.293C281.727 283.293 251.028 224.82 247.01 219.947C242.992 215.074 212.169 191.927 212.169 191.927L206.325 168.174L169.905 167.933L169.898 167.926Z" fill="#123054"/>
<path d="M192.919 119.807C192.919 119.807 202.582 126.672 203.926 128.981C205.263 131.297 210.825 151.114 210.825 151.114L225.933 122.729L233.729 125.652C233.729 125.652 219.475 164.39 217.649 166.83C215.822 169.264 206.201 172.069 200.108 165.61C194.015 159.152 192.919 119.807 192.919 119.807Z" fill="#FF6B00"/>
<path d="M226.718 120.703L226.67 120.82C226.622 120.931 226.567 121.048 226.512 121.165C228.386 122.165 230.185 123.433 231.846 124.37C232.301 124.632 232.763 124.873 233.232 125.115C233.376 124.618 233.521 124.115 233.659 123.612C233.659 123.605 233.659 123.591 233.666 123.585C235.293 121.834 238.759 118.001 238.332 117.519C237.781 116.885 234.658 119.104 234.658 119.104C234.658 119.104 239.256 114.506 238.339 113.79C237.429 113.073 233.824 117.071 233.824 117.071C233.824 117.071 236.919 111.06 235.851 110.936C234.776 110.819 232.232 115.451 232.232 115.451C232.232 115.451 234.135 109.371 233.17 109.309C232.205 109.24 229.365 116.581 229.365 116.581C229.365 116.581 227.601 113.541 226.643 114.024C225.898 114.396 226.477 118.704 226.774 120.627C226.753 120.655 226.739 120.689 226.718 120.717V120.703Z" fill="#F9B384"/>
<path d="M234.108 124.307C234.328 124.404 234.452 124.638 234.418 124.872C234.273 125.782 233.88 127.974 233.343 128.615C232.743 129.325 228.518 126.968 227.457 126.361C227.305 126.272 227.209 126.12 227.188 125.948L227.05 124.314C227.05 124.314 225.996 125.858 225.747 125.858C225.603 125.858 225.086 125.617 224.693 125.417C224.424 125.286 224.321 124.955 224.465 124.686L226.285 121.336C226.416 121.088 226.719 120.992 226.974 121.102L234.115 124.307H234.108Z" fill="#AA4700"/>
<path d="M192.443 90.0765C192.802 89.8973 193.146 89.8214 193.518 89.787C193.891 89.7594 194.27 89.8077 194.635 89.9248C195 90.0351 195.352 90.2281 195.634 90.497C195.931 90.7451 196.117 91.0898 196.248 91.4206C196.289 91.5309 196.248 91.655 196.131 91.6963C196.055 91.7308 195.965 91.7101 195.903 91.655L195.882 91.6343C195.648 91.4206 195.441 91.2138 195.186 91.0897C194.931 90.9657 194.683 90.8554 194.408 90.814C194.132 90.7727 193.849 90.7658 193.56 90.7727C193.277 90.7727 192.96 90.8002 192.684 90.814H192.629C192.416 90.8278 192.23 90.6555 192.223 90.4418C192.223 90.2833 192.305 90.1454 192.436 90.0765H192.443Z" fill="#001D1B"/>
<path d="M146.754 163.176C146.754 163.176 151.868 198.261 158.933 199.964C165.997 201.666 180.127 199.722 185.73 203.865C191.334 208.008 209.605 228.17 209.605 228.17C209.605 228.17 166.728 227.253 149.918 213.853C133.107 200.453 146.747 163.176 146.747 163.176H146.754Z" fill="#2E2E2E"/>
<path d="M296.911 122.473H231.86C231.457 122.473 231.13 122.8 231.13 123.203V165.354C231.13 165.757 231.457 166.085 231.86 166.085H296.911C297.314 166.085 297.641 165.757 297.641 165.354V123.203C297.641 122.8 297.314 122.473 296.911 122.473Z" fill="#2E2E2E"/>
<path d="M233.08 122.473H231.86C231.454 122.473 231.13 122.797 231.13 123.203V165.354C231.13 165.761 231.454 166.085 231.86 166.085H233.08V122.473Z" fill="#005850"/>
<path d="M272.767 172.053H249.195V174.121H272.767V172.053Z" fill="#2E2E2E"/>
<path d="M283.836 174.128H264.344L256.301 148.541H273.359L283.836 174.128Z" fill="#005850"/>
<path d="M285.214 174.128H265.723L257.686 148.541H274.738L285.214 174.128Z" fill="#2E2E2E"/>
<path d="M233.081 123.217V165.609" stroke="#2E2E2E" stroke-width="1.06" stroke-linecap="round" stroke-linejoin="round"/>
<path d="M274.979 148.432H256.101L261.829 165.733" stroke="#2E2E2E" stroke-width="1.06" stroke-linecap="round" stroke-linejoin="round"/>
<path d="M81.5382 302.998L123.933 177.057H113.539L71.1445 302.998H81.5382Z" fill="#005850"/>
<path d="M314.286 174.135H103.793V184.529H314.286V174.135Z" fill="#005850"/>
<path d="M337.527 259.035C337.527 259.035 327.926 235.881 332.502 215.774C333.501 211.37 339.498 210.612 341.593 214.609C346.025 223.074 350.684 237.639 345.563 256.739L337.534 259.035H337.527Z" fill="#005850"/>
<path d="M336.927 216.773L340.58 249.418" stroke="#0F473A" stroke-width="1.2" stroke-linecap="round" stroke-linejoin="round"/>
<path d="M339.271 251.989C336.128 244.634 331.537 237.934 328.725 230.448C325.803 222.659 324.004 213.071 316.471 209.528C315.333 208.991 314.058 208.632 312.818 208.846C310.791 209.197 309.323 210.99 308.365 212.809C305.436 218.351 305.526 225.382 308.6 230.841C310.274 233.812 312.783 236.39 313.638 239.692C315.733 247.75 307.29 256.607 311.212 263.955C313.066 267.422 317.105 269.083 320.951 269.924C324.79 270.758 328.849 271.076 332.295 272.985C337.927 276.107 340.938 277.81 342.186 270.09C343.185 263.934 341.683 257.641 339.271 251.982V251.989Z" fill="#1C826A"/>
<path d="M312.797 216.76C318.628 221.771 320.937 229.87 321.095 237.563C321.185 241.885 320.696 246.275 321.722 250.473C323.666 258.428 330.538 264.052 337.024 269.057" stroke="#0F473A" stroke-width="1.2" stroke-linecap="round" stroke-linejoin="round"/>
<path d="M338.692 259.476C339.967 253.83 343.385 248.936 346.77 244.242C350.154 239.548 353.655 234.737 355.137 229.14C356.757 223.039 355.819 216.56 354.337 210.425C354.062 209.274 353.765 208.047 354.165 206.931C354.834 205.083 357.115 204.373 359.079 204.435C366.613 204.67 372.14 212.541 372.333 220.075C372.526 227.609 368.777 234.647 364.703 240.989C360.623 247.323 356.026 253.561 354.151 260.861C353.028 265.231 351.511 278.128 343.978 276.005C338.464 274.454 337.727 263.756 338.699 259.483L338.692 259.476Z" fill="#1C826A"/>
<path d="M360.485 210.363C362.815 215.864 361.857 222.254 359.679 227.809C357.501 233.365 354.172 238.404 351.635 243.808C348.086 251.349 346.08 259.613 345.777 267.94" stroke="#0F473A" stroke-width="1.2" stroke-linecap="round" stroke-linejoin="round"/>
<path d="M349.057 303.026H329.552L325.348 271.277H353.262L349.057 303.026Z" fill="#F7DE8D"/>
<path d="M57.6318 114.911C60.4404 116.801 63.1615 118.799 65.8602 120.825L69.874 123.901L73.8349 127.041L71.1192 127.733L73.1821 122.376C73.8733 120.59 74.6114 118.826 75.3238 117.047L76.1848 114.9L78.0042 116.3C79.3134 117.308 80.5943 118.354 81.8915 119.378C83.1844 120.408 84.4489 121.476 85.7298 122.522C86.9882 123.597 88.2622 124.652 89.501 125.756C90.7517 126.842 91.9793 127.959 93.185 129.102L92.3424 130.22C90.9134 129.37 89.507 128.492 88.1212 127.586C86.7242 126.695 85.3624 125.756 83.9861 124.838C82.6311 123.889 81.2599 122.963 79.918 122C78.5805 121.031 77.2256 120.083 75.9001 119.098L78.5824 118.35C77.8872 120.133 77.2185 121.927 76.501 123.701L74.3427 129.022L73.4257 131.281L71.6259 129.712L67.8159 126.388L64.0571 123.003C61.5729 120.719 59.1122 118.409 56.7408 115.989L57.6336 114.91L57.6318 114.911Z" fill="#F7DE8D"/>
<path d="M185.81 28.3158C185.883 31.7032 185.814 35.0778 185.71 38.4509L185.503 43.5056L185.216 48.5532L185.079 50.9372L182.823 50.0137L177.51 47.8374C175.739 47.1082 173.99 46.3341 172.229 45.5848L174.639 44.1897C174.417 45.8264 174.147 47.4582 173.905 49.0937C173.656 50.7267 173.36 52.3548 173.09 53.9866C172.785 55.6127 172.504 57.2431 172.165 58.8652C171.843 60.489 171.488 62.1088 171.097 63.7249L169.708 63.5459C169.736 61.8822 169.796 60.2253 169.891 58.572C169.968 56.9148 170.105 55.2681 170.216 53.615C170.363 51.9676 170.484 50.3185 170.651 48.6724C170.826 47.0286 170.973 45.3812 171.168 43.7408L171.439 41.4609L173.576 42.3462C175.343 43.0785 177.123 43.7856 178.883 44.5395L184.156 46.8097L181.763 48.2681L182.287 43.2406L182.893 38.2195C183.329 34.8739 183.803 31.5333 184.415 28.202L185.811 28.3179L185.81 28.3158Z" fill="#F7DE8D"/>
<path d="M106.85 60.4916L66.3253 73.5973C60.4882 75.4853 54.892 70.261 56.2726 64.3602L65.6301 24.0887C66.9684 18.3254 73.966 16.0616 78.4231 19.9533C117.884 54.3458 107.963 45.6991 109.59 47.1191C114.196 51.1238 112.659 58.6122 106.85 60.4916Z" fill="#F7DE8D"/>
<path opacity="0.5" d="M106.85 60.4915L66.3253 73.5972C62.187 74.938 58.1393 72.6958 56.659 69.1338C61.5989 65.1247 68.8028 66.0152 74.3778 65.5925C79.7826 65.179 85.0894 63.6114 89.8504 61.0275C93.395 59.1 96.8432 56.3097 97.8412 52.4073C98.6102 49.3993 97.7979 46.2208 96.7092 43.3204C92.8811 33.1774 86.8688 27.755 85.866 26.4435L109.583 47.1123C114.188 51.117 112.652 58.6054 106.842 60.4848L106.85 60.4915Z" fill="#806000"/>
<path d="M80.0422 33.9655L82.2768 45.9447C82.4578 46.9237 81.884 47.8867 80.9404 48.1938L80.1296 48.4582C79.1789 48.7658 78.1516 48.3163 77.7258 47.4146L72.5271 36.3925C72.0133 35.3106 72.5699 34.0285 73.7094 33.6609L77.4772 32.4397C78.6167 32.0722 79.815 32.7898 80.0351 33.9658L80.0422 33.9655Z" fill="#2E2E2E"/>
<path d="M84.726 53.4729C84.3506 52.3194 83.114 51.6821 81.9536 52.0579L81.5622 52.1858C80.4088 52.5612 79.7716 53.7979 80.1474 54.9585C80.5228 56.1119 81.7594 56.7492 82.9198 56.3734L83.3112 56.2455C84.4645 55.8701 85.1018 54.6334 84.726 53.4729Z" fill="#2E2E2E"/>
<path opacity="0.5" d="M80.0422 33.9649L82.2768 45.9442C82.4578 46.9232 81.884 47.8861 80.9333 48.1937L80.1296 48.4577C79.3188 48.7221 78.4497 48.4348 77.9518 47.7788C78.3703 47.7562 78.556 47.6394 79.2627 47.4233C80.2134 47.1158 80.7872 46.1529 80.6062 45.1739C78.2537 32.9876 78.5271 33.0439 77.9915 32.3473C78.9631 32.2947 79.8671 32.9643 80.0493 33.9645L80.0422 33.9649Z" fill="#806000"/>
<path opacity="0.5" d="M84.7254 53.4738C85.1008 54.6272 84.4639 55.871 83.3106 56.2464L82.9192 56.3743C82.0382 56.6567 81.1045 56.3587 80.5641 55.705C81.0476 55.7002 81.331 55.5497 81.6255 55.4697C83.1355 54.9825 83.6314 53.1062 82.6083 51.9451C83.5397 51.9374 84.4186 52.5371 84.7183 53.4741L84.7254 53.4738Z" fill="#806000"/>
<path d="M186.447 122.046C187.64 121.55 189.535 119.951 191.169 118.214C190.652 117.635 190.328 116.883 190.328 116.042V101.043H178.542V116.042C178.542 117.276 177.853 118.338 176.839 118.896C179.252 121.246 183.098 123.438 186.44 122.046H186.447Z" fill="#F9B384"/>
<path d="M190.335 110.501V112.99C189.763 113.038 189.184 113.01 188.612 112.893C186.068 112.404 182.443 111.239 180.189 108.461C179.645 107.799 179.086 106.841 178.542 105.69V105.311C178.735 105.621 178.942 105.904 179.135 106.152C181.389 108.93 185.014 110.101 187.557 110.584C188.495 110.77 189.439 110.729 190.335 110.508V110.501Z" fill="#DD9D72"/>
<path d="M177.453 117.98C177.453 117.98 185.248 124.19 191.093 117.98C191.093 117.98 202.665 126.747 204.616 129.187C206.566 131.621 206.442 137.349 205.222 140.761C204.002 144.173 198.764 153.795 201.686 159.641C204.609 165.486 206.318 168.167 206.318 168.167H168.679C168.679 168.167 174.51 159.751 172.573 152.327C172.573 152.327 164.785 172.186 155.404 171.214C146.024 170.242 132.866 126.871 132.866 126.871L140.537 123.094L155.032 150.259C155.032 150.259 164.047 121.267 168.672 119.923C173.304 118.586 177.439 117.973 177.439 117.973L177.453 117.98Z" fill="#FF6B00"/>
<path d="M177.452 117.979C177.452 117.979 172.517 122.121 175.44 125.285C178.362 128.456 184.696 121.446 184.696 121.446C184.696 121.446 189.693 127.656 192.616 125.347C195.538 123.031 191.092 117.979 191.092 117.979C191.092 117.979 186.095 122.121 177.452 117.979Z" fill="#AA4700"/>
<path d="M127.517 117.221C127.097 117.703 130.557 121.543 132.183 123.287C132.183 123.293 132.183 123.307 132.19 123.314C132.404 124.086 132.625 124.851 132.845 125.616C135.388 125.127 137.918 124.265 140.413 123.197C139.999 122.308 139.579 121.412 139.179 120.529L139.131 120.412C139.131 120.412 139.103 120.35 139.076 120.323C139.372 118.399 139.951 114.091 139.207 113.719C138.249 113.237 136.484 116.276 136.484 116.276C136.484 116.276 133.645 108.942 132.68 109.004C131.715 109.073 133.617 115.146 133.617 115.146C133.617 115.146 131.074 110.514 129.999 110.631C128.923 110.748 132.025 116.766 132.025 116.766C132.025 116.766 128.427 112.768 127.51 113.485C126.601 114.202 131.191 118.799 131.191 118.799C131.191 118.799 128.069 116.58 127.517 117.214V117.221Z" fill="#F9B384"/>
<path d="M132.466 124.797C132.246 124.894 132.122 125.128 132.156 125.363C132.301 126.272 132.694 128.464 133.231 129.105C133.831 129.815 138.056 127.458 139.117 126.851C139.269 126.762 139.365 126.61 139.386 126.438L139.524 124.804C139.524 124.804 140.579 126.348 140.827 126.348C140.971 126.348 141.488 126.107 141.881 125.907C142.15 125.776 142.253 125.445 142.109 125.176L140.289 121.826C140.158 121.578 139.855 121.482 139.6 121.592L132.459 124.797H132.466Z" fill="#AA4700"/>
<path d="M196.613 88.8079C195.201 82.4043 188.729 78.4753 182.388 80.1503C176.529 81.7012 172.938 87.4706 173.958 93.2814C173.876 93.309 173.793 93.3228 173.717 93.3503C172.07 94.0258 171.277 95.9076 171.953 97.5619C172.552 99.0301 174.689 100.733 176.315 100.609C177.232 102.973 178.197 104.986 179.141 106.144C181.395 108.922 185.02 110.093 187.564 110.576C189.473 110.948 191.444 110.431 192.926 109.163C194.291 108.005 195.938 106.316 197.006 104.214C197.496 103.276 197.861 102.256 198.047 101.153C198.144 100.581 198.171 99.8986 198.157 99.1266C198.109 96.3695 197.434 92.5094 196.62 88.8079H196.613Z" fill="#F9B384"/>
<path d="M166.018 79.3993C162.172 80.4057 159.133 83.9555 158.719 87.9052C158.382 91.1242 159.629 94.4328 158.802 97.5622C158.313 99.4233 157.141 101.009 156.176 102.677C154.66 105.31 153.633 108.322 153.86 111.348C154.088 114.374 155.749 117.4 158.478 118.724C159.601 119.268 160.856 119.509 162.103 119.592C165.267 119.799 168.513 118.944 171.091 117.097C171.787 116.601 172.449 116.015 172.855 115.256C173.235 114.553 173.372 113.747 173.455 112.947C173.669 110.762 173.455 108.536 172.828 106.433C172.38 104.917 171.718 103.463 171.222 101.96C170.395 99.4647 170.016 96.7764 170.519 94.2054C171.022 91.6274 172.47 89.1735 174.71 87.8018C175.089 87.5674 175.502 87.3607 175.785 87.016C177.501 84.9343 176.088 82.2461 174.296 80.9778C171.939 79.3097 168.837 78.6617 166.025 79.3993H166.018Z" fill="#3D2D21"/>
<path d="M180.279 89.0746C182.37 86.9226 182.37 83.4341 180.279 81.2821C178.188 79.1301 174.798 79.1301 172.707 81.2821C170.617 83.4341 170.617 86.9226 172.707 89.0746C174.798 91.2266 178.188 91.2266 180.279 89.0746Z" fill="#F7DE8D"/>
<path d="M197.551 93.4885C197.551 93.4885 197.31 85.2031 192.678 81.3086C188.046 77.4072 181.347 79.3579 176.839 82.6458C172.332 85.9338 173.71 93.3506 173.71 93.3506C173.71 93.3506 177.205 98.6031 179.396 98.3618C181.588 98.1205 182.195 88.7392 182.195 88.7392C182.195 88.7392 191.941 93.3713 195.352 90.2005L197.544 93.4885H197.551Z" fill="#3D2D21"/>
<path d="M205.794 167.437C205.794 167.437 199.219 158.179 201.045 152.576C202.872 146.972 206.159 139.541 206.159 136.129" stroke="#AA4700" stroke-width="0.71" stroke-linecap="round" stroke-linejoin="round"/>
</g>
<defs>
<clipPath id="clip0_22334_10394">
<rect width="423" height="303" fill="white" transform="translate(0.5)"/>
</clipPath>
</defs>
</svg>
