<svg id="egpfcM3FDrn1" xmlns="http://www.w3.org/2000/svg" xmlns:xlink="http://www.w3.org/1999/xlink" viewBox="0 0 426 304" shape-rendering="geometricPrecision" text-rendering="geometricPrecision" width="426" height="304">
<style><![CDATA[
#egpfcM3FDrn2 {animation: egpfcM3FDrn2__m 4500ms linear infinite normal forwards}@keyframes egpfcM3FDrn2__m { 0% {d: path('M387.281,210.275C381.296,196.266,369.802,184.575,355.995,178.823C341.615,172.83,325.102,175.01,309.955,173.004C296.799,171.261,287.309,165.218,279.452,154.472C271.925,144.176,265.176,132.774,252.872,128.01C243.148,124.246,232.093,125.291,222.428,129.211C204.622,136.438,191.17,151.801,179.842,167.109C169.5,181.084,161.064,196.386,141.934,196.885C122.791,197.383,104.568,186.147,85.2957,189.124C59.8234,193.059,38.6072,214.883,34.1623,240.861C29.9956,265.209,40.4497,288.827,58.4104,302.7L367.122,302.7C389.754,277.992,401.629,243.861,387.281,210.275Z')} 31.111111% {d: path('M393.381881,210.112C387.396881,196.103,374.516881,180.81,360.709881,175.058C346.329881,169.065,328.673881,177.064,313.526881,175.058C300.370881,173.315,295.610881,163.561,287.753881,152.815C280.226881,142.519,267.983881,130.413862,255.679881,125.649862C245.955881,121.885862,232.519881,121.092,222.854882,125.012C205.048881,132.239,194.556881,144.116,183.228881,159.424C172.886881,173.399,165.938881,195.439,146.808881,195.938C127.665881,196.436,103.150581,180.666,83.878281,183.643C58.405981,187.578,34.892281,213.637,30.447381,239.615C26.280681,263.963,40.4497,288.827,58.4104,302.7L367.122,302.7C389.754,277.992,407.729881,243.698,393.381881,210.112Z')} 66.666667% {d: path('M400.653881,217.491C394.668881,203.482,380.929,180.81,367.122,175.058C352.742,169.065,337.277881,169.964,322.130881,167.958C308.974881,166.215,300.655881,161.913,292.798881,151.167C285.271881,140.871,272.748882,125.83,260.444881,121.066C250.720881,117.302,226.94688,118.338,217.281881,122.258C199.47588,129.485,187.522882,137.507,176.194882,152.815C165.852882,166.79,169.632381,185.493,150.502381,185.992C131.359381,186.49,110.303881,183.077,84.485746,185.992C59.013446,189.927,30.447381,207.375,32.039489,240.149C33.238057,264.821859,40.4497,288.827,58.4104,302.7L367.122,302.7C404.402881,291.288002,415.001881,251.077,400.653881,217.491Z')} 100% {d: path('M387.281,210.275C381.296,196.266,369.802,184.575,355.995,178.823C341.615,172.83,325.102,175.01,309.955,173.004C296.799,171.261,287.309,165.218,279.452,154.472C271.925,144.176,265.176,132.774,252.872,128.01C243.148,124.246,232.093,125.291,222.428,129.211C204.622,136.438,191.17,151.801,179.842,167.109C169.5,181.084,161.064,196.386,141.934,196.885C122.791,197.383,104.568,186.147,85.2957,189.124C59.8234,193.059,38.6072,214.883,34.1623,240.861C29.9956,265.209,40.4497,288.827,58.4104,302.7L367.122,302.7C389.754,277.992,401.629,243.861,387.281,210.275Z')}} #egpfcM3FDrn6_ts {animation: egpfcM3FDrn6_ts__ts 4500ms linear infinite normal forwards}@keyframes egpfcM3FDrn6_ts__ts { 0% {transform: translate(293.560501px,46.50935px) scale(0,0)} 44.444444% {transform: translate(293.560501px,46.50935px) scale(1.25,1.25)} 55.555556% {transform: translate(293.560501px,46.50935px) scale(1,1)} 88.888889% {transform: translate(293.560501px,46.50935px) scale(1.25,1.25)} 100% {transform: translate(293.560501px,46.50935px) scale(0,0)}} #egpfcM3FDrn7_ts {animation: egpfcM3FDrn7_ts__ts 4500ms linear infinite normal forwards}@keyframes egpfcM3FDrn7_ts__ts { 0% {transform: translate(281.817001px,46.50935px) scale(0,0)} 22.222222% {transform: translate(281.817001px,46.50935px) scale(1.25,1.25)} 33.333333% {transform: translate(281.817001px,46.50935px) scale(1,1)} 77.777778% {transform: translate(281.817001px,46.50935px) scale(1.25,1.25)} 88.888889% {transform: translate(281.817001px,46.50935px) scale(0,0)} 100% {transform: translate(281.817001px,46.50935px) scale(0,0)}} #egpfcM3FDrn8_ts {animation: egpfcM3FDrn8_ts__ts 4500ms linear infinite normal forwards}@keyframes egpfcM3FDrn8_ts__ts { 0% {transform: translate(270.071991px,46.50935px) scale(0,0)} 11.111111% {transform: translate(270.071991px,46.50935px) scale(1.25,1.25)} 22.222222% {transform: translate(270.071991px,46.50935px) scale(1,1)} 66.666667% {transform: translate(270.071991px,46.50935px) scale(1.25,1.25)} 77.777778% {transform: translate(270.071991px,46.50935px) scale(0,0)} 100% {transform: translate(270.071991px,46.50935px) scale(0,0)}}
]]></style>
<path id="egpfcM3FDrn2" d="M387.281,210.275c-5.985-14.009-17.479-25.7-31.286-31.452-14.38-5.993-30.893-3.813-46.04-5.819-13.156-1.743-22.646-7.786-30.503-18.532-7.527-10.296-14.276-21.698-26.58-26.462-9.724-3.764-20.779-2.719-30.444,1.201-17.806,7.227-31.258,22.59-42.586,37.898-10.342,13.975-18.778,29.277-37.908,29.776-19.143.498-37.366-10.738-56.6383-7.761-25.4723,3.935-46.6885,25.759-51.1334,51.737-4.1667,24.348,6.2874,47.966,24.2481,61.839h308.7116c22.632-24.708,34.507-58.839,20.159-92.425Z" transform="translate(.761119 0.44325)" fill="#e6f7fc"/><path d="M255.003,86.2539c-.791-4.3393,1.986-8.5167,6.203-9.3304s8.276,2.0445,9.067,6.3839c.79,4.3394-1.987,8.5168-6.204,9.3304-4.216.8137-8.276-2.0445-9.066-6.3839Z" transform="translate(0 0.883918)" fill="#afe0f0"/><path d="M251.313,101.226c-.445-2.4413,1.131-4.7934,3.519-5.2538c2.389-.4604,4.685,1.1453,5.129,3.5863.444,2.4415-1.131,4.7935-3.52,5.2535-2.388.461-4.684-1.145-5.128-3.586Z" transform="translate(0 0.05487)" fill="#afe0f0"/><path d="M260.191,66.7683c-11.944-12.2917-11.944-32.2205,0-44.5122s31.31-12.2917,43.254,0s11.944,32.2205,0,44.5122-31.31,12.2917-43.254,0Z" transform="translate(0 1.682105)" fill="#afe0f0"/><g id="egpfcM3FDrn6_ts" transform="translate(293.560501,46.50935) scale(0,0)"><path d="M293.56,48.4743c-2.128,0-3.852-1.7752-3.852-3.9649s1.724-3.965,3.852-3.965s3.853,1.7752,3.853,3.965-1.725,3.9649-3.853,3.9649Z" transform="translate(-293.560501,-44.50935)" fill="#fff"/></g><g id="egpfcM3FDrn7_ts" transform="translate(281.817001,46.50935) scale(0,0)"><path d="M281.817,48.4743c-2.128,0-3.853-1.7752-3.853-3.9649s1.725-3.965,3.853-3.965s3.853,1.7752,3.853,3.965-1.725,3.9649-3.853,3.9649Z" transform="translate(-281.817001,-44.50935)" fill="#fff"/></g><g id="egpfcM3FDrn8_ts" transform="translate(270.071991,46.50935) scale(0,0)"><path d="M270.072,48.4743c-2.128,0-3.853-1.7752-3.853-3.9649s1.725-3.965,3.853-3.965s3.853,1.7752,3.853,3.965-1.725,3.9649-3.853,3.9649Z" transform="translate(-270.071991,-44.50935)" fill="#fff"/></g><path d="M152.925,286.966l2.858,11.339c.746,2.956,3.523,4.955,6.598,4.738c9.369-.654,28.838-3.017,40.013-11.494l-3.176-16.34c-15.363-.893-29.729-.012-42.172,4.295-3.116,1.079-4.917,4.292-4.118,7.459l-.003.003Z" fill="#005873"/><path d="M188.754,225.679l-35.706,10.908l26.518,37.39l38.07,3.115l52.511-22.848-19.957-30.9-61.436,2.335Z" fill="#132e39"/><path d="M232.777,230.872c78.416-23.887,91.017,47.433-31.33,60.416-4.323-5.005-9.373-13.687-11.378-20.947l64.61-30.726-21.902-8.743Z" fill="#132e39"/><path d="M236.107,281.991c-3.669-1.208-7.183-3.595-7.183-3.595l-12.601,4.068l2.888,14.108l13.091,2.736c3.989-7.508,4.221-13.67,3.805-17.317Z" fill="#f9b384"/><path d="M190.348,270.837l-.559-.99c13.48-8.062,48.004-27.428,77.421-33.141l.208,1.128c-29.245,5.68-63.638,24.972-77.068,33.003h-.002Z" opacity="0.2" fill="#fff"/><path d="M188.753,225.68c-72.989-14.283-91.8934,57.905,30.457,70.888c4.322-5.004,7.709-10.916,9.714-18.176-18.795-12.941-39.808-25.242-62.836-36.96l22.668-15.752h-.003Z" transform="translate(.299 0)" fill="#132e39"/><path d="M228.626,278.875c-3.472-2.274-7.09-4.677-10.92-7.223-19.228-12.776-41.02-27.257-59.535-35.513l.443-1.052c18.598,8.294,40.432,22.802,59.696,35.602c3.829,2.543,7.444,4.946,10.913,7.22l-.597.966Z" opacity="0.2" fill="#fff"/><path d="M135.204,261.471l-.975-.553c2.739-5.105,7.13-8.548,13.044-10.232l.297,1.104c-5.694,1.623-9.74,4.79-12.366,9.681Z" opacity="0.2" fill="#fff"/><path d="M287.541,257.125c-2.626-4.891-6.672-8.058-12.366-9.681l.297-1.104c5.914,1.685,10.305,5.13,13.043,10.232l-.974.553Z" opacity="0.2" fill="#fff"/><path d="M212.375,295.936l-.813-.783c5.84-6.435,9.425-13.228,10.964-20.769l1.09.235c-1.58,7.75-5.258,14.723-11.238,21.317h-.003Z" opacity="0.2" fill="#fff"/><path d="M272.508,277.786c-9.351-5.945-27.48,4.329-32.031,4.849-1.328.153-2.861-.147-4.37-.645.416,3.647.184,9.81-3.805,17.318l2.225.464c0,0,15.372,5.799,31.681,2.425c15.051-3.116,13.652-19.733,6.3-24.408v-.003Z" fill="#005873"/><path d="M175.84,132.609c0,0,18.381-16.086,17.701-19.143-.487-2.186-5.695,1.018-5.695,1.018s7.302-8.918,6.931-10c-.663-1.935-5.716,1.672-5.716,1.672s3.414-5.056,1.783-5.881c-1.631-.8257-5.19,2.292-5.19,2.292s2.08-2.8059,1.102-3.5426c-.977-.7367-5.189,2.2926-5.189,2.2926s1.512-3.5399-1.699-2.1978c-3.212,1.3418-25.734,22.6128-25.734,22.6128l21.706,10.877Z" fill="#f9b384"/><path d="M183.361,113.531c-.089,0-.178-.034-.25-.101-3.154-2.966-4.548-3.687-8.026-4.791-.196-.061-.306-.275-.247-.477.06-.201.268-.314.464-.253c3.606,1.14,5.047,1.886,8.311,4.955.152.144.164.385.024.541-.074.083-.172.126-.273.126h-.003Z" fill="#e28b6d"/><path d="M177.823,122.255c-.017,0-.035,0-.05-.003-.202-.03-.345-.223-.315-.431.362-2.659,1.176-4.322,2.486-5.08c1.123-.649,2.582-.584,4.34.198.187.083.277.309.193.502-.08.192-.3.284-.487.198-1.533-.681-2.771-.761-3.68-.232-1.082.627-1.794,2.146-2.115,4.521-.027.19-.184.33-.369.33l-.003-.003Z" fill="#e28b6d"/><path d="M176.956,106.176c-.098,0-.196-.04-.27-.119-.14-.153-.134-.394.015-.541l4.613-4.473c.148-.146.383-.137.526.016.139.152.133.394-.015.541l-4.613,4.472c-.072.07-.164.104-.256.104Z" fill="#e28b6d"/><path d="M181.228,107.704c-.092,0-.184-.036-.258-.107-.149-.147-.152-.388-.012-.541l4.432-4.75c.142-.153.377-.159.525-.013.149.147.152.389.012.541l-4.432,4.751c-.074.079-.169.116-.267.116v.003Z" fill="#e28b6d"/><path d="M185.588,110.379c-.092,0-.181-.034-.252-.104-.149-.144-.157-.385-.018-.541l3.476-3.837c.139-.152.374-.162.525-.018.149.144.158.385.018.541l-3.475,3.837c-.075.079-.173.122-.274.122Z" fill="#e28b6d"/><path d="M245.279,240.199l-67.208,2.675-7.426-63.051c0,0,22.498-21.961,31.155-30.05l14.615-.771c45.339,21.21,37.916,47.699,28.864,91.197Z" fill="#0080a7"/><path d="M216.414,149.002c0,0,51.872,4.565,68.224,41.139c16.003,35.788-49.756,48.529-49.756,48.529l-18.468-89.668Z" fill="#0080a7"/><path d="M157.122,156.839l21.436-26.844-20.045-12.5c-8.362,5.983-24.531,19.534-38.234,34.881-3.024,3.387-5.389,7.342-6.577,11.699-1.016,3.717-1.2,7.388-.63,10.983c1.488,9.373,8.65,16.603,18.213,17.756c8.166.984,39.359-1.529,64.609-9.171l7.426-29.497c-3.817-2.229-32.177-2.617-46.198,2.693Z" fill="#0080a7"/><path d="M221.159,134.986l-.009.978-.151,15.203-.018,1.648c-.027,2.577-1.054,4.912-2.712,6.609-1.649,1.684-3.918,2.742-6.431,2.76-5.065.028-9.209-4.157-9.256-9.379l-.179-18.788l18.756.969Z" fill="#f9b384"/><path d="M221.151,135.964l-.152,15.203c-8.21-3.439-11.591-12.586-11.591-12.586l11.74-2.617h.003Z" fill="#dd9d72"/><path d="M224.398,109.437c2.941,3.635,11.535,24.224,2.825,31.249-9.8,7.905-24.715-5.087-24.715-5.087l-2.002-23.983l12.945-3.512l10.947,1.333Z" fill="#f9b384"/><path d="M193.911,108.117c0,0-28.716,15.413-5.303,59.841c3.007,5.707,9.669,8.195,15.367,5.413c6.113-2.986,8.427-10.672,5.106-16.74-3.829-7-7.527-16.018-5.947-22.725l-9.223-25.786v-.003Z" fill="#3d2d21"/><path d="M202.118,121.066c3.034-3.122,3.034-8.183,0-11.305s-7.952-3.122-10.986,0c-3.033,3.122-3.033,8.183,0,11.305c3.034,3.122,7.952,3.122,10.986,0Z" fill="#f9c853"/><path d="M206.178,125.015c-.84-4.986-1.351-8.407,3.547-10.978c0,0,17.262,3.231,20.556-3.473c3.295-6.701-1.726-17.278-12.238-9.932-26.914-5.4109-30.523,20.509-22.363,29.149l8.053-1.272c1.622-.257,2.724-1.834,2.445-3.497v.003Z" fill="#3d2d21"/><path d="M205.517,133.845c1.547-2.062.955-5.2-1.322-7.008s-5.376-1.602-6.923.46-.955,5.2,1.322,7.008c2.277,1.809,5.376,1.603,6.923-.46Z" fill="#f9b384"/><path d="M156.852,156.568L145.129,169.62l.545.518l11.724-13.051-.546-.519Z" fill="#132e39"/><path d="M239.444,212.673l-.216-.731c8.534-2.678,16.819-5.879,24.325-15.539l.58.477c-7.641,9.832-16.038,13.081-24.689,15.796v-.003Z" fill="#132e39"/><path d="M244.634,183.077h-72.606c-2.611,0-4.729,2.357-4.729,5.264v53.348c0,2.907,2.118,5.264,4.729,5.264h72.606c2.611,0,4.729-2.357,4.729-5.264v-53.348c0-2.907-2.118-5.264-4.729-5.264Z" fill="#e7ebec"/><path d="M212.166,211.641c.276,0,.499.247.499.556v5.631c0,.306-.223.557-.499.557h-7.667c-.276,0-.499-.248-.499-.557v-5.631c0-.305.223-.556.499-.556h7.667Zm0-1.529h-7.667c-1.093,0-1.984.936-1.984,2.085v5.631c0,1.15.891,2.085,1.984,2.085h7.667c1.093,0,1.984-.935,1.984-2.085v-5.631c0-1.149-.891-2.085-1.984-2.085Z" fill="#fff"/><path d="M93.1746,302.421c0,0-47.422-3.302-48.6852-34.527c0,0,4.0969-9.448,0-15.946s-13.5882-3.091-20.5529-12.61-3.4824-10.502-4.097-17.983c-.6487-7.482-2.2192-9.449-9.4912-13.98s-12.01769-7.797-9.798512-18.545s14.544112-7.798,18.333812-3.899c3.7896,3.899,7.8866,15.595,12.3249,16.93c4.4384,1.334,12.6322-1.967,18.3338,1.967c5.7016,3.898,10.1058,6.814,11.0617,13.663.956,6.814,1.2632,16.93,4.4384,18.229c3.1751,1.3,12.6322,7.903,19.597,6.217s23.6936,26.941,19.9046,35.405c-3.79,8.43-3.688,26.133-11.3694,25.079Z" fill="#005850"/><path d="M100.938,302.836c0,0-23.6828-57.157-80.7505-106.273" fill="none" stroke="#fbfdff" stroke-width="1.5496" stroke-linecap="round" stroke-miterlimit="10"/><path d="M39.71,230.838c0,0,8.9108-2.599,14.1002-.702" fill="none" stroke="#fbfdff" stroke-width="1.5496" stroke-linecap="round" stroke-miterlimit="10"/><path d="M52.9225,215.242c0,0-4.2676,7.376-2.6289,10.924" fill="none" stroke="#fbfdff" stroke-width="1.5496" stroke-linecap="round" stroke-miterlimit="10"/><path d="M63.8809,272.776c0,0,10.2423-4.812,19.8018-2.002" fill="none" stroke="#fbfdff" stroke-width="1.5496" stroke-linecap="round" stroke-miterlimit="10"/><path d="M83.6489,256.162c0,0-4.6432,7.236-2.0827,11.31" fill="none" stroke="#fbfdff" stroke-width="1.5496" stroke-linecap="round" stroke-miterlimit="10"/><path d="M332.177,302.421c0,0,47.422-3.302,48.685-34.527c0,0-4.097-9.448,0-15.946s13.588-3.091,20.553-12.61s3.483-10.502,4.097-17.983c.649-7.482,2.219-9.449,9.491-13.98s12.018-7.797,9.799-18.545-14.544-7.798-18.334-3.899-7.887,15.595-12.325,16.93c-4.438,1.334-12.632-1.967-18.334,1.967-5.701,3.898-10.106,6.814-11.061,13.663-.956,6.814-1.264,16.93-4.439,18.229-3.175,1.3-12.632,7.903-19.597,6.217s-23.694,26.941-19.904,35.405c3.79,8.43,3.687,26.133,11.369,25.079Z" fill="#005850"/><path d="M324.414,302.836c0,0,23.682-57.157,80.75-106.273" fill="none" stroke="#fbfdff" stroke-width="1.5496" stroke-linecap="round" stroke-miterlimit="10"/><path d="M385.642,230.838c0,0-8.911-2.599-14.101-.702" fill="none" stroke="#fbfdff" stroke-width="1.5496" stroke-linecap="round" stroke-miterlimit="10"/><path d="M372.429,215.242c0,0,4.268,7.376,2.629,10.924" fill="none" stroke="#fbfdff" stroke-width="1.5496" stroke-linecap="round" stroke-miterlimit="10"/><path d="M361.471,272.776c0,0-10.243-4.812-19.802-2.002" fill="none" stroke="#fbfdff" stroke-width="1.5496" stroke-linecap="round" stroke-miterlimit="10"/><path d="M341.703,256.162c0,0,4.643,7.236,2.082,11.31" fill="none" stroke="#fbfdff" stroke-width="1.5496" stroke-linecap="round" stroke-miterlimit="10"/><path d="M105.774,302.421c0,0-13.5203-6.217-15.9443-15.981-2.424-9.765-1.2291-11.626,1.0242-16.509c2.2192-4.882,2.8337-7.165-.4097-12.785s-5.6674-11.415,0-17.773c5.6675-6.357,3.2434-13.206,3.2434-13.206s-2.2191-8.5,6.2479-6.639c8.5015,1.862,5.2575,7.482,5.8725,7.482.614,0-2.595,7.481.136,10.607c2.697,3.126,9.184,9.132,7.341,14.542-1.81,5.409-4.644,17.035-2.22,22.444c2.39,5.374,13.077,13.452-5.291,27.818Z" fill="#1c866d"/><path d="M105.363,301.403c0,0-9.2867-56.129-5.4629-74.007" fill="none" stroke="#fbfdff" stroke-width="1.5496" stroke-linecap="round" stroke-miterlimit="10"/><path d="M92.4238,276.043c0,0,4.7115-.352,10.0372,5.444" fill="none" stroke="#fbfdff" stroke-width="1.5496" stroke-linecap="round" stroke-miterlimit="10"/><path d="M92.4238,246.538c0,0,4.6432,2.564,7.1697,7.938" fill="none" stroke="#fbfdff" stroke-width="1.5496" stroke-linecap="round" stroke-miterlimit="10"/><path d="M101.607,274.603c0,0,2.937-7.305,5.19-8.746" fill="none" stroke="#fbfdff" stroke-width="1.5496" stroke-linecap="round" stroke-miterlimit="10"/><path d="M99.5938,250.508c0,0,1.1612-5.023,2.8682-6.463" fill="none" stroke="#fbfdff" stroke-width="1.5496" stroke-linecap="round" stroke-miterlimit="10"/><path d="M319.58,302.421c0,0,13.52-6.217,15.944-15.981c2.424-9.765,1.229-11.626-1.024-16.509-2.22-4.882-2.834-7.165.409-12.785c3.244-5.62,5.668-11.415,0-17.773-5.667-6.357-3.243-13.206-3.243-13.206s2.219-8.5-6.248-6.639c-8.501,1.862-5.258,7.482-5.872,7.482-.615,0,2.595,7.481-.137,10.607-2.697,3.126-9.184,9.132-7.34,14.542c1.809,5.409,4.643,17.035,2.219,22.444-2.39,5.374-13.076,13.452,5.292,27.818Z" fill="#1c866d"/><path d="M319.991,301.402c0,0,9.286-56.128,5.462-74.006" fill="none" stroke="#fbfdff" stroke-width="1.5496" stroke-linecap="round" stroke-miterlimit="10"/><path d="M332.93,276.043c0,0-4.712-.352-10.038,5.444" fill="none" stroke="#fbfdff" stroke-width="1.5496" stroke-linecap="round" stroke-miterlimit="10"/><path d="M332.93,246.538c0,0-4.644,2.564-7.17,7.938" fill="none" stroke="#fbfdff" stroke-width="1.5496" stroke-linecap="round" stroke-miterlimit="10"/><path d="M323.745,274.603c0,0-2.936-7.305-5.189-8.746" fill="none" stroke="#fbfdff" stroke-width="1.5496" stroke-linecap="round" stroke-miterlimit="10"/><path d="M325.76,250.508c0,0-1.161-5.023-2.868-6.463" fill="none" stroke="#fbfdff" stroke-width="1.5496" stroke-linecap="round" stroke-miterlimit="10"/><path d="M60.3652,299.051c0,0,.8194,1.721,1.0925,3.442c0,0-.0341-1.194.8194-3.547" fill="none" stroke="#132e39" stroke-width="0.774799" stroke-miterlimit="10"/><path d="M51.7954,281.839c0,0-4.9846,14.085,4.3701,17c9.3546,2.916,10.1399-6.287,9.2864-8.5-.8877-2.212-3.1752-8.781-13.6565-8.5Z" fill="#1c866d"/><path d="M55.4824,286.264c0,0,4.4725,4.918,5.1553,11.099" fill="none" stroke="#fbfdff" stroke-width="0.774799" stroke-linecap="round" stroke-miterlimit="10"/><path d="M59.9217,297.54c0,0,5.4626,4.672,9.2864-.773c3.8579-5.444.5462-11.45.5462-11.45s-6.6916-.492-8.7742,2.775c-2.0485,3.231-2.5947,7.235-1.0584,9.448Z" fill="#132e39"/><path d="M62.2764,298.594c0,0,.8193-5.936,2.4923-7.166" fill="none" stroke="#fbfdff" stroke-width="0.774799" stroke-linecap="round" stroke-miterlimit="10"/><path d="M392.476,302.236h-322.0151v1.092h322.0151v-1.092Z" fill="#25596e"/></svg>
