<svg width="400" height="276" viewBox="0 0 400 276" fill="none" xmlns="http://www.w3.org/2000/svg">
<path opacity="0.1" d="M59.7717 221.731C59.7717 221.731 -14.4387 132.976 9.13404 88.3124C33.5462 42.0373 60.9134 27.5638 119.106 40.9292C177.299 54.2945 280.119 5.2322 280.119 5.2322C280.119 5.2322 334.921 -16.1591 331.664 27.5638C328.406 71.2867 327.668 106.111 346.002 120.953C364.336 135.83 385.424 156.113 369.44 182.072C353.457 208.03 314.236 230.63 314.236 230.63L75.7554 231.873C75.7554 231.873 65.2787 228.179 59.7717 221.731Z" fill="#009AC9"/>
<path d="M271.993 234.738H114.17C111.215 234.738 108.797 232.32 108.797 229.365V24.1833C108.797 21.2282 111.215 18.8103 114.17 18.8103H271.993C274.948 18.8103 277.366 21.2282 277.366 24.1833V229.365C277.366 232.32 274.948 234.738 271.993 234.738Z" fill="#122637"/>
<path d="M276.021 229.701H125.586C122.631 229.701 120.213 227.283 120.213 224.328V10.7507C120.213 7.79554 122.631 5.37769 125.586 5.37769H276.021C278.976 5.37769 281.394 7.79554 281.394 10.7507V224.328C281.394 227.283 278.976 229.701 276.021 229.701Z" fill="white"/>
<path d="M267.593 217.814H134.014C131.059 217.814 128.642 215.396 128.642 212.441V19.617C128.642 16.6619 131.059 14.244 134.014 14.244H267.593C270.548 14.244 272.966 16.6619 272.966 19.617V212.441C272.966 215.396 270.548 217.814 267.593 217.814Z" fill="#EFEFEF"/>
<path d="M272.966 32.5794H128.642V19.617C128.642 16.6619 131.059 14.244 134.014 14.244H267.593C270.548 14.244 272.966 16.6619 272.966 19.617V32.5794Z" fill="#0D3D4E"/>
<path fill-rule="evenodd" clip-rule="evenodd" d="M135.293 23.2937V25.6448H144.361V23.2937H135.293ZM145.032 26.3166H134.621V22.6219H144.361V19.5991H148.056V23.2938H145.032V26.3166ZM147.384 20.2708H145.033V22.622H147.384V20.2708Z" fill="white"/>
<path d="M308.358 274.565C308.358 274.565 355 271.409 356.242 241.555C356.242 241.555 352.213 232.522 356.242 226.309C360.272 220.097 369.607 223.354 376.457 214.253C383.307 205.153 379.882 204.213 380.487 197.06C381.091 189.907 382.669 188.026 389.822 183.694C396.974 179.362 401.642 176.239 399.459 165.963C397.276 155.687 385.154 158.508 381.427 162.236C377.7 165.963 373.67 177.146 369.305 178.422C364.939 179.665 356.88 176.542 351.273 180.303C345.665 184.03 341.333 186.817 340.393 193.366C339.453 199.881 339.151 209.552 336.028 210.794C332.905 212.037 323.603 218.35 316.753 216.738C309.903 215.16 293.449 242.495 297.176 250.588C300.904 258.681 300.803 275.573 308.358 274.565Z" fill="#009AC9"/>
<path fill-rule="evenodd" clip-rule="evenodd" d="M387.227 173.071C387.345 173.213 387.325 173.425 387.183 173.543C359.662 196.387 340.19 221.101 327.599 240.104C321.303 249.606 316.728 257.679 313.728 263.375C312.228 266.222 311.122 268.476 310.391 270.017C310.025 270.787 309.753 271.379 309.573 271.778C309.483 271.978 309.416 272.129 309.372 272.231C309.349 272.281 309.333 272.319 309.322 272.344L309.309 272.373L309.306 272.38L309.306 272.381C309.306 272.382 309.306 272.382 308.997 272.249C308.688 272.117 308.689 272.116 308.689 272.116L308.69 272.114L308.693 272.106L308.706 272.077C308.717 272.05 308.734 272.011 308.757 271.96C308.802 271.857 308.87 271.704 308.961 271.502C309.143 271.099 309.416 270.503 309.784 269.729C310.519 268.18 311.629 265.918 313.134 263.061C316.143 257.348 320.729 249.256 327.039 239.733C339.657 220.689 359.171 195.921 386.754 173.027C386.896 172.908 387.108 172.928 387.227 173.071ZM308.864 272.558C308.694 272.485 308.615 272.287 308.688 272.117L308.997 272.249L309.306 272.382C309.232 272.552 309.035 272.631 308.864 272.558Z" fill="#FBFDFF"/>
<path fill-rule="evenodd" clip-rule="evenodd" d="M367.753 205.803C367.753 205.803 367.753 205.803 367.661 206.126L367.753 205.803C367.931 205.854 368.035 206.04 367.984 206.218C367.934 206.396 367.748 206.5 367.57 206.449L367.564 206.448L367.546 206.443C367.53 206.438 367.506 206.432 367.474 206.423C367.409 206.406 367.314 206.38 367.191 206.348C366.944 206.285 366.585 206.195 366.138 206.094C365.243 205.891 363.998 205.639 362.595 205.443C359.772 205.049 356.375 204.894 353.905 205.771C353.731 205.833 353.539 205.742 353.476 205.567C353.414 205.392 353.506 205.2 353.681 205.138C356.314 204.203 359.852 204.382 362.687 204.778C364.114 204.977 365.378 205.233 366.286 205.439C366.741 205.542 367.106 205.633 367.358 205.698C367.485 205.731 367.583 205.757 367.649 205.775C367.683 205.784 367.708 205.791 367.726 205.796L367.745 205.801L367.753 205.803Z" fill="#FBFDFF"/>
<path fill-rule="evenodd" clip-rule="evenodd" d="M354.494 190.929C354.653 190.835 354.859 190.887 354.954 191.046L354.665 191.218C354.954 191.046 354.954 191.046 354.954 191.046L354.955 191.048L354.958 191.052L354.967 191.068C354.975 191.082 354.987 191.103 355.003 191.13C355.034 191.184 355.079 191.262 355.136 191.364C355.249 191.566 355.408 191.858 355.595 192.219C355.966 192.94 356.446 193.939 356.876 195.047C357.305 196.153 357.687 197.378 357.859 198.55C358.03 199.716 357.999 200.871 357.554 201.806C357.475 201.973 357.274 202.045 357.107 201.965C356.939 201.885 356.868 201.685 356.948 201.518C357.309 200.757 357.358 199.758 357.195 198.648C357.033 197.544 356.669 196.37 356.25 195.289C355.831 194.21 355.362 193.234 354.998 192.527C354.815 192.174 354.66 191.888 354.55 191.692C354.495 191.593 354.451 191.517 354.421 191.466C354.407 191.441 354.395 191.421 354.388 191.408L354.379 191.394L354.377 191.391L354.377 191.39" fill="#FBFDFF"/>
<path fill-rule="evenodd" clip-rule="evenodd" d="M344.025 245.951C344.025 245.952 344.025 245.952 343.886 246.257L344.025 245.951C344.193 246.029 344.268 246.228 344.191 246.397C344.114 246.565 343.915 246.64 343.746 246.563L343.745 246.562L343.74 246.56L343.72 246.551C343.701 246.542 343.673 246.53 343.636 246.514C343.562 246.482 343.452 246.435 343.307 246.375C343.017 246.257 342.592 246.089 342.052 245.896C340.971 245.511 339.432 245.024 337.601 244.621C333.935 243.812 329.128 243.344 324.502 244.666C324.324 244.717 324.138 244.614 324.087 244.435C324.036 244.257 324.139 244.071 324.317 244.02C329.094 242.655 334.025 243.144 337.746 243.965C339.609 244.375 341.176 244.871 342.277 245.264C342.828 245.46 343.264 245.632 343.562 245.754C343.711 245.815 343.826 245.864 343.904 245.898C343.943 245.915 343.973 245.928 343.993 245.937L344.016 245.948L344.023 245.95L344.024 245.951L344.025 245.951Z" fill="#FBFDFF"/>
<path fill-rule="evenodd" clip-rule="evenodd" d="M324.259 230.093C324.414 229.991 324.622 230.033 324.724 230.188L324.444 230.373C324.724 230.188 324.724 230.188 324.724 230.188L324.725 230.19L324.728 230.194L324.739 230.21C324.748 230.224 324.761 230.245 324.778 230.272C324.812 230.325 324.861 230.403 324.922 230.503C325.044 230.704 325.215 230.994 325.412 231.354C325.806 232.072 326.306 233.074 326.727 234.202C327.147 235.327 327.493 236.592 327.57 237.833C327.646 239.074 327.455 240.316 326.774 241.369C326.673 241.524 326.466 241.569 326.31 241.468C326.154 241.368 326.109 241.16 326.21 241.004C326.788 240.11 326.971 239.025 326.899 237.874C326.828 236.723 326.505 235.527 326.098 234.436C325.692 233.348 325.207 232.376 324.824 231.676C324.632 231.327 324.466 231.046 324.348 230.853C324.29 230.756 324.243 230.682 324.211 230.632C324.195 230.607 324.183 230.588 324.175 230.576L324.166 230.562L324.164 230.559L324.164 230.558" fill="#FBFDFF"/>
<path d="M301.677 275.238C301.677 275.238 314.975 269.294 317.359 259.958C319.743 250.623 318.568 248.843 316.351 244.175C314.169 239.507 313.564 237.325 316.754 231.952C319.944 226.579 322.329 221.038 316.754 214.959C311.18 208.881 313.564 202.333 313.564 202.333C313.564 202.333 315.747 194.206 307.419 195.986C299.058 197.766 302.248 203.139 301.644 203.139C301.039 203.139 304.196 210.292 301.509 213.28C298.857 216.269 292.477 222.012 294.29 227.183C296.069 232.355 298.857 243.47 296.472 248.642C294.155 253.813 283.612 261.537 301.677 275.238Z" fill="#006787"/>
<path fill-rule="evenodd" clip-rule="evenodd" d="M307.38 203.18C307.561 203.14 307.74 203.255 307.78 203.436C308.731 207.756 308.862 214.353 308.535 221.79C308.207 229.236 307.417 237.555 306.51 245.335C305.603 253.116 304.578 260.362 303.78 265.662C303.381 268.313 303.039 270.477 302.796 271.978C302.675 272.729 302.578 273.315 302.512 273.712C302.479 273.911 302.454 274.063 302.437 274.165L302.411 274.32C302.411 274.32 302.411 274.32 302.079 274.264C301.748 274.208 301.748 274.208 301.749 274.207L301.774 274.054C301.792 273.952 301.817 273.801 301.85 273.602C301.916 273.206 302.012 272.621 302.133 271.871C302.375 270.372 302.717 268.21 303.116 265.562C303.913 260.267 304.937 253.029 305.843 245.257C306.749 237.485 307.537 229.183 307.864 221.76C308.191 214.327 308.054 207.807 307.124 203.58C307.084 203.399 307.199 203.22 307.38 203.18ZM302.023 274.595C301.84 274.564 301.717 274.391 301.748 274.208L302.079 274.264L302.411 274.32C302.379 274.503 302.206 274.626 302.023 274.595Z" fill="#FBFDFF"/>
<path fill-rule="evenodd" clip-rule="evenodd" d="M314.83 249.683C314.83 249.683 314.831 249.683 314.806 250.018L314.831 249.683C315.015 249.696 315.155 249.857 315.141 250.042C315.128 250.227 314.967 250.366 314.783 250.353C314.783 250.353 314.782 250.353 314.782 250.353C314.782 250.353 314.782 250.353 314.782 250.353L314.775 250.352C314.769 250.352 314.758 250.351 314.742 250.351C314.712 250.35 314.664 250.349 314.601 250.35C314.474 250.351 314.283 250.359 314.036 250.386C313.542 250.438 312.823 250.565 311.941 250.861C310.18 251.452 307.759 252.723 305.178 255.454C305.051 255.588 304.838 255.594 304.703 255.467C304.568 255.339 304.563 255.127 304.69 254.992C307.347 252.181 309.862 250.85 311.728 250.224C312.659 249.911 313.426 249.775 313.965 249.718C314.234 249.689 314.446 249.68 314.593 249.678C314.666 249.677 314.724 249.678 314.763 249.68C314.783 249.68 314.799 249.681 314.81 249.682L314.824 249.682L314.828 249.683L314.829 249.683L314.83 249.683Z" fill="#FBFDFF"/>
<path fill-rule="evenodd" clip-rule="evenodd" d="M300.384 240.102C300.482 239.944 300.689 239.896 300.847 239.994C301.464 240.377 302.093 241.123 302.679 241.976C303.272 242.84 303.848 243.856 304.35 244.821C304.853 245.787 305.287 246.71 305.594 247.39C305.747 247.73 305.869 248.01 305.953 248.205C305.995 248.303 306.028 248.379 306.05 248.432C306.061 248.458 306.069 248.478 306.075 248.491L306.081 248.507L306.084 248.512C306.084 248.512 306.084 248.512 305.773 248.641L305.463 248.769L305.461 248.764L305.455 248.75C305.45 248.737 305.442 248.718 305.431 248.692C305.41 248.642 305.378 248.567 305.336 248.471C305.254 248.279 305.133 248.002 304.981 247.666C304.678 246.993 304.25 246.083 303.755 245.131C303.258 244.178 302.697 243.189 302.125 242.356C301.546 241.513 300.983 240.869 300.492 240.564C300.335 240.466 300.286 240.259 300.384 240.102ZM305.902 248.951C305.73 249.022 305.534 248.94 305.463 248.769L305.773 248.641L306.084 248.512C306.155 248.684 306.073 248.88 305.902 248.951Z" fill="#FBFDFF"/>
<path fill-rule="evenodd" clip-rule="evenodd" d="M304.674 219.212C304.792 219.069 305.003 219.048 305.147 219.166C305.618 219.552 306.029 220.157 306.379 220.814C306.733 221.477 307.039 222.222 307.29 222.917C307.541 223.613 307.738 224.264 307.873 224.741C307.941 224.98 307.992 225.175 308.027 225.312C308.045 225.38 308.058 225.433 308.067 225.47C308.072 225.488 308.075 225.502 308.078 225.511L308.08 225.523L308.081 225.525L308.081 225.526C308.081 225.526 308.081 225.527 307.755 225.604L308.081 225.527C308.124 225.707 308.013 225.888 307.832 225.931C307.652 225.974 307.471 225.862 307.428 225.682L307.427 225.679L307.425 225.67C307.423 225.661 307.42 225.648 307.415 225.631C307.407 225.596 307.394 225.545 307.377 225.479C307.343 225.347 307.293 225.157 307.227 224.924C307.095 224.457 306.902 223.822 306.658 223.145C306.413 222.467 306.12 221.754 305.787 221.13C305.45 220.499 305.089 219.987 304.721 219.685C304.578 219.567 304.557 219.356 304.674 219.212Z" fill="#FBFDFF"/>
<path fill-rule="evenodd" clip-rule="evenodd" d="M350.286 272.945C350.417 272.463 350.572 272.013 350.714 271.64C350.833 271.328 350.943 271.068 351.024 270.886C351.064 270.795 351.097 270.723 351.12 270.674C351.132 270.649 351.141 270.63 351.147 270.617L351.154 270.603L351.156 270.599L351.157 270.597C351.157 270.597 351.157 270.597 351.308 270.671L351.458 270.745L351.458 270.746L351.456 270.749L351.45 270.763C351.444 270.775 351.436 270.793 351.425 270.816C351.402 270.864 351.37 270.933 351.331 271.022C351.252 271.2 351.144 271.454 351.028 271.76C350.795 272.372 350.53 273.183 350.399 273.99L350.066 273.958C350.065 273.958 350.065 273.958 350.065 273.958L350.065 273.957L350.065 273.949C350.065 273.941 350.065 273.929 350.065 273.913C350.064 273.88 350.062 273.829 350.058 273.761C350.048 273.624 350.027 273.417 349.979 273.139C349.885 272.583 349.686 271.745 349.27 270.629L349.584 270.512C349.975 271.559 350.179 272.372 350.286 272.945Z" fill="#006787"/>
<path d="M359.737 254.216C359.737 254.216 364.639 267.682 355.439 270.469C346.238 273.256 345.466 264.458 346.305 262.343C347.178 260.227 349.428 253.947 359.737 254.216Z" fill="#006787"/>
<path fill-rule="evenodd" clip-rule="evenodd" d="M355.985 258.333C356.049 258.265 356.155 258.261 356.223 258.325C356.29 258.388 356.294 258.494 356.231 258.562M356.108 258.447C355.985 258.333 355.985 258.333 355.985 258.333L355.985 258.333L355.984 258.334L355.982 258.337L355.972 258.347C355.963 258.357 355.95 258.371 355.934 258.389C355.901 258.426 355.852 258.48 355.791 258.551C355.668 258.693 355.492 258.901 355.279 259.17C354.852 259.707 354.278 260.485 353.682 261.449C352.491 263.374 351.21 266.051 350.871 269.04C350.86 269.132 350.926 269.216 351.019 269.226C351.111 269.236 351.194 269.17 351.204 269.078C351.536 266.157 352.791 263.528 353.967 261.625C354.555 260.675 355.122 259.908 355.542 259.379C355.751 259.114 355.924 258.909 356.044 258.771C356.105 258.702 356.151 258.649 356.183 258.614C356.199 258.597 356.211 258.583 356.219 258.575L356.228 258.565L356.23 258.563L356.231 258.562M355.985 258.333L356.108 258.447L355.985 258.333Z" fill="#FBFDFF"/>
<path d="M351.743 269.26C351.743 269.26 346.37 273.726 342.609 268.488C338.815 263.282 342.072 257.54 342.072 257.54C342.072 257.54 348.654 257.07 350.702 260.193C352.717 263.282 353.254 267.144 351.743 269.26Z" fill="#006787"/>
<path fill-rule="evenodd" clip-rule="evenodd" d="M346.839 263.286C346.893 263.21 346.998 263.193 347.073 263.247C347.523 263.568 347.897 264.18 348.206 264.882C348.518 265.591 348.776 266.42 348.981 267.207C349.186 267.995 349.339 268.745 349.44 269.298C349.491 269.575 349.529 269.802 349.555 269.961C349.567 270.04 349.577 270.102 349.583 270.145C349.587 270.166 349.589 270.182 349.591 270.193L349.592 270.206L349.593 270.21C349.593 270.21 349.593 270.21 349.427 270.234L349.261 270.257L349.26 270.254L349.258 270.242C349.257 270.231 349.254 270.215 349.251 270.195C349.245 270.153 349.236 270.092 349.223 270.014C349.198 269.858 349.16 269.633 349.11 269.359C349.009 268.811 348.858 268.069 348.656 267.292C348.453 266.513 348.201 265.703 347.899 265.017C347.594 264.325 347.25 263.786 346.878 263.52C346.802 263.466 346.785 263.361 346.839 263.286ZM349.45 270.4C349.359 270.413 349.274 270.349 349.261 270.257L349.427 270.234L349.593 270.21C349.606 270.302 349.542 270.387 349.45 270.4Z" fill="#FBFDFF"/>
<path d="M137.004 212.91H97.0449L99.7313 202.5H134.318L137.004 212.91Z" fill="#66C6E3"/>
<path d="M137.004 212.91H97.0449V275.371H137.004V212.91Z" fill="#009AC9"/>
<path d="M181.329 212.91H141.37L144.056 202.5H178.643L181.329 212.91Z" fill="#66C6E3"/>
<path d="M181.329 212.91H141.37V275.371H181.329V212.91Z" fill="#009AC9"/>
<path d="M93.0146 212.91H53.0552L55.7415 202.5H90.3282L93.0146 212.91Z" fill="#66C6E3"/>
<path d="M93.0146 212.91H53.0552V275.371H93.0146V212.91Z" fill="#009AC9"/>
<path d="M49.0263 212.91H9.06689L11.7532 202.5H46.34L49.0263 212.91Z" fill="#66C6E3"/>
<path d="M49.0263 212.91H9.06689V275.371H49.0263V212.91Z" fill="#009AC9"/>
<path d="M362.657 274.868H0V275.204H362.657V274.868Z" fill="#3A5862"/>
<path d="M113.498 208.109C113.498 208.109 115.614 198.807 109.704 196.355C103.794 193.904 90.1941 194.475 90.1941 194.475L80.1539 198.505C80.1539 198.505 71.3897 201.964 72.565 206.866C72.565 206.866 83.0082 212.072 94.0893 208.109C94.0558 208.109 105.439 213.045 113.498 208.109Z" fill="#F4F2F2"/>
<path d="M85.8956 172.782L77.8701 190.11V199.915C77.8701 199.915 90.3952 195.986 91.3019 181.58C92.2085 167.174 85.8956 172.782 85.8956 172.782Z" fill="#ECA513"/>
<path d="M85.8286 172.848C85.8286 172.848 92.8803 161.229 100.234 165.258C107.823 169.423 107.823 179.665 107.454 183.46C107.051 187.254 106.312 195.985 106.312 195.985C106.312 195.985 94.5592 201.896 89.2537 194.474C89.2537 194.474 91.1006 194.105 89.3209 186.986C87.5076 179.866 85.8286 178.926 85.8286 172.848Z" fill="#FFAB00"/>
<path d="M94.6602 163.379L96.037 166.367C96.037 166.367 94.3916 170.766 91.7724 168.349L89.9927 164.554L91.3358 160.726C91.3358 160.726 94.7274 161.666 94.6602 163.379Z" fill="#DD9778"/>
<path d="M83.881 153.74C83.881 153.74 83.075 158.307 82.0341 159.617C80.9931 160.96 84.0153 161.195 84.0153 161.195C84.0153 161.195 83.8138 165.964 84.9219 165.796C90.026 165.09 92.2422 164.452 93.2496 158.542C93.2496 158.542 96.8762 155.587 93.9212 152.8C93.9212 152.833 88.985 147.628 83.881 153.74Z" fill="#F1AA86"/>
<path d="M82.8744 155.05C81.7663 155.588 80.3896 155.151 79.8523 154.043C79.8523 154.043 79.8523 154.009 79.8187 153.976C78.3748 150.92 81.3634 147.394 85.7623 147.025C90.1947 146.622 95.8025 146.118 97.1792 150.886C98.5896 155.689 99.4626 160.289 94.6272 163.379L91.773 162.64C91.773 162.64 92.4781 161.465 92.6796 160.961C93.2169 159.45 93.0154 158.509 93.0154 158.509C93.0154 158.509 94.1907 158.375 94.0564 157.166C93.922 155.957 93.687 155.722 93.1497 155.689C92.3102 155.655 92.3774 156.259 92.3774 156.259C92.3774 156.259 90.6984 156.226 91.6722 154.278C91.6722 154.312 90.3962 151.357 82.8744 155.05Z" fill="#3D2D21"/>
<path d="M96.8094 149.878C98.701 149.878 100.234 148.345 100.234 146.453C100.234 144.561 98.701 143.028 96.8094 143.028C94.9177 143.028 93.3843 144.561 93.3843 146.453C93.3843 148.345 94.9177 149.878 96.8094 149.878Z" fill="#3D2D21"/>
<path d="M108.796 198.739C110.139 197.161 113.094 196.926 115.008 197.496C115.546 197.664 116.889 198.638 117.292 199.008C118.904 200.519 119.139 204.313 117.225 208.78C111.147 222.783 115.109 237.089 114.303 236.854C113.464 236.619 108.595 233.395 107.184 234.302C105.774 235.208 102.349 236.115 99.2261 233.731C96.1033 231.346 95.7339 235.242 95.7339 235.242C95.7339 235.242 99.159 210.123 108.796 198.739Z" fill="white"/>
<path d="M108.361 255.894C108.361 255.894 111.551 256.397 108.73 251.595C105.909 246.793 101.074 241.722 102.081 240.48C102.081 240.48 99.8316 239.036 97.5146 242.058L108.361 255.894Z" fill="black"/>
<path d="M100.603 231.616C100.603 231.616 102.013 240.851 101.342 240.985C100.67 241.119 101.644 245.216 106.983 250.657C110.643 254.384 108.393 250.186 106.479 246.358C105.338 244.075 104.834 242.127 104.767 241.623C104.028 236.955 108.595 231.549 108.931 230.474L100.603 231.616Z" fill="#F1AA86"/>
<path d="M95.8005 207.471C95.8005 207.471 96.7407 207.001 96.9086 205.926C97.0765 204.851 97.0093 203.844 97.0093 203.844C97.0093 203.844 104.43 200.116 110.743 197.598C117.056 195.079 119.642 194.945 121.086 190.848C121.086 190.848 121.556 188.699 119.608 186.818C119.608 186.818 102.08 194.743 98.4533 198.504C94.8267 202.266 94.8267 202.266 94.8267 202.266C94.8267 202.266 92.2411 203.307 91.8717 205.019C91.5023 206.732 91.4688 210.056 91.4688 210.056C91.4688 210.056 91.8045 211.064 92.0732 211.433C92.0732 211.433 92.2411 211.971 92.8455 211.87C93.0806 211.836 93.1477 212.306 93.3156 212.239C93.3156 212.239 94.0208 212.407 94.2223 211.836C94.2894 211.635 94.5916 211.769 94.6588 211.333C94.6252 211.4 95.7669 209.62 95.8005 207.471Z" fill="#EBAA8B"/>
<path d="M100.235 165.259C100.235 165.259 120.718 175.501 121.86 189.135C121.86 189.135 122.598 194.743 113.901 197.262C105.204 199.747 100.638 203.071 100.638 203.071L97.5146 198.571L113.901 188.329C113.868 188.363 91.7054 170.766 100.235 165.259Z" fill="#FFAB00"/>
<path d="M81.8327 202.265C80.7917 200.519 77.9711 199.814 76.0235 200.049C75.4862 200.116 74.0423 200.855 73.5722 201.157C71.7589 202.366 70.9194 205.993 72.0947 210.627C75.7212 225.134 69.5762 238.331 70.4157 238.231C71.2552 238.13 76.4936 235.813 77.7024 236.887C78.9113 237.962 82.1013 239.406 85.4928 237.593C88.8843 235.779 88.6157 239.608 88.6157 239.608C88.6157 239.608 89.3544 214.791 81.8327 202.265Z" fill="#F4F2F2"/>
<path d="M73.0672 257.575C73.0672 257.575 69.9108 257.575 73.403 253.377C76.8953 249.18 82.4023 245.083 81.63 243.706C81.63 243.706 84.0477 242.698 85.7938 245.956L73.0672 257.575Z" fill="black"/>
<path d="M84.4863 235.343C84.4863 235.343 81.632 244.04 82.27 244.275C82.908 244.51 81.2962 248.305 75.252 252.704C71.0881 255.726 73.9424 252.032 76.4272 248.641C77.9047 246.592 78.6771 244.812 78.845 244.342C80.3224 239.943 76.763 233.966 76.5951 232.891L84.4863 235.343Z" fill="#F1AA86"/>
<path d="M224.396 158.173H177.25C176.509 158.173 175.907 158.774 175.907 159.516V163.546C175.907 164.288 176.509 164.889 177.25 164.889H224.396C225.138 164.889 225.739 164.288 225.739 163.546V159.516C225.739 158.774 225.138 158.173 224.396 158.173Z" fill="#E7EBEC"/>
<path d="M244.198 171.606H157.429C156.687 171.606 156.086 172.207 156.086 172.949V176.979C156.086 177.721 156.687 178.322 157.429 178.322H244.198C244.94 178.322 245.541 177.721 245.541 176.979V172.949C245.541 172.207 244.94 171.606 244.198 171.606Z" fill="#E7EBEC"/>
<path d="M239.256 185.038H161.89C161.148 185.038 160.546 185.64 160.546 186.382V190.411C160.546 191.153 161.148 191.755 161.89 191.755H239.256C239.998 191.755 240.6 191.153 240.6 190.411V186.382C240.6 185.64 239.998 185.038 239.256 185.038Z" fill="#E7EBEC"/>
<path d="M80.3215 170.699C80.3215 170.699 80.4223 165.024 82.84 165.024C85.2577 165.024 86.1643 167.543 84.8547 168.852C83.5452 170.162 82.4706 170.901 82.4706 170.901C82.4706 170.901 82.1012 184.233 81.4968 191.822C81.2282 195.214 76.1241 195.718 75.2175 195.247C74.2773 194.777 72.2961 193.132 74.2101 187.121C78.3068 174.561 80.3215 170.699 80.3215 170.699Z" fill="#EBAA8B"/>
<path d="M77.8232 175.304L83.1287 176.143C83.1287 176.143 82.9273 194.68 81.8863 196.729C81.1475 198.206 77.6553 202.706 73.1892 199.113C68.7232 195.52 75.842 178.695 77.8232 175.304Z" fill="#ECA513"/>
<path d="M215.988 86.0913C215.988 86.0913 215.788 83.5224 218.649 82.8322C218.649 82.8322 219.684 80.2555 223.265 80.2632C226.846 80.2709 226.348 84.1205 229.407 83.4303C232.467 82.7402 234.652 83.9211 234.89 86.0913H215.988Z" fill="#FAF9F9"/>
<path d="M232.893 68.3C232.893 68.3 232.794 66.9733 234.274 66.6129C234.274 66.6129 234.811 65.2786 236.666 65.2786C238.522 65.2786 238.261 67.2724 239.849 66.9196C241.436 66.5592 242.563 67.1727 242.693 68.3H232.893Z" fill="#FAF9F9"/>
<path d="M167.805 89.2697C167.805 89.2697 167.958 87.2759 165.735 86.7391C165.735 86.7391 164.929 84.7375 162.146 84.7375C159.37 84.7452 159.753 87.736 157.376 87.1992C154.999 86.6624 153.304 87.5826 153.113 89.2697H167.805Z" fill="#FAF9F9"/>
<path d="M192.397 75.0736C192.397 75.0736 192.727 70.8175 187.98 69.6749C187.98 69.6749 186.255 65.4035 180.327 65.4111C174.4 65.4188 175.213 71.8068 170.136 70.6565C165.06 69.5062 161.433 71.477 161.042 75.0736H192.397Z" fill="#FAF9F9"/>
<path d="M207.422 66.306L207.284 67.8398H190.169L193.865 109.097H191.703L194.003 110.631H205.889L209.723 67.8398L207.422 66.306Z" fill="#005873"/>
<path d="M199.393 131.949C203.314 131.949 206.493 128.77 206.493 124.848C206.493 120.926 203.314 117.747 199.393 117.747C195.471 117.747 192.292 120.926 192.292 124.848C192.292 128.77 195.471 131.949 199.393 131.949Z" fill="#005873"/>
<path d="M197.899 130.232C201.596 130.232 204.593 127.234 204.593 123.537C204.593 119.84 201.596 116.842 197.899 116.842C194.202 116.842 191.205 119.84 191.205 123.537C191.205 127.234 194.202 130.232 197.899 130.232Z" fill="#009AC9"/>
<path d="M198.454 139.743C221.031 139.743 239.333 138.744 239.333 137.513C239.333 136.281 221.031 135.283 198.454 135.283C175.876 135.283 157.574 136.281 157.574 137.513C157.574 138.744 175.876 139.743 198.454 139.743Z" fill="#FAF9F9"/>
<path d="M223.475 141.23C227.307 141.23 230.412 141.008 230.412 140.734C230.412 140.461 227.307 140.239 223.475 140.239C219.644 140.239 216.538 140.461 216.538 140.734C216.538 141.008 219.644 141.23 223.475 141.23Z" fill="#FAF9F9"/>
<path d="M197.958 144.698C201.926 144.698 205.143 144.476 205.143 144.203C205.143 143.929 201.926 143.707 197.958 143.707C193.99 143.707 190.773 143.929 190.773 144.203C190.773 144.476 193.99 144.698 197.958 144.698Z" fill="#FAF9F9"/>
<path d="M178.88 142.221C187.637 142.221 194.736 141.777 194.736 141.23C194.736 140.682 187.637 140.239 178.88 140.239C170.123 140.239 163.023 140.682 163.023 141.23C163.023 141.777 170.123 142.221 178.88 142.221Z" fill="#FAF9F9"/>
<path d="M203.587 109.097H191.702L188.979 66.5361L207.421 66.306L203.587 109.097Z" fill="#009AC9"/>
<path d="M245.773 116.259C245.773 122.934 241.804 125.266 236.912 125.266C232.02 125.266 228.045 122.934 228.045 116.259C228.045 109.585 236.906 101.09 236.906 101.09C236.906 101.09 245.773 109.585 245.773 116.259Z" fill="#8EA9B4"/>
<path d="M236.589 124.24L236.681 118.657L240.455 111.745L236.692 117.782L236.735 115.266L239.338 110.265L236.746 114.601L236.816 110.087L239.608 106.107L236.832 109.374L236.875 101.09L236.589 112.058L236.611 111.604L233.776 107.268L236.568 112.474L236.303 117.517L236.292 117.382L233.025 112.819L236.281 117.858L236.249 118.489L236.244 118.5L236.249 118.549L235.579 131.352H236.47L236.578 124.737L239.829 119.715L236.589 124.24Z" fill="#487485"/>
<path d="M230.384 127.939C230.384 130.915 228.618 131.952 226.437 131.952C226.388 131.952 226.334 131.952 226.285 131.952C226.183 131.952 226.086 131.946 225.983 131.935C224.012 131.795 222.484 130.704 222.484 127.939C222.484 125.077 226.14 121.465 226.415 121.2C226.426 121.189 226.431 121.184 226.431 121.184C226.431 121.184 230.384 124.969 230.384 127.939Z" fill="#8DD5EB"/>
<path d="M226.29 131.498L227.732 129.479L226.285 131.72L226.279 131.952C226.177 131.952 226.08 131.947 225.977 131.936L226.134 128.96V128.939V128.933L226.15 128.652L224.703 126.411L226.161 128.447L226.166 128.507L226.285 126.26L225.043 123.938L226.301 125.866L226.425 121.206L226.404 124.883L227.64 123.425L226.398 125.196L226.366 127.211L227.521 125.277L226.355 127.502L226.339 128.62L228.018 125.931L226.333 129.009L226.29 131.498Z" fill="#487485"/>
<path d="M156.088 116.259C156.088 122.934 160.057 125.266 164.949 125.266C169.841 125.266 173.815 122.934 173.815 116.259C173.815 109.585 164.954 101.09 164.954 101.09C164.954 101.09 156.088 109.585 156.088 116.259Z" fill="#8EA9B4"/>
<path d="M165.272 124.24L165.18 118.657L161.405 111.745L165.169 117.782L165.126 115.266L162.523 110.265L165.115 114.601L165.045 110.087L162.253 106.107L165.029 109.374L164.985 101.09L165.272 112.058L165.25 111.604L168.085 107.268L165.293 112.474L165.558 117.517L165.569 117.382L168.835 112.819L165.579 117.858L165.612 118.489L165.617 118.5L165.612 118.549L166.281 131.352H165.39L165.282 124.737L162.032 119.715L165.272 124.24Z" fill="#487485"/>
<path d="M171.477 127.939C171.477 130.915 173.243 131.952 175.424 131.952C175.473 131.952 175.527 131.952 175.576 131.952C175.678 131.952 175.775 131.946 175.878 131.935C177.849 131.795 179.377 130.704 179.377 127.939C179.377 125.077 175.721 121.465 175.446 121.2C175.435 121.189 175.43 121.184 175.43 121.184C175.43 121.184 171.477 124.969 171.477 127.939Z" fill="#8DD5EB"/>
<path d="M149.646 128.163C149.646 131.138 151.412 132.175 153.593 132.175C153.642 132.175 153.696 132.175 153.744 132.175C153.847 132.175 153.944 132.17 154.047 132.159C156.018 132.019 157.546 130.928 157.546 128.163C157.546 125.301 153.89 121.688 153.615 121.424C153.604 121.413 153.599 121.407 153.599 121.407C153.599 121.407 149.646 125.193 149.646 128.163Z" fill="#8DD5EB"/>
<path d="M175.571 131.498L174.129 129.479L175.576 131.72L175.581 131.952C175.684 131.952 175.781 131.947 175.884 131.936L175.727 128.96V128.939V128.933L175.711 128.652L177.158 126.411L175.7 128.447L175.695 128.507L175.576 126.26L176.818 123.938L175.56 125.866L175.436 121.206L175.457 124.883L174.221 123.425L175.463 125.196L175.495 127.211L174.34 125.277L175.506 127.502L175.522 128.62L173.843 125.931L175.527 129.009L175.571 131.498Z" fill="#487485"/>
<path d="M153.74 131.722L152.298 129.702L153.746 131.943L153.751 132.176C153.854 132.176 153.951 132.17 154.053 132.159L153.897 129.184V129.162V129.157L153.881 128.876L155.328 126.635L153.87 128.671L153.864 128.73L153.746 126.484L154.987 124.162L153.729 126.09L153.605 121.43L153.627 125.107L152.39 123.649L153.632 125.42L153.665 127.434L152.509 125.501L153.675 127.726L153.692 128.844L152.012 126.155L153.697 129.233L153.74 131.722Z" fill="#487485"/>
</svg>
