<svg width="239" height="157" viewBox="0 0 239 157" fill="none" xmlns="http://www.w3.org/2000/svg">
<path d="M36.8808 145.008C36.8808 145.008 -15.2436 85.4184 4.45174 57.755C24.1471 30.0916 37.5858 18.0438 74.8616 26.7553C112.137 35.4667 177.921 3.42437 177.921 3.42437C177.921 3.42437 213.016 -10.5695 210.923 18.0207C208.83 46.6108 208.367 69.3857 220.088 79.1165C231.808 88.8474 245.313 102.1 235.09 119.083C224.89 136.042 199.885 151.635 199.885 151.635H47.103C47.103 151.635 40.3837 149.225 36.8808 145.008Z" fill="#F6FAF9"/>
<path d="M156.877 69.7676C156.877 69.7676 156.461 64.4306 162.436 62.9967C162.436 62.9967 164.599 57.6438 172.08 57.6597C179.561 57.6756 178.519 65.6732 184.911 64.2394C191.303 62.8056 195.868 65.259 196.365 69.7676H156.877Z" fill="#BACFCE"/>
<path d="M192.196 32.8097C192.196 32.8097 191.988 30.0536 195.08 29.3048C195.08 29.3048 196.201 26.5327 200.078 26.5327C203.954 26.5327 203.41 30.6749 206.726 29.942C210.042 29.1933 212.397 30.4678 212.669 32.8097H192.196Z" fill="#BACFCE"/>
<path d="M42.1812 74.3042C42.1812 74.3042 42.5015 70.162 37.856 69.0468C37.856 69.0468 36.1739 64.8887 30.3589 64.8887C24.56 64.9046 25.3609 71.1179 20.395 70.0027C15.429 68.8875 11.8888 70.7992 11.4883 74.3042H42.1812Z" fill="#BACFCE"/>
<path d="M121.637 40.2705C121.637 40.2705 122.326 31.4291 112.41 29.0555C112.41 29.0555 108.806 20.1823 96.4231 20.1983C84.0403 20.2142 85.7383 33.4841 75.1336 31.0946C64.5288 28.705 56.9517 32.7991 56.1348 40.2705H121.637Z" fill="#BACFCE"/>
<path d="M138.987 0.587402L138.698 3.77346H102.943L110.665 89.4785H106.147L110.953 92.6646H135.783L143.792 3.77346L138.987 0.587402Z" fill="#552400"/>
<path d="M122.211 136.95C130.403 136.95 137.045 130.345 137.045 122.198C137.045 114.051 130.403 107.447 122.211 107.447C114.018 107.447 107.377 114.051 107.377 122.198C107.377 130.345 114.018 136.95 122.211 136.95Z" fill="#552400"/>
<path d="M119.09 133.382C126.814 133.382 133.075 127.155 133.075 119.475C133.075 111.794 126.814 105.567 119.09 105.567C111.367 105.567 105.105 111.794 105.105 119.475C105.105 127.155 111.367 133.382 119.09 133.382Z" fill="#FF842B"/>
<path d="M124.276 156.039C171.735 156.039 210.208 153.968 210.208 151.412C210.208 148.857 171.735 146.785 124.276 146.785C76.8169 146.785 38.3438 148.857 38.3438 151.412C38.3438 153.968 76.8169 156.039 124.276 156.039Z" fill="#E5EEED"/>
<path d="M130.974 89.4785H106.144L100.457 1.06531L138.983 0.587402L130.974 89.4785Z" fill="#FF842B"/>
<path d="M219.102 104.356C219.102 118.221 210.811 123.067 200.591 123.067C190.371 123.067 182.068 118.221 182.068 104.356C182.068 90.4908 200.579 72.8452 200.579 72.8452C200.579 72.8452 219.102 90.4908 219.102 104.356Z" fill="#F7DE8D"/>
<path d="M199.916 120.936L200.108 109.337L207.993 94.9779L200.13 107.519L200.22 102.292L205.657 91.9042L200.243 100.912L200.39 91.534L206.222 83.2665L200.423 90.0533L200.514 72.8452L199.916 95.6285L199.961 94.6862L194.039 85.6784L199.871 96.4923L199.318 106.97L199.295 106.689L192.471 97.2102L199.273 107.676L199.205 108.989L199.194 109.011L199.205 109.112L197.806 135.71H199.668L199.893 121.968L206.684 111.535L199.916 120.936Z" fill="#002C28"/>
<path d="M186.952 128.62C186.952 134.801 183.264 136.955 178.706 136.955C178.605 136.955 178.492 136.955 178.391 136.955C178.176 136.955 177.973 136.944 177.759 136.921C173.642 136.629 170.449 134.363 170.449 128.62C170.449 122.674 178.086 115.17 178.661 114.62C178.684 114.598 178.695 114.586 178.695 114.586C178.695 114.586 186.952 122.45 186.952 128.62Z" fill="#80ABA7"/>
<path d="M178.4 136.012L181.412 131.817L178.389 136.472L178.378 136.955C178.164 136.955 177.96 136.944 177.746 136.921L178.073 130.74V130.695V130.684L178.107 130.101L175.084 125.445L178.13 129.674L178.141 129.798L178.389 125.131L175.795 120.308L178.423 124.312L178.682 114.631L178.637 122.271L181.22 119.242L178.626 122.921L178.558 127.106L180.972 123.09L178.536 127.711L178.502 130.033L182.01 124.447L178.491 130.841L178.4 136.012Z" fill="#002C28"/>
<path d="M31.7458 104.355C31.7458 118.221 40.0369 123.067 50.2569 123.067C60.4769 123.067 68.7793 118.221 68.7793 104.355C68.7793 90.4903 50.2682 72.8447 50.2682 72.8447C50.2682 72.8447 31.7458 90.4903 31.7458 104.355Z" fill="#80ABA7"/>
<path d="M50.9299 120.935L50.7382 109.336L42.8532 94.9774L50.7156 107.519L50.6254 102.291L45.1882 91.9037L50.6028 100.912L50.4562 91.5335L44.6242 83.266L50.4223 90.0528L50.3321 72.8447L50.9299 95.628L50.8848 94.6857L56.807 85.6779L50.9751 96.4918L51.5278 106.969L51.5504 106.689L58.375 97.2097L51.5729 107.676L51.6406 108.988L51.6519 109.011L51.6406 109.112L53.0394 135.709H51.1781L50.9525 121.967L44.1617 111.535L50.9299 120.935Z" fill="#002C28"/>
<path d="M63.8933 128.619C63.8933 134.8 67.582 136.954 72.1392 136.954C72.2408 136.954 72.3536 136.954 72.4551 136.954C72.6694 136.954 72.8725 136.943 73.0868 136.921C77.2041 136.629 80.3965 134.363 80.3965 128.619C80.3965 122.674 72.7597 115.169 72.1844 114.62C72.1618 114.597 72.1505 114.586 72.1505 114.586C72.1505 114.586 63.8933 122.45 63.8933 128.619Z" fill="#F7DE8D"/>
<path d="M18.2878 129.083C18.2878 135.264 21.9765 137.418 26.5338 137.418C26.6353 137.418 26.7481 137.418 26.8496 137.418C27.0639 137.418 27.267 137.407 27.4813 137.384C31.5987 137.093 34.791 134.827 34.791 129.083C34.791 123.138 27.1542 115.633 26.5789 115.083C26.5563 115.061 26.545 115.05 26.545 115.05C26.545 115.05 18.2878 122.913 18.2878 129.083Z" fill="#BACFCE"/>
<path d="M72.4453 136.012L69.4334 131.816L72.4566 136.472L72.4678 136.954C72.6822 136.954 72.8852 136.943 73.0995 136.921L72.7724 130.74V130.695V130.683L72.7386 130.1L75.7617 125.445L72.716 129.674L72.7047 129.797L72.4566 125.131L75.0511 120.307L72.4227 124.312L72.1633 114.631L72.2084 122.27L69.6252 119.241L72.2197 122.921L72.2874 127.105L69.8734 123.089L72.3099 127.711L72.3438 130.033L68.8356 124.446L72.355 130.841L72.4453 136.012Z" fill="#002C28"/>
<path d="M26.8399 136.478L23.828 132.282L26.8511 136.938L26.8624 137.42C27.0767 137.42 27.2798 137.409 27.4941 137.386L27.167 131.205V131.16V131.149L27.1331 130.566L30.1562 125.911L27.1106 130.14L27.0993 130.263L26.8511 125.596L29.4456 120.773L26.8173 124.778L26.5578 115.097L26.603 122.736L24.0198 119.707L26.6142 123.387L26.6819 127.571L24.2679 123.555L26.7045 128.177L26.7383 130.499L23.2302 124.912L26.7496 131.306L26.8399 136.478Z" fill="#002C28"/>
</svg>
