<svg width="308" height="267" viewBox="0 0 308 267" fill="none" xmlns="http://www.w3.org/2000/svg">
<path d="M175.131 265.016C78.5245 279.336 32.4422 208.795 32.4422 208.795L47.1737 173.799L69.7152 150.837C69.7152 150.837 10.0488 45.9313 67.7905 17.6443C125.532 -10.6428 179.202 1.99026 202.151 8.58142C223.179 14.6209 246.689 51.6081 232.253 80.3345C230.189 84.4408 231.429 89.8056 235.626 91.6784L279.825 111.403L302.052 145.552C325.666 205.147 271.737 250.735 175.131 265.016Z" fill="#E6F7FC" fill-opacity="0.7"/>
<path d="M72.9721 191.99L35.366 201.877L32.4048 208.86C32.4048 208.86 78.4872 279.401 175.094 265.081C225.988 257.548 265.037 241.306 287.172 218.943L72.9721 191.99Z" fill="#CEECF5"/>
<path d="M218.364 118.785C218.364 118.785 204.928 106.897 203.151 100.267C203.151 100.267 188.123 102.268 180.128 85.6329C180.165 85.6722 181.868 119.138 218.364 118.785Z" fill="white"/>
<path d="M47.9326 139.983C47.9326 139.983 37.4577 137.237 38.5681 118.797C39.6785 100.358 25.3171 103.889 15.4714 91.7263C5.62574 79.5641 9.69726 62.3015 22.6521 61.1245C35.607 59.9475 57.2602 67.2057 59.8511 78.9756C62.4421 90.7455 56.1497 97.8074 62.072 102.908C67.9942 108.008 70.5852 117.895 62.072 127.271C53.5588 136.648 63.1454 142.69 63.1454 142.69L47.9326 139.983Z" fill="#1C826A"/>
<path fill-rule="evenodd" clip-rule="evenodd" d="M23.8763 82.1795C24.0131 81.8885 24.3464 81.7702 24.6209 81.9152C35.2015 87.5028 40.6875 94.442 43.658 100.974C46.1943 106.552 46.8838 111.816 47.3746 115.564C47.4565 116.19 47.5329 116.773 47.6114 117.308C48.1506 120.985 49.7475 124.439 51.2279 126.992C51.9659 128.264 52.6697 129.303 53.1881 130.023C53.4472 130.383 53.6597 130.663 53.8066 130.852C53.88 130.946 53.937 131.018 53.9752 131.065C53.9847 131.077 53.9931 131.087 54.0002 131.096C54.0074 131.105 54.0134 131.112 54.0181 131.118L54.0284 131.131L54.0307 131.133L54.031 131.134C54.031 131.134 54.031 131.134 54.031 131.134C54.2335 131.378 54.2112 131.75 53.9811 131.964C53.7509 132.179 53.4001 132.155 53.1975 131.911L53.6143 131.522C53.1975 131.911 53.1976 131.911 53.1975 131.911L53.1969 131.911L53.1922 131.905L53.1791 131.889C53.1679 131.875 53.1516 131.855 53.1305 131.829C53.0885 131.777 53.0275 131.7 52.95 131.601C52.795 131.401 52.5737 131.11 52.3054 130.737C51.7689 129.992 51.0431 128.92 50.282 127.608C48.7643 124.992 47.0854 121.384 46.5142 117.489C46.4329 116.935 46.3545 116.338 46.2711 115.703C45.7784 111.953 45.1122 106.883 42.6577 101.485C39.7985 95.1978 34.4949 88.4447 24.1257 82.9686C23.8512 82.8237 23.7396 82.4704 23.8763 82.1795Z" fill="white"/>
<path fill-rule="evenodd" clip-rule="evenodd" d="M32.1137 73.496C32.3605 73.3032 32.7081 73.359 32.89 73.6207C35.5596 77.4609 36.6156 81.9573 37.0103 85.464C37.2082 87.2215 37.2412 88.7419 37.2247 89.8245C37.2164 90.3661 37.1957 90.799 37.177 91.0982C37.1676 91.2478 37.1586 91.3641 37.152 91.4438C37.1486 91.4837 37.1459 91.5145 37.1439 91.5358L37.1415 91.5605L37.1408 91.5674L37.1406 91.5695L37.1406 91.5702C37.1405 91.5705 37.1405 91.5707 36.5886 91.5069L37.1405 91.5707C37.1073 91.8938 36.8333 92.1272 36.5284 92.092C36.2237 92.0568 36.0035 91.7665 36.0366 91.4435L36.0371 91.4387L36.0389 91.4198C36.0405 91.4025 36.0429 91.3757 36.0459 91.34C36.0519 91.2684 36.0602 91.1607 36.069 91.0201C36.0866 90.7387 36.1065 90.3256 36.1144 89.8055C36.1303 88.7647 36.0985 87.2984 35.9077 85.6034C35.5252 82.2051 34.5084 77.9329 31.996 74.3189C31.8141 74.0572 31.8668 73.6888 32.1137 73.496Z" fill="white"/>
<path fill-rule="evenodd" clip-rule="evenodd" d="M50.9533 103.37C51.2543 103.308 51.5459 103.516 51.6047 103.835C52.4134 108.223 51.2984 111.171 49.9336 113.025C49.2578 113.942 48.5304 114.579 47.9702 114.987C47.6898 115.191 47.45 115.34 47.2774 115.438C47.1911 115.487 47.1214 115.524 47.0717 115.549C47.0469 115.562 47.027 115.572 47.0125 115.579C47.0053 115.582 46.9994 115.585 46.9949 115.587L46.9892 115.59L46.9872 115.591L46.9863 115.591C46.986 115.591 46.9857 115.591 46.7662 115.051" fill="white"/>
<path d="M65.3854 132.859C65.3854 132.859 67.2731 125.405 62.0911 123.639C56.8722 121.874 48.47 110.222 55.6507 98.1771C62.8314 86.1325 41.7335 78.3251 39.8828 72.0478C38.0321 65.7706 29.778 37.1304 59.056 18.1024C88.334 -0.925645 96.5141 17.7885 92.6276 32.344C88.7411 46.8995 90.962 50.862 100.586 54.0006C110.209 57.1393 121.313 62.2788 112.985 82.2484C104.657 102.218 81.3384 105.396 79.4877 114.42C77.637 123.443 71.6037 131.682 76.6376 134.625C81.6715 137.567 65.3854 132.859 65.3854 132.859Z" fill="#0F473A"/>
<path fill-rule="evenodd" clip-rule="evenodd" d="M65.9024 32.4812C65.6996 31.9333 65.6991 31.9335 65.6987 31.9337L65.6976 31.9342L65.6949 31.9353L65.6874 31.9385C65.6815 31.9411 65.6737 31.9445 65.6642 31.9487C65.6452 31.9573 65.6192 31.9692 65.5871 31.9848C65.5227 32.0159 65.4334 32.0617 65.3252 32.1233C65.1094 32.2462 64.8162 32.4339 64.4971 32.6974C63.86 33.2233 63.1045 34.0642 62.6704 35.3077C61.7881 37.835 62.323 41.7103 66.9994 47.4601C76.1065 58.6577 78.2932 77.618 71.5587 90.7755C68.0741 97.5835 66.5429 108.082 65.8718 116.799C65.5351 121.173 65.4133 125.126 65.3756 127.985C65.3567 129.415 65.3589 130.572 65.3658 131.373C65.3692 131.773 65.3739 132.084 65.3776 132.296C65.3795 132.401 65.3812 132.482 65.3824 132.537L65.3839 132.599L65.3844 132.62C65.3844 132.62 65.3844 132.62 65.9394 132.604L65.3844 132.62C65.3929 132.945 65.6483 133.201 65.9548 133.192C66.2614 133.183 66.5029 132.912 66.4944 132.588L65.9394 132.604C66.4944 132.588 66.4944 132.588 66.4944 132.588L66.4939 132.568L66.4925 132.509C66.4914 132.456 66.4897 132.377 66.4879 132.273C66.4841 132.065 66.4796 131.758 66.4761 131.362C66.4693 130.57 66.4671 129.422 66.4859 128.002C66.5233 125.161 66.6444 121.236 66.9786 116.895C67.6493 108.183 69.1717 97.9072 72.5347 91.3368C79.4953 77.7374 77.2404 58.2493 67.8405 46.6916C63.2634 41.0639 63.0395 37.6418 63.7118 35.7162C64.055 34.7332 64.6552 34.0587 65.1794 33.6259C65.4409 33.41 65.6798 33.2575 65.8509 33.16C65.9362 33.1114 66.004 33.0769 66.0484 33.0554C66.0707 33.0446 66.087 33.0371 66.0967 33.0328L66.1062 33.0286C66.1069 33.0283 66.1072 33.0282 66.107 33.0282L66.1062 33.0286C66.1058 33.0287 66.1052 33.029 65.9024 32.4812Z" fill="white"/>
<path fill-rule="evenodd" clip-rule="evenodd" d="M57.1138 61.6667C57.4123 61.5922 57.7112 61.7883 57.7814 62.1047C58.103 63.5537 59.3185 64.9838 61.1233 66.3315C62.9076 67.664 65.1694 68.8437 67.41 69.8268C69.6465 70.8081 71.8403 71.5842 73.4768 72.1152C74.2944 72.3806 74.9716 72.5844 75.4436 72.7216C75.6796 72.7902 75.8643 72.8422 75.9895 72.8769C76.0521 72.8942 76.0998 72.9072 76.1317 72.9159L76.1675 72.9255L76.1782 72.9284L76.1786 72.9285C76.1787 72.9285 76.1787 72.9285 76.1735 72.9505L76.1786 72.9285C76.4761 73.0073 76.657 73.3268 76.5826 73.6421C76.5083 73.9574 76.2068 74.1492 75.9093 74.0703L76.044 73.4994C75.9093 74.0703 75.9092 74.0703 75.909 74.0702L75.8954 74.0666L75.8568 74.0562C75.8231 74.0471 75.7733 74.0335 75.7087 74.0156C75.5795 73.9798 75.3905 73.9266 75.1499 73.8567C74.6689 73.7168 73.9811 73.5099 73.1517 73.2407C71.4939 72.7027 69.2646 71.9143 66.9853 70.9143C64.7103 69.9161 62.3638 68.6977 60.4838 67.2937C58.6241 65.905 57.1191 64.2601 56.7005 62.3743C56.6303 62.0579 56.8153 61.7411 57.1138 61.6667Z" fill="white"/>
<path fill-rule="evenodd" clip-rule="evenodd" d="M94.5205 71.9541C94.8238 72.0012 95.0337 72.3001 94.9892 72.6217C93.9294 80.281 88.3402 84.5329 83.1586 86.8541C80.5585 88.0188 78.0282 88.714 76.1504 89.1183C75.2106 89.3206 74.4318 89.4506 73.8865 89.5302C73.6137 89.5699 73.3991 89.5971 73.2518 89.6145C73.1781 89.6232 73.1213 89.6294 73.0823 89.6335C73.0628 89.6355 73.0478 89.637 73.0374 89.638L73.0253 89.6392L73.0209 89.6396C73.0205 89.6397 73.0203 89.6397 72.9718 89.0534L73.0203 89.6397C72.7148 89.6681 72.4455 89.4286 72.4187 89.1048C72.392 88.7811 72.6178 88.4957 72.9232 88.4672C72.9232 88.4672 72.9232 88.4672 72.9232 88.4672L72.9254 88.467L72.9344 88.4661C72.9427 88.4653 72.9556 88.464 72.9729 88.4622C73.0076 88.4585 73.0601 88.4528 73.1293 88.4447C73.2676 88.4284 73.4725 88.4025 73.7351 88.3642C74.2603 88.2875 75.0156 88.1616 75.9294 87.9649C77.7588 87.571 80.2138 86.8955 82.7263 85.77C87.7698 83.5107 92.9146 79.504 93.8906 72.4509C93.935 72.1294 94.2171 71.9069 94.5205 71.9541Z" fill="white"/>
<path d="M67.8277 129.703C67.8277 129.703 66.6803 117.776 75.5636 116.207C84.447 114.638 85.5574 105.222 86.6678 102.868C87.7782 100.514 94.8109 89.9209 101.103 97.3751C107.396 104.829 104.434 111.499 100.363 120.13C96.2914 128.762 85.2983 134.293 85.2983 134.293C85.2983 134.293 69.7524 139.276 67.8277 129.703Z" fill="#1C826A"/>
<path fill-rule="evenodd" clip-rule="evenodd" d="M99.2932 105.326C99.1565 105.035 98.8232 104.917 98.5487 105.062C87.9681 110.65 82.4821 117.589 79.5116 124.121C76.9752 129.698 76.2857 134.963 75.795 138.711C75.713 139.336 75.6367 139.92 75.5581 140.455C75.0189 144.132 73.4221 147.586 71.9417 150.139C71.2037 151.411 70.4999 152.45 69.9815 153.17C69.7223 153.53 69.5099 153.81 69.363 153.998C69.2896 154.093 69.2325 154.164 69.1943 154.212C69.1848 154.224 69.1765 154.234 69.1693 154.243C69.1621 154.252 69.1562 154.259 69.1514 154.265L69.1411 154.277L69.1389 154.28L69.1385 154.28C69.1386 154.28 69.1385 154.28 69.1385 154.28C68.9361 154.524 68.9583 154.896 69.1885 155.111C69.4186 155.326 69.7694 155.302 69.9721 155.058L69.5553 154.669C69.9721 155.058 69.9719 155.058 69.9721 155.058L69.9726 155.057L69.9774 155.052L69.9904 155.036C70.0017 155.022 70.018 155.002 70.039 154.976C70.0811 154.924 70.142 154.847 70.2195 154.747C70.3746 154.548 70.5958 154.257 70.8642 153.884C71.4006 153.139 72.1265 152.067 72.8876 150.755C74.4053 148.138 76.0842 144.531 76.6554 140.636C76.7367 140.081 76.8151 139.485 76.8985 138.85C77.3912 135.1 78.0573 130.029 80.5119 124.632C83.3711 118.345 88.6746 111.591 99.0439 106.115C99.3183 105.97 99.43 105.617 99.2932 105.326Z" fill="white"/>
<path fill-rule="evenodd" clip-rule="evenodd" d="M96.6572 111.073C96.8823 111.288 96.8946 111.659 96.6848 111.901C94.9693 113.887 92.6659 114.623 90.8455 114.874C89.9301 115.001 89.1198 115.007 88.5378 114.982C88.2463 114.97 88.0107 114.949 87.8463 114.931C87.764 114.923 87.6994 114.914 87.6544 114.908C87.6319 114.905 87.6143 114.903 87.6018 114.901L87.587 114.899L87.5825 114.898L87.5809 114.898L87.5804 114.898C87.5801 114.898 87.5799 114.898 87.6779 114.317L87.5799 114.898C87.2771 114.849 87.0754 114.55 87.1295 114.23C87.1836 113.909 87.4728 113.689 87.7755 113.737L87.7756 113.737C87.7757 113.737 87.7759 113.737 87.776 113.737L87.7768 113.737L87.7854 113.739C87.7936 113.74 87.8069 113.742 87.8249 113.744C87.8609 113.749 87.916 113.756 87.9883 113.764C88.133 113.779 88.3461 113.798 88.6129 113.809C89.1474 113.832 89.892 113.826 90.7298 113.711C92.4156 113.478 94.412 112.812 95.8699 111.124C96.0797 110.882 96.4322 110.859 96.6572 111.073Z" fill="white"/>
<path fill-rule="evenodd" clip-rule="evenodd" d="M79.9751 117.175C80.2001 117.408 80.2083 117.776 79.9934 117.996C78.6877 119.335 78.523 121.266 78.7332 122.968C78.837 123.809 79.0293 124.564 79.1965 125.109C79.2798 125.381 79.3563 125.599 79.4113 125.748C79.4388 125.822 79.4608 125.879 79.4756 125.916C79.483 125.934 79.4886 125.948 79.4921 125.957L79.4959 125.966L79.4963 125.967C79.6226 126.266 79.4947 126.602 79.2105 126.717C78.9261 126.833 78.5931 126.684 78.4666 126.385L78.9814 126.176C78.4666 126.385 78.4665 126.385 78.4664 126.385L78.4655 126.382L78.4636 126.378L78.4574 126.363C78.4522 126.35 78.4449 126.332 78.4358 126.309C78.4176 126.264 78.3919 126.198 78.3608 126.114C78.2986 125.946 78.2143 125.705 78.1232 125.408C77.9414 124.815 77.7301 123.988 77.6153 123.058C77.388 121.218 77.5255 118.849 79.1783 117.153C79.3933 116.933 79.75 116.943 79.9751 117.175Z" fill="white"/>
<path fill-rule="evenodd" clip-rule="evenodd" d="M80.9617 123.188C80.7544 122.951 80.406 122.936 80.1809 123.154C79.9545 123.373 79.9385 123.745 80.1453 123.985L80.5553 123.589C80.1453 123.985 80.1456 123.986 80.1459 123.986L80.1467 123.987L80.1483 123.989L80.1522 123.993C80.1552 123.997 80.1587 124.001 80.1629 124.005C80.1712 124.014 80.1819 124.026 80.1952 124.04C80.2217 124.067 80.2583 124.103 80.3054 124.146C80.3996 124.232 80.5358 124.346 80.7176 124.471C81.0817 124.722 81.6263 125.019 82.3782 125.24C83.8865 125.682 86.1903 125.806 89.4949 124.699C89.7873 124.601 89.9494 124.27 89.857 123.961C89.7646 123.651 89.4526 123.479 89.1602 123.577C86.0244 124.628 83.9421 124.477 82.6743 124.105C82.0382 123.919 81.5973 123.674 81.323 123.484C81.1855 123.39 81.0892 123.309 81.0307 123.255C81.0015 123.228 80.9817 123.208 80.9709 123.197C80.9658 123.192 80.9628 123.189 80.9617 123.188Z" fill="white"/>
<path d="M30.4058 134.546L113.687 123.561L112.947 158.086L30.4058 163.657V134.546Z" fill="#6B8E9C"/>
<path d="M113.687 123.561L177.721 136.9L165.136 167.188L112.947 158.086L113.687 123.561Z" fill="#25596E"/>
<path d="M94.8106 141.715L106.655 130.73L113.688 140.146L104.249 143.716L94.8106 141.715Z" fill="white"/>
<path d="M60.3878 144.854L69.6412 133.477L80.3383 144.854L82.8182 133.477L105.915 140.931L124.089 130.73L133.305 149.17L98.8822 153.093L65.1996 149.562L60.3878 144.854Z" fill="#F0B400"/>
<path d="M74.0821 147.179L82.2252 139.333L92.5891 150.318C92.5891 150.318 74.4522 149.141 74.0821 147.179Z" fill="white"/>
<path d="M93.6998 149.147V228.791C93.6998 228.791 156.253 224.867 177.721 204.074C177.721 204.074 173.65 146.401 177.721 137.378C177.721 137.378 133.86 148.167 93.6998 149.147Z" fill="#B1C3CB"/>
<path d="M93.6998 149.152C93.6998 149.152 48.5428 146.013 29.2956 136.205C29.2956 136.205 18.1914 186.227 29.2956 207.295C29.2956 207.295 72.6019 228.795 93.6998 228.795V149.152Z" fill="#6B8289"/>
<path d="M93.6999 149.157C93.6999 149.157 50.0235 143.272 30.4061 134.641C30.4061 134.641 11.1589 154.257 0.424866 157.003C0.424866 157.003 32.9971 180.151 73.7124 178.974C73.7124 178.974 93.3298 160.142 93.6999 149.157Z" fill="#C2D1D6"/>
<path d="M94.4405 149.542C94.4405 149.542 109.986 181.713 127.383 184.851C127.383 184.851 196.229 174.258 202.151 164.058C202.151 164.058 185.495 149.934 177.722 136.987C177.722 136.987 112.762 150.522 94.4405 149.542Z" fill="#C2D1D6"/>
<path d="M110.69 149.369C110.69 149.369 107.766 153.096 106.285 152.704C106.285 152.704 126.458 162.669 127.309 172.203C127.309 172.203 149.814 172.007 148.592 165.886C147.371 159.766 130.344 151.919 130.344 151.919L110.69 149.369Z" fill="#B1C3CB"/>
<path d="M105.544 148.373L121.016 144.96C125.05 144.058 129.233 144.646 132.934 146.608C139.449 150.021 149.109 155.749 150.331 160.143C150.331 160.143 151.071 167.205 126.272 165.636C126.272 165.636 129.233 158.927 105.544 148.373Z" fill="white"/>
<path d="M129.677 141.899L153.329 134.641L159.325 140.643L131.528 145.587L129.677 141.899Z" fill="#D5E1E6"/>
<path d="M135.97 144.841L137.488 134.641L152.553 138.171L151.442 142.095L135.97 144.841Z" fill="white"/>
<path opacity="0.2" d="M98.5128 209.324C98.5128 209.324 98.8829 231.451 114.799 236.944L147.371 231.451L140.524 226.743L98.5128 209.324Z" fill="#1F4B5C"/>
<path d="M98.5128 208.413C98.5128 208.413 102.214 228.03 116.65 233.522L156.625 228.03C156.625 228.03 131.085 223.675 127.569 213.121C127.569 213.121 112.023 214.102 98.5128 208.413Z" fill="white"/>
<path opacity="0.2" d="M196.895 213.877C196.895 213.877 223.989 233.023 245.457 214.583C245.457 214.583 238.795 211.837 246.938 201.244C246.938 201.244 235.093 214.583 219.918 213.014C204.742 211.444 196.895 213.877 196.895 213.877Z" fill="#092E3B"/>
<path d="M187.344 208.31C187.344 208.31 208.442 205.564 214.364 200.071C214.364 200.071 228.43 212.626 246.937 201.248C246.937 201.248 224.358 234.204 187.344 208.31Z" fill="white"/>
<path d="M271.81 29.2475C268.997 30.4245 266.628 32.5431 264.962 35.1717C259.262 44.0776 243.124 72.2469 259.188 82.4083C278.399 94.5313 306.677 89.5487 297.905 58.28C290.539 32.0723 280.804 25.5203 271.81 29.2475Z" fill="#E6F7FC" fill-opacity="0.6"/>
<path d="M306.493 160.906C300.015 155.099 293.02 150.744 293.02 150.744L260.855 140.897C260.855 140.897 255.081 147.88 252.86 159.258C250.639 170.636 243.236 176.795 231.947 176.05C220.658 175.344 215.328 174.441 215.328 174.441C215.328 174.441 210.664 182.366 213.625 183.151C216.586 183.936 243.088 193.901 255.747 187.741C268.406 181.582 277.807 168.949 279.214 162.907C279.214 162.907 301.496 172.793 303.828 189.742C303.939 190.644 304.087 191.547 304.198 192.41C307.64 182.602 308.492 172.048 306.493 160.906Z" fill="#004E66"/>
<path d="M279.399 110.919C270.664 116.49 261.744 125.043 260.892 137.009C259.19 160.863 286.284 156.861 286.284 156.861C286.284 156.861 292.539 149.642 302.052 145.562C295.019 127.868 287.172 117.353 279.399 110.919Z" fill="#009AC9"/>
<path d="M214.44 176.219H210.813V180.966H212.627L214.44 176.219Z" fill="#F3C2A7"/>
<path d="M210.812 176.212C210.812 176.212 211.33 174.799 210.812 174.917C210.294 175.035 205.482 173.073 205.482 174.25C205.482 175.427 204.742 187.589 204.742 187.589C204.742 187.589 206.592 192.376 207.888 189.394C209.183 186.412 210.664 183.431 211.034 182.96C211.441 182.45 210.812 176.212 210.812 176.212Z" fill="#004E66"/>
</svg>
