<svg width="239" height="156" viewBox="0 0 239 156" fill="none" xmlns="http://www.w3.org/2000/svg">
<path opacity="0.5" d="M36.8808 145.008C36.8808 145.008 -15.2436 85.4184 4.45174 57.755C24.1471 30.0916 37.5858 18.0438 74.8616 26.7553C112.137 35.4667 177.921 3.42437 177.921 3.42437C177.921 3.42437 213.016 -10.5695 210.923 18.0207C208.83 46.6108 208.367 69.3857 220.088 79.1165C231.808 88.8474 245.313 102.1 235.09 119.083C224.89 136.042 199.885 151.635 199.885 151.635H47.103C47.103 151.635 40.3837 149.225 36.8808 145.008Z" fill="#E6F7FC"/>
<path d="M156.877 69.728C156.877 69.728 156.461 64.391 162.436 62.9572C162.436 62.9572 164.599 57.6042 172.08 57.6202C179.561 57.6361 178.519 65.6337 184.911 64.1998C191.303 62.766 195.868 65.2194 196.365 69.728H156.877Z" fill="#CEECF5"/>
<path d="M192.196 32.7701C192.196 32.7701 191.988 30.014 195.08 29.2652C195.08 29.2652 196.201 26.4932 200.078 26.4932C203.954 26.4932 203.41 30.6353 206.726 29.9025C210.042 29.1537 212.397 30.4282 212.669 32.7701H192.196Z" fill="#CEECF5"/>
<path d="M42.1812 74.2646C42.1812 74.2646 42.5015 70.1224 37.856 69.0072C37.856 69.0072 36.1739 64.8491 30.3589 64.8491C24.56 64.8651 25.3609 71.0783 20.395 69.9631C15.429 68.8479 11.8888 70.7597 11.4883 74.2646H42.1812Z" fill="#CEECF5"/>
<path d="M121.637 40.2309C121.637 40.2309 122.326 31.3896 112.41 29.016C112.41 29.016 108.806 20.1428 96.4231 20.1587C84.0403 20.1746 85.7383 33.4446 75.1336 31.055C64.5288 28.6655 56.9517 32.7596 56.1348 40.2309H121.637Z" fill="#CEECF5"/>
<path d="M138.987 0.547852L138.698 3.73391H102.943L110.665 89.439H106.147L110.953 92.625H135.783L143.792 3.73391L138.987 0.547852Z" fill="#004E66"/>
<path d="M122.211 136.91C130.403 136.91 137.045 130.306 137.045 122.159C137.045 114.012 130.403 107.407 122.211 107.407C114.018 107.407 107.377 114.012 107.377 122.159C107.377 130.306 114.018 136.91 122.211 136.91Z" fill="#004E66"/>
<path d="M119.09 133.342C126.814 133.342 133.075 127.116 133.075 119.435C133.075 111.754 126.814 105.528 119.09 105.528C111.367 105.528 105.105 111.754 105.105 119.435C105.105 127.116 111.367 133.342 119.09 133.342Z" fill="#0080A7"/>
<path d="M124.276 156C171.735 156 210.208 153.928 210.208 151.373C210.208 148.817 171.735 146.746 124.276 146.746C76.8169 146.746 38.3438 148.817 38.3438 151.373C38.3438 153.928 76.8169 156 124.276 156Z" fill="#CEECF5"/>
<path d="M130.974 89.439H106.144L100.457 1.02576L138.983 0.547852L130.974 89.439Z" fill="#0080A7"/>
<path d="M219.102 104.316C219.102 118.182 210.811 123.028 200.591 123.028C190.371 123.028 182.068 118.182 182.068 104.316C182.068 90.4512 200.579 72.8057 200.579 72.8057C200.579 72.8057 219.102 90.4512 219.102 104.316Z" fill="#F0B400"/>
<path d="M199.916 120.896L200.108 109.297L207.993 94.9383L200.13 107.48L200.22 102.252L205.657 91.8647L200.243 100.873L200.39 91.4945L206.222 83.227L200.423 90.0137L200.514 72.8057L199.916 95.589L199.961 94.6467L194.039 85.6388L199.871 96.4527L199.318 106.93L199.295 106.65L192.471 97.1707L199.273 107.637L199.205 108.949L199.194 108.972L199.205 109.073L197.806 135.67H199.668L199.893 121.928L206.684 111.496L199.916 120.896Z" fill="#004E66"/>
<path d="M186.952 128.58C186.952 134.761 183.264 136.915 178.706 136.915C178.605 136.915 178.492 136.915 178.391 136.915C178.176 136.915 177.973 136.904 177.759 136.882C173.642 136.59 170.449 134.324 170.449 128.58C170.449 122.635 178.086 115.13 178.661 114.581C178.684 114.558 178.695 114.547 178.695 114.547C178.695 114.547 186.952 122.411 186.952 128.58Z" fill="#8DD5EB"/>
<path d="M178.4 135.973L181.412 131.777L178.389 136.433L178.378 136.915C178.164 136.915 177.96 136.904 177.746 136.882L178.073 130.701V130.656V130.644L178.107 130.061L175.084 125.406L178.13 129.635L178.141 129.758L178.389 125.092L175.795 120.268L178.423 124.273L178.682 114.592L178.637 122.231L181.22 119.202L178.626 122.882L178.558 127.066L180.972 123.05L178.536 127.672L178.502 129.994L182.01 124.407L178.491 130.801L178.4 135.973Z" fill="#004E66"/>
<path d="M31.7458 104.316C31.7458 118.181 40.0369 123.027 50.2569 123.027C60.4769 123.027 68.7793 118.181 68.7793 104.316C68.7793 90.4508 50.2682 72.8052 50.2682 72.8052C50.2682 72.8052 31.7458 90.4508 31.7458 104.316Z" fill="#8DD5EB"/>
<path d="M50.9299 120.896L50.7382 109.297L42.8532 94.9378L50.7156 107.479L50.6254 102.252L45.1882 91.8642L50.6028 100.872L50.4562 91.494L44.6242 83.2265L50.4223 90.0132L50.3321 72.8052L50.9299 95.5885L50.8848 94.6462L56.807 85.6383L50.9751 96.4522L51.5278 106.93L51.5504 106.649L58.375 97.1702L51.5729 107.636L51.6406 108.949L51.6519 108.971L51.6406 109.072L53.0394 135.67H51.1781L50.9525 121.928L44.1617 111.495L50.9299 120.896Z" fill="#004E66"/>
<path d="M63.8933 128.58C63.8933 134.761 67.582 136.915 72.1392 136.915C72.2408 136.915 72.3536 136.915 72.4551 136.915C72.6694 136.915 72.8725 136.903 73.0868 136.881C77.2041 136.589 80.3965 134.323 80.3965 128.58C80.3965 122.634 72.7597 115.13 72.1844 114.58C72.1618 114.558 72.1505 114.546 72.1505 114.546C72.1505 114.546 63.8933 122.41 63.8933 128.58Z" fill="#F0B400"/>
<path d="M18.2878 129.044C18.2878 135.225 21.9765 137.379 26.5338 137.379C26.6353 137.379 26.7481 137.379 26.8496 137.379C27.0639 137.379 27.267 137.367 27.4813 137.345C31.5987 137.053 34.791 134.787 34.791 129.044C34.791 123.098 27.1542 115.594 26.5789 115.044C26.5563 115.021 26.545 115.01 26.545 115.01C26.545 115.01 18.2878 122.874 18.2878 129.044Z" fill="#AFE0F0"/>
<path d="M72.4453 135.972L69.4334 131.777L72.4566 136.432L72.4678 136.915C72.6822 136.915 72.8852 136.903 73.0995 136.881L72.7724 130.7V130.655V130.644L72.7386 130.061L75.7617 125.405L72.716 129.634L72.7047 129.758L72.4566 125.091L75.0511 120.267L72.4227 124.272L72.1633 114.591L72.2084 122.231L69.6252 119.202L72.2197 122.881L72.2874 127.065L69.8734 123.049L72.3099 127.671L72.3438 129.993L68.8356 124.407L72.355 130.801L72.4453 135.972Z" fill="#004E66"/>
<path d="M26.8399 136.438L23.828 132.243L26.8511 136.898L26.8624 137.38C27.0767 137.38 27.2798 137.369 27.4941 137.347L27.167 131.166V131.121V131.11L27.1331 130.526L30.1562 125.871L27.1106 130.1L27.0993 130.224L26.8511 125.557L29.4456 120.733L26.8173 124.738L26.5578 115.057L26.603 122.696L24.0198 119.668L26.6142 123.347L26.6819 127.531L24.2679 123.515L26.7045 128.137L26.7383 130.459L23.2302 124.873L26.7496 131.267L26.8399 136.438Z" fill="#004E66"/>
</svg>
