<svg width="424" height="304" viewBox="0 0 424 304" fill="none" xmlns="http://www.w3.org/2000/svg">
<g clip-path="url(#clip0_22122_16265)">
<path d="M372.997 302.949C394 283.99 394.482 220.349 382.989 201.625C363.548 169.949 353.188 176.033 336.169 157.418C323.01 143.022 340.018 101.607 299.857 83.3682C252.175 61.7137 209.062 85.1437 187.336 96.2288C165.611 107.314 146.996 107.271 133.971 104.091C112.235 98.7845 80.3809 107.821 52.5078 147.502C31.5176 177.385 25.5436 227.11 46.7316 281.2C52.422 295.729 64.5249 303.5 64.5249 303.5L372.999 302.952L372.997 302.949Z" fill="#E6F7FC"/>
<path d="M89.2523 47.158C81.8118 57.9503 72.6841 73.6433 83.2968 85.7173C93.7051 97.5614 108.347 85.6825 115.842 76.9654C121.396 70.5091 126.23 63.3792 130.068 55.7673C132.559 50.8259 135.574 43.0439 130.949 38.3274C126.976 34.2784 120.671 36.1281 116.963 39.4811C111.586 44.3484 106.805 52.2026 104.332 58.9688C102.088 65.1106 101.982 72.6767 106.276 78.0119C110.202 82.8918 116.841 84.1055 122.718 82.8954C130.044 81.3891 138.059 76.0877 143.085 70.6106C146.141 67.2825 147.592 61.8709 142.771 59.2626C137.064 56.1753 131.762 60.8649 128.852 65.4165C124.928 71.5624 120.484 79.1908 121.23 86.7842C121.796 92.5514 125.441 97.97 131.466 98.8358C137.371 99.6849 143.162 96.2844 147.801 93.0514C151.64 90.3729 157.707 85.6615 155.347 80.1998C152.97 74.693 145.308 76.0656 142.205 79.938C137.399 85.9304 138.032 95.8684 139.647 102.899C141.559 111.207 146.011 118.673 152.292 124.405C153.089 125.133 154.265 123.929 153.463 123.193C145.291 115.735 140.363 105.152 140.281 94.0494C140.239 88.7288 141.075 79.7925 147.514 78.3572C150.954 77.5926 155.021 79.8109 153.983 83.9004C153.253 86.7746 150.483 89.003 148.219 90.6877C144.936 93.1308 141.257 95.5029 137.289 96.6434C130.443 98.6136 124.31 94.9662 123.056 87.7829C122.033 81.9205 124.678 76.3031 127.401 71.3032C129.991 66.5527 135.014 56.84 141.95 60.7335C149.721 65.0933 137.582 73.1959 134.29 75.4918C129.454 78.8593 123.986 81.8391 117.911 81.6531C111.482 81.4591 106.371 77.5873 104.92 71.2254C103.458 64.8286 105.803 58.6087 109.01 53.1577C111.513 48.9061 114.457 43.9375 118.173 40.6534C120.792 38.3393 124.802 36.6067 128.222 38.3815C132.316 40.5054 131.967 45.6638 130.889 49.3983C127.868 59.854 119.968 69.9905 112.764 77.8994C105.258 86.1385 90.569 95.6196 82.7182 82.0049C75.9296 70.2311 84.0659 57.6312 90.721 47.98C91.3354 47.0874 89.8599 46.2695 89.2502 47.1546L89.2523 47.158Z" fill="#AFE0F0"/>
<path d="M346.274 302.307L304.051 177.559H293.658L335.88 302.307H346.274Z" fill="#8EA9B4"/>
<path d="M178.746 223.478L178.104 224.207L222.807 263.553L223.449 262.823L178.746 223.478Z" fill="#132E39"/>
<path d="M211.676 228.303L169.404 253.635L169.903 254.469L212.176 229.137L211.676 228.303Z" fill="#132E39"/>
<path d="M217.394 227.526H209.599L231.11 295.483H238.905L217.394 227.526Z" fill="#132E39"/>
<path d="M179.121 208.426L151.565 295.484H159.36L186.916 208.426H179.121Z" fill="#132E39"/>
<path d="M135.409 303.611L163.889 213.623H156.093L127.614 303.611H135.409Z" fill="#132E39"/>
<path d="M214.134 303.611L185.655 213.623H177.859L206.332 303.611H214.134Z" fill="#132E39"/>
<path d="M155.114 223.482L154.459 224.199L195.025 261.232L195.68 260.514L155.114 223.482Z" fill="#132E39"/>
<path d="M186.325 229.047L145.777 253.674L146.285 254.511L186.833 229.884L186.325 229.047Z" fill="#132E39"/>
<path d="M234.253 217.366C234.253 217.366 201.438 216.104 196.393 203.904C191.348 191.703 188.818 159.727 172.835 158.465C156.852 157.204 146.334 156.363 146.334 167.302C146.334 178.241 139.179 214.002 161.056 219.475C181.595 224.61 209.178 234.563 229.883 223.928C232.364 222.652 233.977 220.143 234.253 217.372V217.366Z" fill="#002733"/>
<path d="M230.393 279.065C229.8 283.469 229.407 286.867 229.207 288.68C229.104 289.638 229.055 290.148 229.055 290.148L235.086 292.527L235.755 290.886L238.939 283.159C236.099 281.787 233.239 280.443 230.399 279.065H230.393Z" fill="#F9B384"/>
<path d="M235.81 290.872C235.81 290.872 231.22 292.079 229.235 288.639L228.084 290.08C227.077 291.334 226.292 292.761 225.775 294.284L225.616 294.746L245.28 301.425C245.763 300.005 245.301 298.441 244.129 297.503L235.803 290.872H235.81Z" fill="#0080A7"/>
<path d="M205.966 175.801L256.935 188.263C260.802 189.208 264.393 191.172 267.081 194.115C270.168 197.5 272.657 202.635 270.265 209.604C265.482 223.548 238.994 286.433 238.994 286.433L228.945 282.483C228.945 282.483 236.065 226.809 245.225 214.512C245.225 214.512 207.048 216.421 196.358 210.514C185.668 204.607 205.966 175.801 205.966 175.801Z" fill="#123054"/>
<path d="M278.439 278.885C275.558 280.76 272.615 282.517 269.617 284.158C273.739 288.48 276.978 291.726 278.515 293.257C279.156 293.898 279.508 294.242 279.508 294.242L285.091 290.948L284.146 289.231L278.439 278.885Z" fill="#F9B384"/>
<path d="M284.002 289.272C284.002 289.272 282.251 293.683 278.309 293.242L278.784 295.021C279.198 296.578 279.88 298.047 280.804 299.37L281.086 299.77L298.124 287.893C297.269 286.666 295.732 286.108 294.285 286.494L284.009 289.265L284.002 289.272Z" fill="#0080A7"/>
<path d="M169.899 168.426C169.899 168.426 160.029 179.999 161.132 188.526C162.228 197.052 164.543 205.214 181.106 212.527C197.675 219.834 229.587 233.606 229.587 233.606C229.587 233.606 256.384 276.487 274.173 289.397L281.727 283.793C281.727 283.793 251.029 225.32 247.01 220.447C242.992 215.574 212.17 192.427 212.17 192.427L206.325 168.674L169.906 168.433L169.899 168.426Z" fill="#123054"/>
<path d="M192.919 120.307C192.919 120.307 202.582 127.172 203.926 129.481C205.263 131.797 210.825 151.614 210.825 151.614L225.933 123.229L233.729 126.152C233.729 126.152 219.475 164.89 217.649 167.33C215.822 169.764 206.201 172.569 200.108 166.11C194.015 159.652 192.919 120.307 192.919 120.307Z" fill="#0080A7"/>
<path d="M226.718 121.203L226.67 121.32C226.621 121.431 226.566 121.548 226.511 121.665C228.386 122.665 230.185 123.933 231.846 124.87C232.301 125.132 232.763 125.373 233.231 125.615C233.376 125.118 233.521 124.615 233.659 124.112C233.659 124.105 233.659 124.091 233.665 124.085C235.292 122.334 238.759 118.501 238.332 118.019C237.78 117.385 234.658 119.604 234.658 119.604C234.658 119.604 239.255 115.006 238.339 114.29C237.429 113.573 233.824 117.571 233.824 117.571C233.824 117.571 236.919 111.56 235.85 111.436C234.775 111.319 232.232 115.951 232.232 115.951C232.232 115.951 234.134 109.871 233.169 109.809C232.204 109.74 229.365 117.081 229.365 117.081C229.365 117.081 227.6 114.041 226.642 114.524C225.898 114.896 226.477 119.204 226.773 121.127C226.752 121.155 226.739 121.189 226.718 121.217V121.203Z" fill="#F9B384"/>
<path d="M234.108 124.807C234.328 124.904 234.452 125.138 234.418 125.372C234.273 126.282 233.88 128.474 233.343 129.115C232.743 129.825 228.518 127.468 227.456 126.861C227.305 126.772 227.208 126.62 227.188 126.448L227.05 124.814C227.05 124.814 225.995 126.358 225.747 126.358C225.602 126.358 225.086 126.117 224.693 125.917C224.424 125.786 224.32 125.455 224.465 125.186L226.285 121.836C226.416 121.588 226.719 121.492 226.974 121.602L234.115 124.807H234.108Z" fill="#005873"/>
<path d="M192.444 90.5765C192.802 90.3973 193.147 90.3214 193.519 90.287C193.891 90.2594 194.27 90.3077 194.635 90.4248C195.001 90.5351 195.352 90.7281 195.635 90.997C195.931 91.2451 196.117 91.5898 196.248 91.9206C196.29 92.0309 196.248 92.155 196.131 92.1963C196.055 92.2308 195.966 92.2101 195.904 92.155L195.883 92.1343C195.649 91.9206 195.442 91.7138 195.187 91.5897C194.932 91.4657 194.684 91.3554 194.408 91.314C194.132 91.2727 193.85 91.2658 193.56 91.2727C193.278 91.2727 192.961 91.3002 192.685 91.314H192.63C192.416 91.3278 192.23 91.1555 192.223 90.9418C192.223 90.7833 192.306 90.6454 192.437 90.5765H192.444Z" fill="#002733"/>
<path d="M146.754 163.676C146.754 163.676 151.868 198.761 158.933 200.464C165.997 202.166 180.127 200.222 185.73 204.365C191.334 208.508 209.605 228.67 209.605 228.67C209.605 228.67 166.728 227.753 149.918 214.353C133.107 200.953 146.747 163.676 146.747 163.676H146.754Z" fill="#2E2E2E"/>
<path d="M296.911 122.973H231.861C231.457 122.973 231.13 123.3 231.13 123.703V165.854C231.13 166.257 231.457 166.585 231.861 166.585H296.911C297.315 166.585 297.642 166.257 297.642 165.854V123.703C297.642 123.3 297.315 122.973 296.911 122.973Z" fill="#2E2E2E"/>
<path d="M233.081 122.973H231.861C231.454 122.973 231.13 123.297 231.13 123.703V165.854C231.13 166.261 231.454 166.585 231.861 166.585H233.081V122.973Z" fill="#193D4B"/>
<path d="M272.767 172.553H249.195V174.621H272.767V172.553Z" fill="#2E2E2E"/>
<path d="M283.836 174.628H264.345L256.301 149.041H273.36L283.836 174.628Z" fill="#193D4B"/>
<path d="M285.215 174.628H265.723L257.687 149.041H274.738L285.215 174.628Z" fill="#2E2E2E"/>
<path d="M233.081 123.717V166.109" stroke="#2E2E2E" stroke-width="1.06" stroke-linecap="round" stroke-linejoin="round"/>
<path d="M274.98 148.932H256.102L261.829 166.233" stroke="#2E2E2E" stroke-width="1.06" stroke-linecap="round" stroke-linejoin="round"/>
<path d="M81.5385 303.498L123.933 177.557H113.54L71.1448 303.498H81.5385Z" fill="#8EA9B4"/>
<path d="M314.287 174.635H103.794V185.029H314.287V174.635Z" fill="#8EA9B4"/>
<path d="M337.527 259.535C337.527 259.535 327.926 236.381 332.502 216.274C333.501 211.87 339.498 211.112 341.593 215.109C346.025 223.574 350.684 238.139 345.563 257.239L337.534 259.535H337.527Z" fill="#0F473A"/>
<path d="M336.927 217.273L340.58 249.918" stroke="#0F473A" stroke-width="1.2" stroke-linecap="round" stroke-linejoin="round"/>
<path d="M339.271 252.489C336.128 245.134 331.537 238.434 328.725 230.948C325.803 223.159 324.004 213.571 316.471 210.028C315.333 209.491 314.058 209.132 312.818 209.346C310.791 209.697 309.323 211.49 308.365 213.309C305.436 218.851 305.526 225.882 308.6 231.341C310.274 234.312 312.783 236.89 313.638 240.192C315.733 248.25 307.29 257.107 311.212 264.455C313.066 267.922 317.105 269.583 320.951 270.424C324.79 271.258 328.849 271.576 332.295 273.485C337.927 276.607 340.938 278.31 342.186 270.59C343.185 264.434 341.683 258.141 339.271 252.482V252.489Z" fill="#1C826A"/>
<path d="M312.797 217.26C318.628 222.271 320.937 230.37 321.095 238.063C321.185 242.385 320.696 246.775 321.722 250.973C323.666 258.928 330.538 264.552 337.024 269.557" stroke="#0F473A" stroke-width="1.2" stroke-linecap="round" stroke-linejoin="round"/>
<path d="M338.692 259.976C339.967 254.33 343.385 249.436 346.77 244.742C350.154 240.048 353.655 235.237 355.137 229.64C356.757 223.539 355.819 217.06 354.337 210.925C354.062 209.774 353.765 208.547 354.165 207.431C354.834 205.583 357.115 204.873 359.079 204.935C366.613 205.17 372.14 213.041 372.333 220.575C372.526 228.109 368.777 235.147 364.703 241.489C360.623 247.823 356.026 254.061 354.151 261.361C353.028 265.731 351.511 278.628 343.978 276.505C338.464 274.954 337.727 264.256 338.699 259.983L338.692 259.976Z" fill="#1C826A"/>
<path d="M360.485 210.863C362.815 216.364 361.857 222.754 359.679 228.309C357.501 233.865 354.172 238.904 351.635 244.308C348.086 251.849 346.08 260.113 345.777 268.44" stroke="#0F473A" stroke-width="1.2" stroke-linecap="round" stroke-linejoin="round"/>
<path d="M349.057 303.526H329.552L325.348 271.777H353.262L349.057 303.526Z" fill="#F0B400"/>
<path d="M57.6318 115.411C60.4404 117.301 63.1615 119.299 65.8602 121.325L69.874 124.401L73.8349 127.541L71.1192 128.233L73.1821 122.876C73.8733 121.09 74.6114 119.326 75.3238 117.547L76.1848 115.4L78.0042 116.8C79.3134 117.808 80.5943 118.854 81.8915 119.878C83.1844 120.908 84.4489 121.976 85.7298 123.022C86.9882 124.097 88.2622 125.152 89.501 126.256C90.7517 127.342 91.9793 128.459 93.185 129.602L92.3424 130.72C90.9134 129.87 89.507 128.992 88.1212 128.086C86.7242 127.195 85.3624 126.256 83.9861 125.338C82.6311 124.389 81.2599 123.463 79.918 122.5C78.5805 121.531 77.2256 120.583 75.9001 119.598L78.5824 118.85C77.8872 120.633 77.2185 122.427 76.501 124.201L74.3427 129.522L73.4257 131.781L71.6259 130.212L67.8159 126.888L64.0571 123.503C61.5729 121.219 59.1122 118.909 56.7408 116.489L57.6336 115.41L57.6318 115.411Z" fill="#F0B400"/>
<path d="M185.811 28.8158C185.883 32.2032 185.814 35.5778 185.71 38.9509L185.503 44.0056L185.216 49.0532L185.079 51.4372L182.823 50.5137L177.51 48.3374C175.74 47.6082 173.99 46.8341 172.229 46.0848L174.639 44.6897C174.417 46.3264 174.148 47.9582 173.906 49.5937C173.656 51.2267 173.36 52.8548 173.091 54.4866C172.785 56.1127 172.504 57.7431 172.165 59.3652C171.843 60.989 171.488 62.6088 171.097 64.2249L169.709 64.0459C169.736 62.3822 169.796 60.7253 169.891 59.072C169.969 57.4148 170.105 55.7681 170.216 54.115C170.364 52.4676 170.484 50.8185 170.652 49.1724C170.826 47.5286 170.974 45.8812 171.169 44.2408L171.44 41.9609L173.577 42.8462C175.344 43.5785 177.124 44.2856 178.883 45.0395L184.156 47.3097L181.763 48.7681L182.287 43.7406L182.893 38.7195C183.329 35.3739 183.804 32.0333 184.416 28.702L185.811 28.8179L185.811 28.8158Z" fill="#F0B400"/>
<path d="M106.85 60.9916L66.3253 74.0973C60.4882 75.9853 54.892 70.761 56.2726 64.8602L65.6301 24.5887C66.9684 18.8254 73.966 16.5616 78.4231 20.4533C117.884 54.8458 107.963 46.1991 109.59 47.6191C114.196 51.6238 112.659 59.1122 106.85 60.9916Z" fill="#F0B400"/>
<path opacity="0.5" d="M106.85 60.9915L66.3253 74.0972C62.187 75.438 58.1393 73.1958 56.659 69.6338C61.5989 65.6247 68.8028 66.5152 74.3778 66.0925C79.7826 65.679 85.0894 64.1114 89.8504 61.5275C93.395 59.6 96.8432 56.8097 97.8412 52.9073C98.6102 49.8993 97.7979 46.7208 96.7092 43.8204C92.8811 33.6774 86.8688 28.255 85.866 26.9435L109.583 47.6123C114.188 51.617 112.652 59.1054 106.842 60.9848L106.85 60.9915Z" fill="#806000"/>
<path d="M80.0422 34.4655L82.2768 46.4447C82.4578 47.4237 81.884 48.3867 80.9404 48.6938L80.1296 48.9582C79.1789 49.2658 78.1516 48.8163 77.7258 47.9146L72.5271 36.8925C72.0133 35.8106 72.5699 34.5285 73.7094 34.1609L77.4772 32.9397C78.6167 32.5722 79.815 33.2898 80.0351 34.4658L80.0422 34.4655Z" fill="#2E2E2E"/>
<path d="M84.7257 53.9729C84.3503 52.8194 83.1137 52.1821 81.9533 52.5579L81.5619 52.6858C80.4086 53.0612 79.7713 54.2979 80.1471 55.4585C80.5225 56.6119 81.7591 57.2492 82.9195 56.8734L83.3109 56.7455C84.4643 56.3701 85.1015 55.1334 84.7257 53.9729Z" fill="#2E2E2E"/>
<path opacity="0.5" d="M80.0422 34.4649L82.2768 46.4442C82.4578 47.4232 81.884 48.3861 80.9333 48.6937L80.1296 48.9577C79.3188 49.2221 78.4497 48.9348 77.9518 48.2788C78.3703 48.2562 78.556 48.1394 79.2627 47.9233C80.2134 47.6158 80.7872 46.6529 80.6062 45.6739C78.2537 33.4876 78.5271 33.5439 77.9915 32.8473C78.9631 32.7947 79.8671 33.4643 80.0493 34.4645L80.0422 34.4649Z" fill="#806000"/>
<path opacity="0.5" d="M84.7256 53.9738C85.101 55.1272 84.4642 56.371 83.3108 56.7464L82.9194 56.8743C82.0385 57.1567 81.1048 56.8587 80.5644 56.205C81.0478 56.2002 81.3313 56.0497 81.6257 55.9697C83.1357 55.4825 83.6317 53.6062 82.6086 52.4451C83.54 52.4374 84.4189 53.0371 84.7185 53.9741L84.7256 53.9738Z" fill="#806000"/>
<path d="M186.447 122.546C187.639 122.05 189.535 120.451 191.168 118.714C190.651 118.135 190.327 117.383 190.327 116.542V101.543H178.542V116.542C178.542 117.776 177.852 118.838 176.839 119.396C179.251 121.746 183.097 123.938 186.44 122.546H186.447Z" fill="#F9B384"/>
<path d="M190.334 111.001V113.49C189.762 113.538 189.183 113.51 188.611 113.393C186.068 112.904 182.443 111.739 180.189 108.961C179.644 108.299 179.086 107.341 178.542 106.19V105.811C178.734 106.121 178.941 106.404 179.134 106.652C181.388 109.43 185.013 110.601 187.557 111.084C188.494 111.27 189.438 111.229 190.334 111.008V111.001Z" fill="#DD9D72"/>
<path d="M177.453 118.48C177.453 118.48 185.248 124.69 191.093 118.48C191.093 118.48 202.665 127.247 204.615 129.687C206.566 132.121 206.442 137.849 205.222 141.261C204.002 144.673 198.764 154.295 201.686 160.141C204.609 165.986 206.318 168.667 206.318 168.667H168.679C168.679 168.667 174.51 160.251 172.573 152.827C172.573 152.827 164.784 172.686 155.404 171.714C146.023 170.742 132.866 127.371 132.866 127.371L140.537 123.594L155.032 150.759C155.032 150.759 164.047 121.767 168.672 120.423C173.303 119.086 177.439 118.473 177.439 118.473L177.453 118.48Z" fill="#0080A7"/>
<path d="M177.453 118.479C177.453 118.479 172.518 122.621 175.44 125.785C178.362 128.956 184.697 121.946 184.697 121.946C184.697 121.946 189.693 128.156 192.616 125.847C195.538 123.531 191.093 118.479 191.093 118.479C191.093 118.479 186.096 122.621 177.453 118.479Z" fill="#005873"/>
<path d="M127.517 117.721C127.097 118.203 130.557 122.043 132.183 123.787C132.183 123.793 132.183 123.807 132.19 123.814C132.404 124.586 132.625 125.351 132.845 126.116C135.388 125.627 137.918 124.765 140.413 123.697C139.999 122.808 139.579 121.912 139.179 121.029L139.131 120.912C139.131 120.912 139.103 120.85 139.076 120.823C139.372 118.899 139.951 114.591 139.207 114.219C138.249 113.737 136.484 116.776 136.484 116.776C136.484 116.776 133.645 109.442 132.68 109.504C131.715 109.573 133.617 115.646 133.617 115.646C133.617 115.646 131.074 111.014 129.999 111.131C128.923 111.248 132.025 117.266 132.025 117.266C132.025 117.266 128.427 113.268 127.51 113.985C126.601 114.702 131.191 119.299 131.191 119.299C131.191 119.299 128.069 117.08 127.517 117.714V117.721Z" fill="#F9B384"/>
<path d="M132.466 125.297C132.246 125.394 132.122 125.628 132.156 125.863C132.301 126.772 132.694 128.964 133.231 129.605C133.831 130.315 138.056 127.958 139.117 127.351C139.269 127.262 139.365 127.11 139.386 126.938L139.524 125.304C139.524 125.304 140.579 126.848 140.827 126.848C140.971 126.848 141.488 126.607 141.881 126.407C142.15 126.276 142.253 125.945 142.109 125.676L140.289 122.326C140.158 122.078 139.855 121.982 139.6 122.092L132.459 125.297H132.466Z" fill="#005873"/>
<path d="M196.613 89.3079C195.201 82.9043 188.729 78.9753 182.388 80.6503C176.529 82.2012 172.938 87.9706 173.958 93.7814C173.876 93.809 173.793 93.8228 173.717 93.8503C172.07 94.5258 171.277 96.4076 171.953 98.0619C172.552 99.5301 174.689 101.233 176.315 101.109C177.232 103.473 178.197 105.486 179.141 106.644C181.395 109.422 185.02 110.593 187.564 111.076C189.473 111.448 191.444 110.931 192.926 109.663C194.291 108.505 195.938 106.816 197.006 104.714C197.496 103.776 197.861 102.756 198.047 101.653C198.144 101.081 198.171 100.399 198.157 99.6266C198.109 96.8695 197.434 93.0094 196.62 89.3079H196.613Z" fill="#F9B384"/>
<path d="M166.018 79.8993C162.172 80.9057 159.133 84.4555 158.719 88.4052C158.382 91.6242 159.629 94.9328 158.802 98.0622C158.313 99.9233 157.141 101.509 156.176 103.177C154.66 105.81 153.633 108.822 153.86 111.848C154.088 114.874 155.749 117.9 158.478 119.224C159.601 119.768 160.856 120.009 162.103 120.092C165.267 120.299 168.513 119.444 171.091 117.597C171.787 117.101 172.449 116.515 172.855 115.756C173.235 115.053 173.372 114.247 173.455 113.447C173.669 111.262 173.455 109.036 172.828 106.933C172.38 105.417 171.718 103.963 171.222 102.46C170.395 99.9647 170.016 97.2764 170.519 94.7054C171.022 92.1274 172.47 89.6735 174.71 88.3018C175.089 88.0674 175.502 87.8607 175.785 87.516C177.501 85.4343 176.088 82.7461 174.296 81.4778C171.939 79.8097 168.837 79.1617 166.025 79.8993H166.018Z" fill="#3D2D21"/>
<path d="M180.279 89.5746C182.37 87.4226 182.37 83.9341 180.279 81.7821C178.188 79.6301 174.798 79.6301 172.707 81.7821C170.617 83.9341 170.617 87.4226 172.707 89.5746C174.798 91.7266 178.188 91.7266 180.279 89.5746Z" fill="#F0B400"/>
<path d="M197.551 93.9885C197.551 93.9885 197.309 85.7031 192.678 81.8086C188.046 77.9072 181.347 79.8579 176.839 83.1458C172.332 86.4338 173.71 93.8506 173.71 93.8506C173.71 93.8506 177.204 99.1031 179.396 98.8618C181.588 98.6205 182.195 89.2392 182.195 89.2392C182.195 89.2392 191.94 93.8713 195.352 90.7005L197.544 93.9885H197.551Z" fill="#3D2D21"/>
<path d="M205.794 167.937C205.794 167.937 199.219 158.679 201.045 153.076C202.872 147.472 206.159 140.041 206.159 136.629" stroke="#005873" stroke-width="0.71" stroke-linecap="round" stroke-linejoin="round"/>
</g>
<defs>
<clipPath id="clip0_22122_16265">
<rect width="423" height="303" fill="white" transform="translate(0.5 0.5)"/>
</clipPath>
</defs>
</svg>
