<svg width="184" height="158" viewBox="0 0 184 158" fill="none" xmlns="http://www.w3.org/2000/svg">
<path d="M104.658 156.359C46.7856 164.78 19.1797 123.297 19.1797 123.297L28.0047 102.718L41.5083 89.2142C41.5083 89.2142 5.76477 27.5235 40.3553 10.8891C74.9458 -5.74541 107.097 1.68358 120.845 5.55957C132.569 8.86521 145.582 27.9368 140.355 44.1832C138.933 48.602 140.142 54.0944 144.394 55.957L167.376 66.0246L180.691 86.1062C194.837 121.152 162.531 147.961 104.658 156.359Z" fill="#E6F7FC"/>
<path d="M43.4583 113.376L20.9301 119.19L19.1562 123.297C19.1562 123.297 46.7622 164.78 104.635 156.358C135.123 151.929 158.516 142.377 171.776 129.227L43.4583 113.376Z" fill="#AFE0F0"/>
<path d="M130.556 70.3935C130.556 70.3935 122.507 63.4029 121.442 59.5038C121.442 59.5038 112.44 60.6805 107.65 50.8982C107.673 50.9213 108.693 70.6012 130.556 70.3935Z" fill="white"/>
<path d="M24.8995 81.2844C24.8995 81.2844 18.6244 79.6694 19.2896 68.8258C19.9548 57.9823 11.3516 60.0587 5.45344 52.9066C-0.444684 45.7544 1.99439 35.603 9.75508 34.9109C17.5158 34.2187 30.4872 38.4869 32.0394 45.4084C33.5915 52.3298 29.822 56.4826 33.3698 59.4819C36.9175 62.4812 38.4696 68.2952 33.3698 73.8092C28.2699 79.3233 34.0128 82.8763 34.0128 82.8763L24.8995 81.2844Z" fill="#0F473A"/>
<path fill-rule="evenodd" clip-rule="evenodd" d="M14.0486 48.8522C14.1306 48.6811 14.3303 48.6116 14.4947 48.6968C20.833 51.9827 24.1195 56.0634 25.899 59.9046C27.4184 63.1845 27.8314 66.2805 28.1254 68.4843C28.1745 68.8522 28.2203 69.1952 28.2673 69.51C28.5903 71.6723 29.5469 73.7036 30.4338 75.2046C30.8759 75.9528 31.2975 76.5639 31.608 76.9873C31.7633 77.1989 31.8906 77.3634 31.9785 77.4744C32.0225 77.5299 32.0567 77.572 32.0796 77.5999C32.0853 77.6068 32.0903 77.6129 32.0946 77.6181C32.0989 77.6233 32.1024 77.6276 32.1053 77.631L32.1114 77.6384L32.1128 77.64L32.113 77.6402C32.113 77.6402 32.113 77.6402 32.113 77.6402C32.2343 77.7837 32.221 78.0024 32.0831 78.1286C31.9452 78.2549 31.7351 78.241 31.6137 78.0975L31.8633 77.8689C31.6137 78.0975 31.6138 78.0976 31.6137 78.0975L31.6133 78.0971L31.6105 78.0938L31.6027 78.0844C31.5959 78.0763 31.5862 78.0645 31.5736 78.0492C31.5484 78.0184 31.5119 77.9734 31.4654 77.9148C31.3726 77.7977 31.24 77.6264 31.0793 77.4072C30.7579 76.9691 30.323 76.3387 29.8671 75.5671C28.9579 74.0283 27.9522 71.9068 27.61 69.6163C27.5613 69.2904 27.5143 68.9394 27.4644 68.5662C27.1692 66.3608 26.7701 63.3792 25.2997 60.2051C23.5869 56.5078 20.4098 52.5366 14.198 49.3163C14.0336 49.2311 13.9667 49.0233 14.0486 48.8522Z" fill="#1C826A"/>
<path fill-rule="evenodd" clip-rule="evenodd" d="M18.983 43.7447C19.1309 43.6314 19.3391 43.6642 19.448 43.8181C21.0473 46.0763 21.6799 48.7205 21.9164 50.7826C22.0349 51.8162 22.0547 52.7102 22.0448 53.3469C22.0398 53.6654 22.0274 53.92 22.0162 54.0959C22.0106 54.1839 22.0052 54.2522 22.0012 54.2991C21.9992 54.3226 21.9976 54.3407 21.9964 54.3532L21.995 54.3677L21.9945 54.3718L21.9944 54.3731L21.9944 54.3735C21.9944 54.3736 21.9943 54.3737 21.6637 54.3363L21.9943 54.3737C21.9745 54.5637 21.8103 54.701 21.6277 54.6803C21.4451 54.6596 21.3132 54.4889 21.333 54.2989L21.3333 54.2961L21.3344 54.285C21.3354 54.2748 21.3368 54.2591 21.3386 54.2381C21.3422 54.196 21.3472 54.1327 21.3524 54.0499C21.363 53.8845 21.3749 53.6416 21.3796 53.3357C21.3892 52.7236 21.3701 51.8614 21.2558 50.8646C21.0267 48.8662 20.4176 46.3539 18.9125 44.2286C18.8036 44.0748 18.8351 43.8581 18.983 43.7447Z" fill="#1C826A"/>
<path fill-rule="evenodd" clip-rule="evenodd" d="M30.2701 61.3341C30.4504 61.2975 30.625 61.4198 30.6603 61.6074C31.1447 64.1878 30.4768 65.9217 29.6592 67.0115C29.2543 67.5511 28.8186 67.9254 28.483 68.1655C28.315 68.2857 28.1713 68.3728 28.068 68.4307C28.0163 68.4596 27.9745 68.4813 27.9448 68.4961C27.9299 68.5036 27.918 68.5093 27.9093 68.5134C27.905 68.5155 27.9014 68.5171 27.8987 68.5183L27.8953 68.5199L27.8941 68.5205L27.8936 68.5207C27.8934 68.5208 27.8932 68.5209 27.7617 68.203" fill="#1C826A"/>
<path d="M38.9133 78.6312C38.9133 78.6312 40.0441 74.2476 36.9398 73.2094C33.8134 72.1712 28.78 65.319 33.0817 58.2361C37.3833 51.1532 24.7445 46.562 23.6358 42.8705C22.5271 39.1791 17.5824 22.337 35.1216 11.1474C52.6608 -0.0422602 57.5611 10.9628 55.2329 19.5223C52.9047 28.0818 54.2351 30.412 60.0002 32.2577C65.7653 34.1034 72.4173 37.1258 67.4283 48.8691C62.4392 60.6124 48.47 62.4812 47.3613 67.7876C46.2527 73.0941 42.6384 77.9391 45.654 79.6694C48.6696 81.3998 38.9133 78.6312 38.9133 78.6312Z" fill="#1C826A"/>
<path fill-rule="evenodd" clip-rule="evenodd" d="M39.226 19.6369C39.1045 19.3147 39.1042 19.3148 39.104 19.3149L39.1033 19.3152L39.1017 19.3159L39.0972 19.3178C39.0937 19.3193 39.089 19.3213 39.0833 19.3238C39.0719 19.3288 39.0564 19.3358 39.0371 19.345C38.9986 19.3633 38.945 19.3902 38.8802 19.4264C38.7509 19.4987 38.5753 19.6091 38.3841 19.764C38.0025 20.0733 37.5499 20.5678 37.2899 21.2991C36.7613 22.7853 37.0817 25.0641 39.8832 28.4454C45.3388 35.0302 46.6488 46.18 42.6144 53.9174C40.527 57.921 39.6097 64.0947 39.2077 69.2209C39.006 71.7929 38.933 74.1175 38.9104 75.799C38.8991 76.6399 38.9004 77.3204 38.9045 77.7911C38.9066 78.0264 38.9094 78.2094 38.9116 78.3337C38.9128 78.3959 38.9138 78.4434 38.9145 78.4755L38.9154 78.5119L38.9157 78.5244C38.9157 78.5246 38.9157 78.5247 39.2482 78.5151L38.9157 78.5247C38.9208 78.7158 39.0738 78.8663 39.2574 78.861C39.441 78.8557 39.5858 78.6965 39.5806 78.5055L39.2482 78.5151C39.5806 78.5054 39.5806 78.5055 39.5806 78.5055L39.5803 78.4941L39.5795 78.4592C39.5788 78.4281 39.5778 78.3817 39.5767 78.3206C39.5745 78.1984 39.5718 78.0177 39.5697 77.7848C39.5656 77.3188 39.5643 76.6437 39.5755 75.8087C39.598 74.1383 39.6705 71.8299 39.8707 69.2772C40.2725 64.1539 41.1845 58.1113 43.1991 54.2475C47.3689 46.2502 46.0181 34.7901 40.387 27.9935C37.6451 24.6841 37.511 22.6717 37.9137 21.5393C38.1193 20.9612 38.4789 20.5646 38.7929 20.3101C38.9495 20.1831 39.0927 20.0934 39.1951 20.0361C39.2462 20.0075 39.2869 19.9872 39.3135 19.9745C39.3268 19.9682 39.3366 19.9638 39.3424 19.9613L39.3481 19.9588C39.3485 19.9586 39.3487 19.9585 39.3486 19.9586L39.3481 19.9588C39.3479 19.9589 39.3475 19.959 39.226 19.6369Z" fill="white"/>
<path fill-rule="evenodd" clip-rule="evenodd" d="M33.9596 36.7649C34.1384 36.7211 34.3175 36.8365 34.3596 37.0225C34.5523 37.8746 35.2804 38.7155 36.3616 39.5081C37.4305 40.2917 38.7854 40.9854 40.1277 41.5636C41.4674 42.1406 42.7816 42.597 43.762 42.9093C44.2518 43.0653 44.6575 43.1852 44.9402 43.2659C45.0816 43.3062 45.1922 43.3368 45.2672 43.3572C45.3047 43.3674 45.3333 43.375 45.3524 43.3801L45.3739 43.3858L45.3803 43.3875L45.3805 43.3875C45.3805 43.3875 45.3806 43.3875 45.3774 43.4005L45.3805 43.3875C45.5587 43.4339 45.6671 43.6218 45.6226 43.8072C45.578 43.9926 45.3974 44.1054 45.2192 44.059L45.2999 43.7233C45.2192 44.059 45.2191 44.059 45.219 44.0589L45.2109 44.0568L45.1878 44.0507C45.1675 44.0453 45.1377 44.0373 45.099 44.0268C45.0216 44.0058 44.9084 43.9745 44.7643 43.9334C44.4761 43.8511 44.0641 43.7294 43.5672 43.5711C42.5741 43.2547 41.2386 42.7911 39.8732 42.2031C38.5103 41.6161 37.1047 40.8996 35.9784 40.0739C34.8644 39.2573 33.9628 38.29 33.712 37.181C33.67 36.995 33.7808 36.8087 33.9596 36.7649Z" fill="white"/>
<path fill-rule="evenodd" clip-rule="evenodd" d="M56.3684 42.8501C56.5502 42.8779 56.6759 43.0537 56.6492 43.2428C56.0143 47.7469 52.6661 50.2473 49.562 51.6123C48.0044 52.2972 46.4886 52.706 45.3637 52.9437C44.8007 53.0627 44.3342 53.1392 44.0075 53.1859C43.8441 53.2093 43.7156 53.2253 43.6273 53.2355C43.5832 53.2406 43.5491 53.2443 43.5258 53.2467C43.5141 53.2479 43.5051 53.2488 43.4989 53.2494L43.4916 53.2501L43.489 53.2503C43.4888 53.2503 43.4886 53.2504 43.4596 52.9056L43.4886 53.2504C43.3056 53.267 43.1443 53.1262 43.1282 52.9358C43.1122 52.7454 43.2475 52.5776 43.4305 52.5609C43.4305 52.5609 43.4305 52.5609 43.4305 52.5609L43.4318 52.5607L43.4371 52.5602C43.4421 52.5597 43.4499 52.559 43.4602 52.5579C43.481 52.5558 43.5125 52.5524 43.5539 52.5476C43.6368 52.538 43.7595 52.5228 43.9168 52.5003C44.2315 52.4552 44.6839 52.3811 45.2313 52.2655C46.3273 52.0338 47.7979 51.6366 49.3031 50.9747C52.3244 49.6461 55.4064 47.29 55.9911 43.1423C56.0177 42.9532 56.1867 42.8224 56.3684 42.8501Z" fill="white"/>
<path d="M40.3766 76.7623C40.3766 76.7623 39.6893 69.7485 45.0109 68.8257C50.3325 67.9028 50.9977 62.3657 51.6629 60.9814C52.3281 59.5971 56.541 53.3679 60.3105 57.7514C64.08 62.135 62.3061 66.0571 59.8671 71.1328C57.428 76.2085 50.8425 79.4616 50.8425 79.4616C50.8425 79.4616 41.5296 82.3917 40.3766 76.7623Z" fill="#0F473A"/>
<path fill-rule="evenodd" clip-rule="evenodd" d="M59.4692 65.4068C59.6304 65.4983 59.6899 65.7086 59.6019 65.8764C58.8827 67.2483 57.6452 67.9873 56.6206 68.3826C56.1054 68.5814 55.6345 68.6971 55.2921 68.7632C55.1206 68.7964 54.9806 68.8172 54.8823 68.8299C54.8332 68.8362 54.7945 68.8405 54.7674 68.8432C54.7539 68.8446 54.7433 68.8456 54.7357 68.8463L54.7267 68.847L54.724 68.8473C54.7239 68.8473 54.7225 68.8474 54.6979 68.5023L54.7225 68.8474C54.5393 68.8616 54.3798 68.7185 54.3662 68.5279C54.3526 68.3374 54.4899 68.1715 54.6729 68.1572C54.6728 68.1572 54.673 68.1572 54.6729 68.1572L54.6789 68.1567C54.6839 68.1562 54.6918 68.1555 54.7027 68.1544C54.7243 68.1522 54.7574 68.1485 54.8006 68.143C54.887 68.1318 55.0137 68.113 55.1707 68.0827C55.4852 68.022 55.9178 67.9156 56.3894 67.7337C57.3382 67.3676 58.4067 66.7108 59.0179 65.5449C59.1059 65.3771 59.3079 65.3153 59.4692 65.4068Z" fill="#1C826A"/>
<path fill-rule="evenodd" clip-rule="evenodd" d="M48.9885 70.0027C49.0368 70.1871 48.9323 70.3773 48.7551 70.4276C47.6787 70.7331 47.0214 71.6725 46.6272 72.6038C46.4324 73.0639 46.3092 73.5056 46.2349 73.833C46.1978 73.9963 46.1731 74.1299 46.1578 74.2218C46.1502 74.2677 46.1449 74.3031 46.1416 74.3264C46.14 74.338 46.1388 74.3466 46.1381 74.3521L46.1374 74.3577C46.1147 74.5473 45.9485 74.6828 45.7663 74.6592C45.584 74.6357 45.4545 74.4628 45.4772 74.2731L45.8072 74.3158C45.4772 74.2731 45.4772 74.2733 45.4772 74.2731L45.4774 74.2716L45.4777 74.2687L45.4789 74.2592C45.48 74.2512 45.4815 74.24 45.4835 74.2256C45.4876 74.1968 45.4937 74.1557 45.5024 74.1037C45.5197 73.9998 45.547 73.8523 45.5875 73.6738C45.6684 73.3178 45.803 72.8337 46.0184 72.3248C46.4445 71.3181 47.2174 70.1465 48.5801 69.7598C48.7573 69.7096 48.9402 69.8183 48.9885 70.0027Z" fill="#1C826A"/>
<path fill-rule="evenodd" clip-rule="evenodd" d="M47.9803 72.6503C47.8562 72.5115 47.6475 72.5024 47.5126 72.6305C47.377 72.7594 47.3674 72.9783 47.4913 73.1195L47.7369 72.8861C47.4913 73.1195 47.4915 73.1197 47.4917 73.1199L47.4921 73.1204L47.4931 73.1215L47.4955 73.1242C47.4972 73.1261 47.4993 73.1284 47.5018 73.1311C47.5068 73.1365 47.5132 73.1432 47.5212 73.1513C47.5371 73.1675 47.559 73.1888 47.5872 73.2141C47.6436 73.2647 47.7252 73.3314 47.8341 73.4051C48.0523 73.5528 48.3785 73.7273 48.8289 73.857C49.7325 74.1171 51.1126 74.1902 53.0922 73.5391C53.2674 73.4815 53.3645 73.2871 53.3091 73.1048C53.2538 72.9226 53.0669 72.8215 52.8918 72.8791C51.0132 73.497 49.7658 73.4085 49.0063 73.1899C48.6253 73.0802 48.3611 72.9361 48.1968 72.8249C48.1144 72.7692 48.0568 72.7215 48.0217 72.69C48.0042 72.6743 47.9923 72.6626 47.9859 72.656C47.9828 72.653 47.981 72.651 47.9803 72.6503Z" fill="#1C826A"/>
<path fill-rule="evenodd" clip-rule="evenodd" d="M13.3722 28.3574C13.4831 28.205 13.6917 28.175 13.8381 28.2904C25.3375 37.3514 30.7335 49.8508 33.2558 60.0649C34.5174 65.1733 35.0618 69.7163 35.2908 72.9831C35.4054 74.6167 35.4411 75.9319 35.4482 76.8399C35.4517 77.294 35.4481 77.6462 35.4436 77.8857C35.4413 78.0054 35.4388 78.097 35.4368 78.1589C35.4362 78.1788 35.4356 78.1956 35.4352 78.2093C35.4349 78.217 35.4346 78.2237 35.4344 78.2295L35.4337 78.2478L35.4335 78.254C35.4334 78.2544 35.4334 78.2546 35.1012 78.239L35.4334 78.2546C35.4251 78.4455 35.2697 78.5933 35.0862 78.5847C34.9027 78.5761 34.7606 78.4143 34.7689 78.2234L34.9131 78.2302C34.7689 78.2234 34.7689 78.2235 34.7689 78.2234L34.7691 78.2187L34.7697 78.2025C34.7703 78.1879 34.7711 78.1658 34.772 78.1362C34.7738 78.0772 34.7763 77.9887 34.7785 77.872C34.7829 77.6387 34.7865 77.2928 34.783 76.8455C34.7761 75.9509 34.7408 74.6507 34.6274 73.0335C34.4005 69.7984 33.8612 65.2974 32.6116 60.2372C30.1116 50.1138 24.7757 37.7769 13.4365 28.8422C13.2901 28.7268 13.2613 28.5097 13.3722 28.3574Z" fill="#004E66"/>
<path d="M34.9922 73.4852C34.9922 73.4852 37.5865 71.2473 37.8082 67.5558C38.0299 63.8644 41.8659 65.0411 41.489 67.0944C41.1342 69.1708 39.2938 73.1853 34.9922 73.4852Z" fill="#C6E0DA"/>
<path d="M34.4349 67.948C34.4349 67.948 31.2641 62.5955 26.1642 63.2876C21.0643 63.9797 26.6077 66.979 29.4902 66.979C32.3728 66.979 33.6145 67.279 34.4349 67.948Z" fill="#C6E0DA"/>
<path d="M32.8851 59.9661C32.8851 59.9661 32.1534 51.522 34.8142 51.0606C37.475 50.5992 36.8098 54.2906 35.7011 55.9056C34.5925 57.5206 33.1955 58.0051 32.8851 59.9661Z" fill="#C6E0DA"/>
<path d="M30.1775 51.4296C30.1775 51.4296 22.9046 49.607 20.6651 51.0374C18.4034 52.4447 20.1773 54.9826 23.2816 53.5983C26.3859 52.214 29.0689 51.0835 30.1775 51.4296Z" fill="#C6E0DA"/>
<path d="M26.919 44.4385C26.919 44.4385 24.1695 36.0636 27.939 35.6022C31.7085 35.1407 29.4911 39.755 28.8259 40.6779C28.1607 41.6007 27.0077 43.3772 26.919 44.4385Z" fill="#C6E0DA"/>
<path d="M22.8581 38.0944C22.8581 38.0944 15.297 36.1564 13.634 37.6099C11.971 39.0634 11.7492 41.6012 15.9622 40.4477C20.1751 39.2941 21.1064 37.3561 22.8581 38.0944Z" fill="#C6E0DA"/>
<path d="M19.1802 33.6657C19.1802 33.6657 16.6302 25.9368 19.1802 24.2064C21.7301 22.453 22.1736 25.9137 21.5084 27.298C20.8432 28.6823 18.6258 31.0356 19.1802 33.6657Z" fill="#C6E0DA"/>
<path d="M15.0783 29.7421C15.0783 29.7421 10.311 22.0132 8.20451 25.4508C6.65237 27.9887 15.0783 29.7421 15.0783 29.7421Z" fill="#C6E0DA"/>
<path d="M17.959 79.6692L67.8492 73.2092L67.4057 93.5121L17.959 96.7882V79.6692Z" fill="#6B8E9C"/>
<path d="M67.8497 73.2092L106.21 81.0535L98.6707 98.8646L67.4062 93.5121L67.8497 73.2092Z" fill="#25596E"/>
<path d="M56.541 83.8228L63.6365 77.3628L67.8495 82.8999L62.1952 84.9994L56.541 83.8228Z" fill="white"/>
<path d="M35.9199 85.6685L41.4633 78.9778L47.8714 85.6685L49.357 78.9778L63.1932 83.3614L74.0804 77.3628L79.6015 88.2064L58.9803 90.5135L38.8025 88.4371L35.9199 85.6685Z" fill="#F0B400"/>
<path d="M44.125 87.0513L49.0031 82.437L55.2117 88.897C55.2117 88.897 44.3467 88.2049 44.125 87.0513Z" fill="white"/>
<path d="M55.877 88.2056V135.041C55.877 135.041 93.35 132.733 106.211 120.506C106.211 120.506 103.772 86.5906 106.211 81.2842C106.211 81.2842 79.9351 87.6288 55.877 88.2056Z" fill="#B1C3CB"/>
<path d="M55.8741 88.2058C55.8741 88.2058 28.8226 86.3601 17.2924 80.5923C17.2924 80.5923 10.6404 110.008 17.2924 122.398C17.2924 122.398 43.2353 135.041 55.8741 135.041V88.2058Z" fill="#6B8E9C"/>
<path d="M55.875 88.2058C55.875 88.2058 29.7104 84.7451 17.9585 79.6694C17.9585 79.6694 6.42833 91.2051 -0.00195312 92.8201C-0.00195312 92.8201 19.5106 106.432 43.9014 105.74C43.9014 105.74 55.6533 94.6658 55.875 88.2058Z" fill="#C2D1D6"/>
<path d="M56.3184 88.4358C56.3184 88.4358 65.6312 107.354 76.0527 109.2C76.0527 109.2 117.295 102.971 120.843 96.9722C120.843 96.9722 110.865 88.6665 106.209 81.053C106.209 81.053 67.2942 89.0126 56.3184 88.4358Z" fill="#C2D1D6"/>
<path d="M66.0527 88.3218C66.0527 88.3218 64.301 90.5136 63.4141 90.2828C63.4141 90.2828 75.4986 96.143 76.0086 101.749C76.0086 101.749 89.49 101.634 88.7583 98.0348C88.0265 94.4357 77.8268 89.8214 77.8268 89.8214L66.0527 88.3218Z" fill="#B1C3CB"/>
<path d="M62.9707 87.7439L72.2392 85.7367C74.6561 85.2061 77.1617 85.5522 79.379 86.7057C83.2815 88.7129 89.0688 92.0814 89.8005 94.6654C89.8005 94.6654 90.244 98.8182 75.3878 97.8954C75.3878 97.8954 77.1617 93.9502 62.9707 87.7439Z" fill="white"/>
<path d="M77.4277 83.9376L91.5965 79.6694L95.1886 83.1993L78.5364 86.1064L77.4277 83.9376Z" fill="#D5E1E5"/>
<path d="M81.1953 85.668L82.1044 79.6694L91.129 81.7459L90.4638 84.053L81.1953 85.668Z" fill="white"/>
<path opacity="0.2" d="M58.7578 123.643C58.7578 123.643 58.9795 136.655 68.5141 139.885L88.0267 136.655L83.9246 133.887L58.7578 123.643Z" fill="#1F4B5C"/>
<path d="M58.7578 123.043C58.7578 123.043 60.9752 134.579 69.6228 137.809L93.5701 134.579C93.5701 134.579 78.2704 132.018 76.1639 125.812C76.1639 125.812 66.8511 126.388 58.7578 123.043Z" fill="white"/>
<path opacity="0.2" d="M117.697 126.319C117.697 126.319 133.928 137.578 146.789 126.735C146.789 126.735 142.798 125.12 147.676 118.89C147.676 118.89 140.58 126.735 131.489 125.812C122.398 124.889 117.697 126.319 117.697 126.319Z" fill="#002733"/>
<path d="M111.975 123.044C111.975 123.044 124.613 121.429 128.161 118.199C128.161 118.199 136.587 125.582 147.674 118.891C147.674 118.891 134.148 138.271 111.975 123.044Z" fill="white"/>
<path d="M162.574 17.7447C160.889 18.4368 159.47 19.6827 158.472 21.2285C155.058 26.4657 145.39 43.0309 155.013 49.0064C166.521 56.1355 183.462 53.2054 178.207 34.8175C173.794 19.4058 167.963 15.5529 162.574 17.7447Z" fill="#E6F7FC"/>
<path d="M183.352 95.1729C179.471 91.7583 175.281 89.1974 175.281 89.1974L156.012 83.4065C156.012 83.4065 152.553 87.5132 151.222 94.2039C149.892 100.895 145.457 104.517 138.694 104.078C131.932 103.663 128.739 103.133 128.739 103.133C128.739 103.133 125.945 107.793 127.719 108.254C129.492 108.716 145.369 114.576 152.952 110.954C160.535 107.332 166.167 99.9025 167.01 96.3495C167.01 96.3495 180.358 102.164 181.755 112.13C181.822 112.661 181.91 113.192 181.977 113.699C184.039 107.931 184.549 101.725 183.352 95.1729Z" fill="#004E66"/>
<path d="M167.119 65.7573C161.886 69.0335 156.542 74.063 156.032 81.0998C155.012 95.1272 171.243 92.7739 171.243 92.7739C171.243 92.7739 174.991 88.5288 180.689 86.1294C176.476 75.7242 171.776 69.541 167.119 65.7573Z" fill="#0080A7"/>
<path d="M128.204 104.125H126.031V106.916H127.118L128.204 104.125Z" fill="#F3C2A7"/>
<path d="M126.033 104.125C126.033 104.125 126.343 103.294 126.033 103.364C125.722 103.433 122.84 102.279 122.84 102.971C122.84 103.663 122.396 110.816 122.396 110.816C122.396 110.816 123.505 113.63 124.281 111.877C125.057 110.123 125.944 108.37 126.166 108.093C126.41 107.793 126.033 104.125 126.033 104.125Z" fill="#004E66"/>
</svg>
