<svg width="200" height="101" viewBox="0 0 200 101" fill="none" xmlns="http://www.w3.org/2000/svg">
<path d="M148.244 55.6577C148.112 55.6027 147.973 55.5675 147.83 55.5531C147.541 55.5381 147.252 55.6044 146.998 55.7441C146.773 55.8774 146.59 56.0713 146.47 56.3036C146.125 56.8267 145.865 57.3999 145.561 57.9412C145.1 58.6846 144.575 59.3862 143.991 60.0381C143.45 60.6749 142.831 61.2389 142.254 61.8575C142.206 61.9197 142.14 61.9648 142.064 61.9861C141.989 62.0073 141.909 62.0037 141.835 61.9758C141.78 61.9335 141.738 61.8765 141.714 61.8113C141.69 61.7461 141.684 61.6754 141.699 61.6073C141.867 60.0608 141.994 58.5052 142.204 56.9586C142.29 56.2536 142.377 55.594 142.467 54.8709C142.581 53.8702 142.7 52.8739 142.818 51.8733L143.787 44.409C143.878 43.8814 143.905 42.8807 143.232 42.2938C142.962 42.0485 142.624 41.8901 142.263 41.839C141.903 41.8137 141.543 41.8961 141.23 42.0756C140.321 42.7397 140.002 44.1452 139.752 45.1914C139.165 47.6522 139.011 50.2585 137.828 52.5419C137.593 52.9979 137.317 53.4317 137.005 53.8383C136.797 54.127 136.54 54.3765 136.245 54.5752C135.948 54.773 135.588 54.8525 135.235 54.798C135.017 54.7406 134.816 54.6328 134.647 54.4836C134.478 54.3344 134.346 54.1476 134.262 53.9383C134.098 53.5195 134.015 53.0735 134.016 52.6238C133.946 50.4103 134.276 48.2022 134.99 46.1057C135.181 45.6031 135.318 45.0816 135.399 44.55C135.517 43.8996 135.517 42.9899 134.944 42.4304C134.676 42.1725 134.346 41.9884 133.986 41.896C133.625 41.8035 133.247 41.8059 132.888 41.9027C132.532 42.0463 132.212 42.2648 131.948 42.5434C131.684 42.8221 131.484 43.1544 131.36 43.5175C130.546 45.4097 130.327 47.402 130.068 49.4307C129.929 50.764 129.518 52.055 128.863 53.2242C128.432 53.9665 127.92 54.6577 127.334 55.2848C127.047 55.6047 126.732 55.8984 126.393 56.1626C126.207 56.3255 125.991 56.4496 125.756 56.5276C125.522 56.6058 125.274 56.6363 125.028 56.6175C124.783 56.5775 124.551 56.4795 124.352 56.3314C124.152 56.1834 123.991 55.9899 123.882 55.7669C123.675 55.364 123.545 54.9259 123.5 54.4751C123.372 53.6491 123.323 52.813 123.354 51.9779C123.336 51.0754 123.395 50.1729 123.532 49.2806C123.85 47.684 126.311 41.3751 126.848 39.7284C127.421 38.0563 127.902 36.3541 128.289 34.6295C128.636 33.0882 128.789 31.5098 128.744 29.9307C128.703 28.8209 128.462 27.5973 127.571 26.9377C127.209 26.697 126.791 26.5517 126.358 26.5151C125.925 26.4785 125.489 26.5519 125.092 26.7285C124.297 27.093 123.643 27.7061 123.227 28.4752C122.817 29.2393 122.511 30.0546 122.317 30.8996C121.861 32.6414 121.495 34.4056 121.221 36.1851C120.943 37.9135 120.657 39.6329 120.379 41.3614C120.143 42.817 119.542 47.9569 119.31 49.044C119.04 50.1633 118.629 51.2438 118.087 52.26C117.537 53.3425 117.022 54.4432 116.413 55.4985C116.238 55.8467 115.996 56.1561 115.699 56.4082C115.545 56.5326 115.36 56.6131 115.164 56.6411C114.967 56.6691 114.767 56.6437 114.584 56.5675C114.386 56.4398 114.22 56.2669 114.101 56.0629C113.981 55.859 113.912 55.6298 113.898 55.3939C113.575 53.62 113.857 51.8141 114.193 50.0675C114.53 48.3208 116.013 40.2607 116.327 38.4049C116.727 36.2442 117.314 34.1109 117.491 31.9094C117.618 30.3219 117.864 28.3342 116.677 27.0651C116.444 26.8281 116.156 26.6529 115.838 26.5552C115.52 26.4575 115.183 26.4405 114.857 26.5056C114.199 26.6975 113.635 27.127 113.274 27.711C112.827 28.2912 112.47 28.9351 112.215 29.6214C111.773 30.8376 111.421 32.0842 111.159 33.3513L111.041 33.8835C110.7 35.4488 110.44 37.0308 110.263 38.6231C110.169 39.4783 110.089 40.3365 110.022 41.1977C109.99 41.6162 109.945 42.0391 109.931 42.4576C109.962 42.7931 109.92 43.1313 109.808 43.4492C109.76 43.5576 109.689 43.6539 109.599 43.7313C109.218 43.9636 108.765 44.0478 108.326 43.9678C106.051 43.8996 104.036 45.1868 102.781 47.0472C102.106 48.1085 101.574 49.2539 101.198 50.4541C101.134 50.6588 101.048 50.8635 100.961 51.0727C100.707 51.7891 100.403 52.4868 100.052 53.1606C99.6752 53.8224 99.2431 54.4509 98.7598 55.0391C98.291 55.6515 97.7589 56.2125 97.1723 56.713C96.5821 57.2417 95.8639 57.6071 95.0891 57.7728C94.678 57.8251 94.2604 57.7776 93.8717 57.6342C93.483 57.491 93.1344 57.2561 92.8556 56.9496C92.3452 56.324 92.0445 55.5538 91.9959 54.748C91.9557 54.5171 92.001 54.2794 92.1234 54.0793C92.2443 53.9657 92.3878 53.8785 92.5444 53.8237C92.7012 53.7688 92.8676 53.7475 93.0331 53.761C94.2662 53.6626 95.4472 53.2211 96.4423 52.4863C97.4375 51.7516 98.2072 50.753 98.6643 49.6035C99.2199 48.2559 99.3931 46.7811 99.1646 45.3415C99.0576 44.6368 98.7967 43.9644 98.4004 43.3719C97.9901 42.7925 97.4305 42.3352 96.7812 42.0482C96.1231 41.7774 95.4176 41.6408 94.7061 41.6462C93.9944 41.6517 93.2911 41.7992 92.6374 42.0801C90.2902 43.0217 88.7619 45.105 87.9978 48.4481L87.9114 48.7984C87.4565 50.7999 86.9697 52.8922 85.5279 54.325C85.3446 54.5367 85.1126 54.7007 84.852 54.8029C84.5913 54.9052 84.3096 54.9425 84.0314 54.9118C83.9367 54.8941 83.8469 54.8562 83.7684 54.8004C83.6898 54.7447 83.6243 54.6724 83.5765 54.5888C83.1944 53.9429 83.6038 52.4146 84.1951 50.4951C84.3627 50.0053 84.4994 49.5055 84.6045 48.9985C84.6454 48.2931 84.4879 47.5903 84.1496 46.9699C83.7942 46.3902 83.2729 45.9306 82.6531 45.6508C82.0395 45.4408 81.3887 45.3618 80.7427 45.4188H80.538C80.3298 45.4276 80.1215 45.4062 79.9194 45.3551C79.7847 45.3246 79.66 45.26 79.5574 45.1676C79.4546 45.0753 79.3773 44.9581 79.3326 44.8275C79.2767 44.5134 79.297 44.1905 79.3918 43.8859C79.419 43.7995 79.4508 43.6812 79.4782 43.5948C79.557 43.2798 79.5343 42.9479 79.4135 42.6465C79.2926 42.3452 79.0796 42.0896 78.8049 41.9164C78.5208 41.7424 78.1995 41.6385 77.8673 41.6132C77.5351 41.5879 77.2018 41.6419 76.8945 41.7708C76.2568 42.0695 75.7321 42.5655 75.3981 43.1854C75.0507 43.78 74.9055 44.471 74.9841 45.155C75.1794 45.7811 75.2399 46.4415 75.1616 47.0927C74.925 48.2389 74.2518 49.176 73.574 50.1175C73.4239 50.3222 73.2784 50.5724 73.1192 50.7634C72.2874 51.993 71.3218 53.1265 70.2399 54.143C68.8191 55.4735 67.0782 56.4137 65.1864 56.8722C62.1343 57.5455 59.0185 56.6266 57.3719 53.8656C56.4989 52.2729 56.0069 50.4996 55.9345 48.6847C55.7004 45.1684 56.315 41.6474 57.7267 38.4184C59.0639 35.3117 61.0517 32.2005 64.736 31.8139C66.1689 31.6637 67.8155 32.1595 68.4569 33.4514C68.9118 34.3929 68.7617 35.5255 68.4569 36.5354C68.1521 37.5452 67.7382 38.5413 67.72 39.592C67.7018 40.6427 68.2294 41.8072 69.2346 42.1119C70.2399 42.4167 71.2725 41.7845 71.8365 40.9338C72.4005 40.0832 72.5961 39.0507 72.8418 38.0591C73.4167 35.7172 74.3283 33.471 75.5482 31.3908C76.1122 30.4311 76.7672 29.3894 76.5762 28.2932C76.5025 27.8988 76.3231 27.5318 76.0572 27.2313C75.7912 26.9309 75.4486 26.7084 75.066 26.5875C74.6798 26.4778 74.2713 26.4748 73.8835 26.579C73.4958 26.6831 73.1437 26.8904 72.8645 27.1788C72.3141 27.7656 72.0412 28.6844 71.2816 28.9437C70.522 29.2029 69.8578 28.7253 69.2074 28.3751C66.7739 27.0651 63.749 27.1106 61.1836 28.1659C58.6379 29.2943 56.4792 31.1446 54.9747 33.4877C52.6934 36.8336 51.306 40.7076 50.9447 44.7411C50.8309 46.1519 50.8309 47.5696 50.9447 48.9804C51.0424 50.6461 51.334 52.2947 51.8134 53.8929C52.3011 55.4969 53.0562 57.0071 54.0468 58.3597C55.0393 59.7002 56.3684 60.7547 57.8995 61.4163C59.448 62.0362 61.1088 62.3259 62.7756 62.2669C64.4445 62.1975 66.0831 61.7986 67.5972 61.0933C69.1229 60.3791 70.5371 59.4476 71.7955 58.3278C73.0833 57.2568 74.2378 56.0352 75.2343 54.6888C75.9155 53.7784 76.5239 52.8158 77.0538 51.8097C77.3176 51.3002 77.5632 50.7771 77.786 50.2449C77.844 50.0191 77.9468 49.8074 78.0882 49.6222C78.2296 49.437 78.4069 49.2822 78.6094 49.1669C78.7367 49.0956 78.8821 49.0631 79.0277 49.0736C79.1732 49.0841 79.3124 49.1371 79.4281 49.226C79.6768 49.3378 79.8758 49.5368 79.9876 49.7855C80.1302 50.2308 80.1206 50.7109 79.9603 51.1501V51.2091C79.8421 51.6185 79.7238 52.0279 79.5783 52.4419C79.0188 54.1749 78.6094 55.7624 78.9324 57.318C79.0784 58.1122 79.4332 58.8532 79.9603 59.465C80.4995 60.0539 81.2259 60.438 82.0163 60.5521C83.0394 60.6638 84.073 60.4758 84.9911 60.0108C85.5825 59.7328 86.1309 59.3713 86.6195 58.9373C86.8725 58.7092 87.1067 58.4614 87.32 58.1959C87.5156 57.9503 87.6976 57.5864 88.0659 57.6091C88.1569 57.6178 88.2446 57.6464 88.3233 57.6927C88.4019 57.7391 88.4693 57.8022 88.5208 57.8775C88.6166 58.0197 88.6959 58.1723 88.7574 58.3323C89.2425 59.3679 90.0147 60.2425 90.9823 60.8521C91.9499 61.4617 93.0722 61.7807 94.2157 61.7711H94.5114C95.6402 61.7268 96.7425 61.4151 97.7273 60.8614C98.7806 60.2369 99.7497 59.4803 100.611 58.6098C100.684 58.5294 100.776 58.4698 100.879 58.437C100.956 58.4291 101.033 58.4409 101.104 58.4712C101.175 58.5014 101.237 58.549 101.284 58.6098C101.373 58.7375 101.443 58.8768 101.493 59.0237C101.787 59.7158 102.248 60.3237 102.836 60.7924C103.424 61.261 104.119 61.5755 104.86 61.7074C105.602 61.8227 106.362 61.7504 107.07 61.497C107.778 61.2435 108.411 60.8171 108.912 60.2564C109.11 59.9931 109.334 59.7508 109.581 59.5332C109.705 59.428 109.853 59.3554 110.012 59.322C110.17 59.2886 110.335 59.2956 110.491 59.3421C110.914 59.515 111.046 60.0289 111.232 60.4429C111.459 60.911 111.815 61.3044 112.259 61.5768C112.702 61.8491 113.214 61.9891 113.734 61.9804C114.916 61.9242 116.034 61.4238 116.863 60.5793C117.634 59.803 118.346 58.9698 118.992 58.0867C119.103 57.9254 119.246 57.7877 119.411 57.6819C119.494 57.6318 119.59 57.6054 119.688 57.6054C119.786 57.6054 119.882 57.6318 119.965 57.6819C120.077 57.7874 120.159 57.9209 120.202 58.0685C120.555 58.8688 121.136 59.5469 121.874 60.0172C122.611 60.4875 123.471 60.7289 124.346 60.7113C126.06 60.6064 127.671 59.8555 128.854 58.6098C129.183 58.1831 129.643 57.8763 130.163 57.7365C130.732 57.6728 131.005 58.1913 131.205 58.6462C131.407 59.1904 131.763 59.6642 132.229 60.0108C132.548 60.2413 132.914 60.3979 133.301 60.4696C133.688 60.5411 134.086 60.5258 134.466 60.4247C135.233 60.2081 135.911 59.7544 136.404 59.1283C136.695 58.769 136.859 58.3051 137.182 57.973C137.505 57.641 137.701 58.0822 137.732 58.3687C137.779 58.8509 137.79 59.336 137.764 59.8198C137.714 60.7794 137.55 61.7302 137.428 62.6854C137.42 62.9631 137.329 63.2322 137.168 63.4586C137.028 63.5829 136.859 63.6715 136.677 63.7166C136.495 63.7618 136.305 63.7622 136.122 63.7179C135.667 63.6542 135.262 63.6178 134.817 63.5951L134.257 63.536C133.438 63.4814 132.611 63.3904 131.76 63.3631H130.996C129.568 63.3274 128.145 63.5461 126.793 64.009C125.849 64.3659 124.994 64.9237 124.287 65.644C123.58 66.3643 123.038 67.2297 122.699 68.1801C122.41 69.0205 122.34 69.9205 122.495 70.7956C122.66 71.6759 123.055 72.4967 123.641 73.1745C124.233 73.8447 124.954 74.388 125.762 74.7719C126.569 75.1557 127.446 75.3721 128.34 75.4079C130.161 75.4746 131.973 75.1131 133.63 74.3526C135.317 73.6418 136.819 72.5547 138.021 71.1741C139.223 69.7937 140.094 68.1566 140.566 66.3879C140.567 66.3503 140.579 66.3135 140.6 66.2822C140.621 66.2508 140.65 66.226 140.684 66.2106C141.873 65.8061 142.993 65.2216 144.005 64.4775C145.008 63.7166 145.906 62.8264 146.675 61.8303C147.046 61.3473 147.391 60.8447 147.708 60.3247C148.012 59.8198 148.258 59.2784 148.549 58.76C148.796 58.3635 148.979 57.9307 149.09 57.4772C149.147 57.2465 149.157 57.0066 149.118 56.7721C149.08 56.5376 148.995 56.3132 148.867 56.1126C148.708 55.9042 148.491 55.7463 148.244 55.6577ZM92.2962 48.9985C92.3644 48.7029 92.4554 48.4118 92.5419 48.1434C92.7808 47.4045 93.1372 46.7087 93.5971 46.0829C93.7515 45.8656 93.9405 45.6751 94.1566 45.5188C94.3759 45.364 94.6454 45.2975 94.9117 45.3324C95.1291 45.3918 95.3237 45.515 95.4704 45.6861C95.6172 45.8571 95.7093 46.0682 95.7349 46.2921C95.7946 47.0776 95.6373 47.8644 95.2801 48.5665C94.9963 49.2275 94.5579 49.811 94.002 50.2676C93.7758 50.4466 93.5302 50.5991 93.2696 50.7225C93.1242 50.7821 92.9711 50.8204 92.8147 50.8362H92.7556C92.641 50.846 92.5266 50.8166 92.4307 50.753C92.3349 50.6895 92.2635 50.5954 92.228 50.486C92.1635 49.9836 92.199 49.4734 92.3326 48.985M109.972 48.2253C109.949 48.5346 109.872 48.8439 109.849 49.1351C109.827 49.5308 109.808 49.9265 109.799 50.3222C109.799 50.9909 109.799 51.664 109.854 52.3327C109.908 53.0014 110.04 53.5517 109.799 54.1521C109.545 54.9139 109.089 55.5928 108.48 56.1172C108.175 56.3738 107.839 56.5908 107.48 56.763C107.169 56.9185 106.826 56.9995 106.479 56.9996C106.392 56.9996 106.333 56.9723 106.247 56.9723C106.018 56.9533 105.797 56.8756 105.607 56.7465C105.416 56.6174 105.262 56.4414 105.16 56.2355C104.959 55.8905 104.819 55.5135 104.746 55.121C104.432 53.5937 104.535 52.0104 105.041 50.536C105.362 49.6106 105.898 48.7748 106.606 48.0979C107.231 47.504 108.051 47.158 108.912 47.1246C109.061 47.1111 109.211 47.1275 109.353 47.1728C109.495 47.2181 109.627 47.2914 109.74 47.3883C109.906 47.5707 109.992 47.811 109.981 48.057C109.981 48.107 109.981 48.1616 109.981 48.2162M136.281 67.2249C136.201 67.4292 136.094 67.622 135.963 67.798C135.769 68.1376 135.541 68.4575 135.285 68.7532C134.891 69.2019 134.459 69.6158 133.993 69.9905C133.037 70.7082 131.958 71.2461 130.809 71.5779C130.158 71.7532 129.487 71.851 128.813 71.869H128.667C127.898 71.8774 127.151 71.6186 126.552 71.1367C126.228 70.8733 126.001 70.5103 125.906 70.1041C125.849 69.6821 125.92 69.2526 126.111 68.8715C126.427 68.1749 126.98 67.6126 127.671 67.284C128.985 66.723 130.419 66.501 131.842 66.6381L133.488 66.7291C133.943 66.7518 134.366 66.7882 134.808 66.8201C135.044 66.8201 135.262 66.8201 135.513 66.8656C135.696 66.8618 135.88 66.8694 136.063 66.8883C136.272 66.9474 136.313 67.0748 136.272 67.2249" fill="#FF6A00"/>
<path d="M80.5968 70.9728V65.8147H81.2928V67.7796C81.4319 67.5849 81.6155 67.4259 81.8283 67.316C82.041 67.206 82.2768 67.1482 82.5163 67.1474C83.4897 67.1474 84.1765 67.9116 84.1765 69.1079C84.1765 70.3041 83.4806 71.0638 82.5163 71.0638C82.2781 71.0619 82.0435 71.0045 81.8311 70.8964C81.6188 70.7882 81.4345 70.6322 81.2928 70.4407V70.9728H80.5968ZM81.2928 69.9039C81.4092 70.071 81.5644 70.2074 81.7449 70.3017C81.9255 70.3959 82.1261 70.4452 82.3298 70.4452C83.0258 70.4452 83.4579 69.8903 83.4579 69.1079C83.4579 68.3256 83.0258 67.7661 82.3298 67.7661C82.1253 67.7694 81.9246 67.8216 81.7442 67.9181C81.5639 68.0146 81.4091 68.1527 81.2928 68.321V69.9039Z" fill="#505759"/>
<path d="M85.1815 71.8097C85.2803 71.8473 85.385 71.8673 85.4907 71.8688C85.6093 71.881 85.7284 71.8513 85.8273 71.7848C85.9262 71.7184 85.9986 71.6193 86.0321 71.5049L86.2503 71.0091L84.7129 67.2383H85.4726L86.637 70.1676L87.8061 67.2383H88.5566L86.7143 71.6823C86.6333 71.9289 86.4729 72.1417 86.2581 72.2874C86.0433 72.4331 85.7862 72.5034 85.5272 72.4875C85.3739 72.4869 85.2213 72.4686 85.0723 72.4329L85.1815 71.8097Z" fill="#505759"/>
<path d="M91.4999 70.9729V65.8148H93.6604C93.8756 65.7992 94.0916 65.8293 94.2945 65.9028C94.4972 65.9763 94.6823 66.0917 94.8377 66.2414C94.993 66.3911 95.115 66.5719 95.1959 66.7719C95.2767 66.9719 95.3146 67.1866 95.307 67.4022C95.3133 67.6172 95.2744 67.8312 95.1931 68.0303C95.1116 68.2294 94.9894 68.4092 94.8344 68.5583C94.6793 68.7074 94.4947 68.8224 94.2926 68.896C94.0904 68.9694 93.8751 68.9999 93.6604 68.9852H92.2959V70.9729H91.4999ZM93.574 66.497H92.2959V68.3165H93.5967C93.7196 68.322 93.8424 68.3026 93.9576 68.2593C94.0727 68.2161 94.1779 68.15 94.2666 68.065C94.3555 67.98 94.4262 67.8777 94.4745 67.7646C94.5228 67.6515 94.5476 67.5298 94.5475 67.4068C94.5478 67.2817 94.5222 67.158 94.4727 67.0432C94.423 66.9285 94.3502 66.8253 94.2589 66.7399C94.1676 66.6545 94.0596 66.5889 93.9417 66.5471C93.824 66.5054 93.6988 66.4883 93.574 66.497Z" fill="#505759"/>
<path d="M97.827 67.1475C98.9459 67.1475 99.6464 68.0208 99.6464 69.1625V69.3354H96.6944C96.712 69.6563 96.8548 69.9576 97.0921 70.1744C97.3294 70.3913 97.6423 70.5065 97.9635 70.4953C98.3769 70.4925 98.7732 70.3294 99.0688 70.0404L99.3917 70.4953C98.9842 70.871 98.4446 71.0705 97.8907 71.0502C97.6318 71.0601 97.3738 71.0159 97.133 70.9204C96.8921 70.825 96.6739 70.6805 96.492 70.4961C96.3101 70.3116 96.1687 70.0913 96.0766 69.8491C95.9846 69.6071 95.9441 69.3484 95.9576 69.0898C95.949 68.8385 95.991 68.5881 96.081 68.3534C96.171 68.1186 96.3072 67.9044 96.4815 67.7233C96.6559 67.5422 96.8648 67.3979 97.0959 67.2989C97.327 67.2001 97.5756 67.1485 97.827 67.1475ZM96.6807 68.8305H98.9551C98.9569 68.6821 98.9288 68.5348 98.8723 68.3975C98.8158 68.2603 98.7323 68.1359 98.6264 68.0317C98.5206 67.9276 98.3948 67.846 98.2566 67.7917C98.1185 67.7375 97.9708 67.7118 97.8224 67.7161C97.5215 67.7172 97.2333 67.8367 97.0196 68.0485C96.806 68.2605 96.6843 68.5478 96.6807 68.8486V68.8305Z" fill="#505759"/>
<path d="M103.012 70.9729V70.5635C102.856 70.7286 102.667 70.8586 102.457 70.945C102.247 71.0312 102.021 71.0717 101.793 71.0638C101.626 71.0719 101.458 71.0458 101.301 70.9873C101.144 70.9287 101 70.8389 100.879 70.7233C100.757 70.6077 100.66 70.4686 100.594 70.3144C100.527 70.1604 100.493 69.9944 100.493 69.8266C100.49 69.6588 100.523 69.4924 100.588 69.3379C100.654 69.1834 100.751 69.0443 100.874 68.9296C100.996 68.8149 101.141 68.727 101.299 68.6715C101.458 68.6161 101.626 68.5942 101.793 68.6076C102.021 68.5962 102.247 68.6345 102.458 68.7203C102.669 68.8059 102.858 68.9367 103.012 69.1034V68.4847C103.012 68.03 102.635 67.7388 102.103 67.7388C101.891 67.7395 101.683 67.7839 101.489 67.8692C101.296 67.9546 101.122 68.0789 100.979 68.2346L100.679 67.757C100.88 67.5573 101.12 67.4003 101.383 67.2956C101.647 67.1908 101.928 67.1405 102.212 67.1475C103.022 67.1475 103.708 67.5023 103.708 68.4529V70.9729H103.012ZM103.012 69.5173C102.896 69.3775 102.749 69.2665 102.582 69.1931C102.416 69.1197 102.234 69.0859 102.053 69.0943C101.947 69.0823 101.84 69.0924 101.738 69.1238C101.637 69.1554 101.543 69.2076 101.462 69.2773C101.382 69.347 101.317 69.4326 101.271 69.5287C101.226 69.6249 101.201 69.7293 101.198 69.8358C101.201 69.9421 101.226 70.0466 101.271 70.1427C101.317 70.2388 101.382 70.3244 101.462 70.3941C101.543 70.4638 101.637 70.5161 101.738 70.5476C101.84 70.5791 101.947 70.5891 102.053 70.5772C102.234 70.5856 102.416 70.5517 102.582 70.4783C102.749 70.405 102.896 70.2939 103.012 70.1541V69.5173Z" fill="#505759"/>
<path d="M105.032 70.9729V67.2384H105.728V67.8116C105.868 67.6162 106.05 67.4552 106.261 67.3409C106.472 67.2266 106.707 67.162 106.947 67.152V67.8571C106.867 67.849 106.786 67.849 106.706 67.8571C106.511 67.8674 106.321 67.9209 106.15 68.0137C105.978 68.1066 105.829 68.2364 105.714 68.3938V70.9911L105.032 70.9729Z" fill="#505759"/>
<path d="M107.83 69.9766C108.163 70.31 108.614 70.5009 109.085 70.5088C109.608 70.5088 109.89 70.2904 109.89 69.9766C109.89 69.6628 109.463 69.4809 108.981 69.3717C108.344 69.2261 107.616 69.0532 107.616 68.2527C107.616 67.6568 108.125 67.1474 109.04 67.1474C109.566 67.1317 110.077 67.3227 110.463 67.6795L110.154 68.1663C110.012 68.0168 109.841 67.8989 109.65 67.8205C109.46 67.7422 109.255 67.7049 109.049 67.7114C108.594 67.7114 108.28 67.8933 108.28 68.1981C108.28 68.5029 108.685 68.653 109.149 68.7394C109.795 68.8849 110.568 69.0624 110.568 69.9221C110.568 70.5634 110.045 71.0637 109.062 71.0637C108.778 71.0765 108.493 71.032 108.226 70.9327C107.959 70.8335 107.714 70.6816 107.507 70.4861L107.83 69.9766Z" fill="#505759"/>
<path d="M111.4 69.1033C111.386 68.8484 111.424 68.5933 111.513 68.354C111.602 68.1146 111.739 67.8963 111.917 67.7126C112.094 67.5289 112.307 67.3839 112.543 67.2867C112.779 67.1893 113.033 67.142 113.288 67.1474C113.543 67.1419 113.797 67.1893 114.032 67.2867C114.268 67.3839 114.481 67.529 114.658 67.7128C114.835 67.8966 114.972 68.1151 115.06 68.3543C115.149 68.5936 115.186 68.8486 115.171 69.1033C115.187 69.3583 115.15 69.6138 115.062 69.8536C114.974 70.0935 114.837 70.3125 114.66 70.4968C114.483 70.681 114.27 70.8266 114.034 70.9241C113.797 71.0217 113.544 71.0692 113.288 71.0637C113.033 71.0685 112.779 71.0206 112.543 70.9227C112.307 70.825 112.094 70.6795 111.916 70.4955C111.739 70.3114 111.602 70.0928 111.513 69.8532C111.424 69.6136 111.386 69.3583 111.4 69.1033ZM114.448 69.1033C114.466 68.9382 114.449 68.7712 114.399 68.6128C114.35 68.4543 114.268 68.3078 114.159 68.1824C114.05 68.0569 113.917 67.9553 113.767 67.8836C113.617 67.812 113.454 67.7719 113.288 67.766C113.122 67.7719 112.959 67.812 112.809 67.8836C112.66 67.9553 112.526 68.0569 112.417 68.1824C112.309 68.3078 112.227 68.4543 112.177 68.6128C112.127 68.7712 112.111 68.9382 112.128 69.1033C112.111 69.2686 112.127 69.4359 112.177 69.5945C112.227 69.7532 112.308 69.9001 112.417 70.0258C112.526 70.1516 112.659 70.2537 112.809 70.3259C112.959 70.398 113.122 70.4386 113.288 70.4452C113.455 70.4399 113.619 70.4002 113.769 70.3285C113.92 70.2569 114.054 70.1549 114.164 70.0288C114.273 69.9028 114.355 69.7556 114.405 69.5963C114.455 69.437 114.471 69.2691 114.453 69.1033H114.448Z" fill="#505759"/>
<path d="M118.774 70.9728V68.5847C118.774 67.9662 118.455 67.766 117.978 67.766C117.777 67.7721 117.579 67.824 117.401 67.9178C117.223 68.0116 117.069 68.1448 116.95 68.3073V70.9728H116.254V67.2383H116.95V67.766C117.113 67.5749 117.315 67.4209 117.543 67.3142C117.77 67.2075 118.018 67.1507 118.269 67.1474C118.432 67.1265 118.598 67.1433 118.753 67.1965C118.909 67.2497 119.05 67.338 119.166 67.4545C119.282 67.571 119.37 67.7125 119.422 67.8683C119.475 68.024 119.491 68.1897 119.47 68.3528V70.9728H118.774Z" fill="#505759"/>
</svg>
